{
    "asset" : {
        "generator" : "Khronos glTF Blender I/O v1.5.17",
        "version" : "2.0"
    },
    "scene" : 0,
    "scenes" : [
        {
            "name" : "Scene",
            "nodes" : [
                6
            ]
        }
    ],
    "nodes" : [
        {
            "mesh" : 0,
            "name" : "Box001",
            "translation" : [
                0,
                0,
                20.000009536743164
            ]
        },
        {
            "mesh" : 1,
            "name" : "Box002",
            "rotation" : [
                0.7071068286895752,
                0,
                0,
                0.7071067094802856
            ],
            "translation" : [
                -25.25,
                31.322662353515625,
                40.000003814697266
            ]
        },
        {
            "mesh" : 2,
            "name" : "Box003",
            "rotation" : [
                -0.7071066498756409,
                0,
                0,
                0.70710688829422
            ],
            "scale" : [
                -1,
                -1,
                -1
            ],
            "translation" : [
                25.25,
                31.322660446166992,
                40.00000762939453
            ]
        },
        {
            "mesh" : 3,
            "name" : "Box004",
            "rotation" : [
                0.7071068286895752,
                0,
                0,
                0.7071067094802856
            ],
            "translation" : [
                25.200000762939453,
                108.67733764648438,
                37.000003814697266
            ]
        },
        {
            "mesh" : 4,
            "name" : "Box005",
            "rotation" : [
                0.7071068286895752,
                0,
                0,
                0.7071067094802856
            ],
            "translation" : [
                -25.200000762939453,
                108.67733764648438,
                37.000003814697266
            ]
        },
        {
            "mesh" : 5,
            "name" : "Box006",
            "translation" : [
                0.47449493408203125,
                118.30569458007812,
                18.751731872558594
            ]
        },
        {
            "children" : [
                0,
                1,
                2,
                3,
                4,
                5
            ],
            "name" : "Group001",
            "scale" : [
                0.009999999776482582,
                0.009999999776482582,
                0.009999999776482582
            ]
        }
    ],
    "materials" : [
        {
            "doubleSided" : true,
            "name" : "01 - Default.002",
            "normalTexture" : {
                "index" : 0,
                "scale" : 0.30000001192092896
            },
            "pbrMetallicRoughness" : {
                "baseColorTexture" : {
                    "index" : 1
                },
                "roughnessFactor" : 0.858578622341156
            }
        },
        {
            "doubleSided" : true,
            "name" : "02 - Default.002",
            "pbrMetallicRoughness" : {
                "roughnessFactor" : 0.8964735269546509
            }
        }
    ],
    "meshes" : [
        {
            "name" : "\u041c\u0435\u0448.018",
            "primitives" : [
                {
                    "attributes" : {
                        "POSITION" : 0,
                        "NORMAL" : 1,
                        "TEXCOORD_0" : 2
                    },
                    "indices" : 3,
                    "material" : 0
                }
            ]
        },
        {
            "name" : "\u041c\u0435\u0448.017",
            "primitives" : [
                {
                    "attributes" : {
                        "POSITION" : 4,
                        "NORMAL" : 5,
                        "TEXCOORD_0" : 6
                    },
                    "indices" : 7,
                    "material" : 1
                },
                {
                    "attributes" : {
                        "POSITION" : 8,
                        "NORMAL" : 9,
                        "TEXCOORD_0" : 10
                    },
                    "indices" : 11,
                    "material" : 0
                }
            ]
        },
        {
            "name" : "\u041c\u0435\u0448.016",
            "primitives" : [
                {
                    "attributes" : {
                        "POSITION" : 12,
                        "NORMAL" : 13,
                        "TEXCOORD_0" : 14
                    },
                    "indices" : 7,
                    "material" : 1
                },
                {
                    "attributes" : {
                        "POSITION" : 15,
                        "NORMAL" : 16,
                        "TEXCOORD_0" : 17
                    },
                    "indices" : 11,
                    "material" : 0
                }
            ]
        },
        {
            "name" : "\u041c\u0435\u0448.015",
            "primitives" : [
                {
                    "attributes" : {
                        "POSITION" : 18,
                        "NORMAL" : 19,
                        "TEXCOORD_0" : 20
                    },
                    "indices" : 21,
                    "material" : 1
                }
            ]
        },
        {
            "name" : "\u041c\u0435\u0448.014",
            "primitives" : [
                {
                    "attributes" : {
                        "POSITION" : 22,
                        "NORMAL" : 23,
                        "TEXCOORD_0" : 24
                    },
                    "indices" : 25,
                    "material" : 1
                }
            ]
        },
        {
            "name" : "\u041c\u0435\u0448.013",
            "primitives" : [
                {
                    "attributes" : {
                        "POSITION" : 26,
                        "NORMAL" : 27,
                        "TEXCOORD_0" : 28
                    },
                    "indices" : 21,
                    "material" : 0
                }
            ]
        }
    ],
    "textures" : [
        {
            "sampler" : 0,
            "source" : 0
        },
        {
            "sampler" : 0,
            "source" : 1
        }
    ],
    "images" : [
        {
            "bufferView" : 4,
            "mimeType" : "image/png",
            "name" : "NormalMap_ad7e5c0bf4ed9cd89ad79fa955961fae"
        },
        {
            "bufferView" : 5,
            "mimeType" : "image/jpeg",
            "name" : "ad7e5c0bf4ed9cd89ad79fa955961fae"
        }
    ],
    "accessors" : [
        {
            "bufferView" : 0,
            "componentType" : 5126,
            "count" : 172,
            "max" : [
                50,
                160,
                20
            ],
            "min" : [
                -50,
                0,
                -20
            ],
            "type" : "VEC3"
        },
        {
            "bufferView" : 1,
            "componentType" : 5126,
            "count" : 172,
            "type" : "VEC3"
        },
        {
            "bufferView" : 2,
            "componentType" : 5126,
            "count" : 172,
            "type" : "VEC2"
        },
        {
            "bufferView" : 3,
            "componentType" : 5123,
            "count" : 348,
            "type" : "SCALAR"
        },
        {
            "bufferView" : 6,
            "componentType" : 5126,
            "count" : 44,
            "max" : [
                24.75,
                0,
                28.677337646484375
            ],
            "min" : [
                -24.75,
                -3,
                -28.677337646484375
            ],
            "type" : "VEC3"
        },
        {
            "bufferView" : 7,
            "componentType" : 5126,
            "count" : 44,
            "type" : "VEC3"
        },
        {
            "bufferView" : 8,
            "componentType" : 5126,
            "count" : 44,
            "type" : "VEC2"
        },
        {
            "bufferView" : 9,
            "componentType" : 5123,
            "count" : 96,
            "type" : "SCALAR"
        },
        {
            "bufferView" : 10,
            "componentType" : 5126,
            "count" : 54,
            "max" : [
                24.75,
                0,
                -24.016674041748047
            ],
            "min" : [
                -7.75,
                -2,
                -28.677337646484375
            ],
            "type" : "VEC3"
        },
        {
            "bufferView" : 11,
            "componentType" : 5126,
            "count" : 54,
            "type" : "VEC3"
        },
        {
            "bufferView" : 12,
            "componentType" : 5126,
            "count" : 54,
            "type" : "VEC2"
        },
        {
            "bufferView" : 13,
            "componentType" : 5123,
            "count" : 144,
            "type" : "SCALAR"
        },
        {
            "bufferView" : 14,
            "componentType" : 5126,
            "count" : 44,
            "max" : [
                24.75,
                0,
                28.677337646484375
            ],
            "min" : [
                -24.75,
                -3,
                -28.677337646484375
            ],
            "type" : "VEC3"
        },
        {
            "bufferView" : 15,
            "componentType" : 5126,
            "count" : 44,
            "type" : "VEC3"
        },
        {
            "bufferView" : 16,
            "componentType" : 5126,
            "count" : 44,
            "type" : "VEC2"
        },
        {
            "bufferView" : 17,
            "componentType" : 5126,
            "count" : 54,
            "max" : [
                24.75,
                0,
                -24.016674041748047
            ],
            "min" : [
                -7.75,
                -2,
                -28.677337646484375
            ],
            "type" : "VEC3"
        },
        {
            "bufferView" : 18,
            "componentType" : 5126,
            "count" : 54,
            "type" : "VEC3"
        },
        {
            "bufferView" : 19,
            "componentType" : 5126,
            "count" : 54,
            "type" : "VEC2"
        },
        {
            "bufferView" : 20,
            "componentType" : 5126,
            "count" : 24,
            "max" : [
                24.75,
                3,
                48.677337646484375
            ],
            "min" : [
                -24.75,
                0,
                -48.677337646484375
            ],
            "type" : "VEC3"
        },
        {
            "bufferView" : 21,
            "componentType" : 5126,
            "count" : 24,
            "type" : "VEC3"
        },
        {
            "bufferView" : 22,
            "componentType" : 5126,
            "count" : 24,
            "type" : "VEC2"
        },
        {
            "bufferView" : 23,
            "componentType" : 5123,
            "count" : 36,
            "type" : "SCALAR"
        },
        {
            "bufferView" : 24,
            "componentType" : 5126,
            "count" : 126,
            "max" : [
                24.75,
                3,
                48.677337646484375
            ],
            "min" : [
                -24.75,
                0,
                -48.677337646484375
            ],
            "type" : "VEC3"
        },
        {
            "bufferView" : 25,
            "componentType" : 5126,
            "count" : 126,
            "type" : "VEC3"
        },
        {
            "bufferView" : 26,
            "componentType" : 5126,
            "count" : 126,
            "type" : "VEC2"
        },
        {
            "bufferView" : 27,
            "componentType" : 5123,
            "count" : 252,
            "type" : "SCALAR"
        },
        {
            "bufferView" : 28,
            "componentType" : 5126,
            "count" : 24,
            "max" : [
                46.84736251831055,
                1,
                15.938232421875
            ],
            "min" : [
                -46.84736251831055,
                0,
                -15.938232421875
            ],
            "type" : "VEC3"
        },
        {
            "bufferView" : 29,
            "componentType" : 5126,
            "count" : 24,
            "type" : "VEC3"
        },
        {
            "bufferView" : 30,
            "componentType" : 5126,
            "count" : 24,
            "type" : "VEC2"
        }
    ],
    "bufferViews" : [
        {
            "buffer" : 0,
            "byteLength" : 2064,
            "byteOffset" : 0
        },
        {
            "buffer" : 0,
            "byteLength" : 2064,
            "byteOffset" : 2064
        },
        {
            "buffer" : 0,
            "byteLength" : 1376,
            "byteOffset" : 4128
        },
        {
            "buffer" : 0,
            "byteLength" : 696,
            "byteOffset" : 5504
        },
        {
            "buffer" : 0,
            "byteLength" : 1292607,
            "byteOffset" : 6200
        },
        {
            "buffer" : 0,
            "byteLength" : 92126,
            "byteOffset" : 1298808
        },
        {
            "buffer" : 0,
            "byteLength" : 528,
            "byteOffset" : 1390936
        },
        {
            "buffer" : 0,
            "byteLength" : 528,
            "byteOffset" : 1391464
        },
        {
            "buffer" : 0,
            "byteLength" : 352,
            "byteOffset" : 1391992
        },
        {
            "buffer" : 0,
            "byteLength" : 192,
            "byteOffset" : 1392344
        },
        {
            "buffer" : 0,
            "byteLength" : 648,
            "byteOffset" : 1392536
        },
        {
            "buffer" : 0,
            "byteLength" : 648,
            "byteOffset" : 1393184
        },
        {
            "buffer" : 0,
            "byteLength" : 432,
            "byteOffset" : 1393832
        },
        {
            "buffer" : 0,
            "byteLength" : 288,
            "byteOffset" : 1394264
        },
        {
            "buffer" : 0,
            "byteLength" : 528,
            "byteOffset" : 1394552
        },
        {
            "buffer" : 0,
            "byteLength" : 528,
            "byteOffset" : 1395080
        },
        {
            "buffer" : 0,
            "byteLength" : 352,
            "byteOffset" : 1395608
        },
        {
            "buffer" : 0,
            "byteLength" : 648,
            "byteOffset" : 1395960
        },
        {
            "buffer" : 0,
            "byteLength" : 648,
            "byteOffset" : 1396608
        },
        {
            "buffer" : 0,
            "byteLength" : 432,
            "byteOffset" : 1397256
        },
        {
            "buffer" : 0,
            "byteLength" : 288,
            "byteOffset" : 1397688
        },
        {
            "buffer" : 0,
            "byteLength" : 288,
            "byteOffset" : 1397976
        },
        {
            "buffer" : 0,
            "byteLength" : 192,
            "byteOffset" : 1398264
        },
        {
            "buffer" : 0,
            "byteLength" : 72,
            "byteOffset" : 1398456
        },
        {
            "buffer" : 0,
            "byteLength" : 1512,
            "byteOffset" : 1398528
        },
        {
            "buffer" : 0,
            "byteLength" : 1512,
            "byteOffset" : 1400040
        },
        {
            "buffer" : 0,
            "byteLength" : 1008,
            "byteOffset" : 1401552
        },
        {
            "buffer" : 0,
            "byteLength" : 504,
            "byteOffset" : 1402560
        },
        {
            "buffer" : 0,
            "byteLength" : 288,
            "byteOffset" : 1403064
        },
        {
            "buffer" : 0,
            "byteLength" : 288,
            "byteOffset" : 1403352
        },
        {
            "buffer" : 0,
            "byteLength" : 192,
            "byteOffset" : 1403640
        }
    ],
    "samplers" : [
        {
            "magFilter" : 9729,
            "minFilter" : 9987
        }
    ],
    "buffers" : [
        {
            "byteLength" : 1403832,
            "uri" : "data:application/octet-stream;base64,"
        }
    ]
}
