{
    "asset" : {
        "copyright" : "textur",
        "generator" : "Khronos glTF Blender I/O v1.5.17",
        "version" : "2.0"
    },
    "scene" : 0,
    "scenes" : [
        {
            "name" : "Scene",
            "nodes" : [
                0,
                1
            ]
        }
    ],
    "nodes" : [
        {
            "mesh" : 0,
            "name" : "Cube"
        },
        {
            "mesh" : 1,
            "name" : "Cube.002"
        }
    ],
    "animations" : [
        {
            "channels" : [
                {
                    "sampler" : 0,
                    "target" : {
                        "node" : 0,
                        "path" : "translation"
                    }
                },
                {
                    "sampler" : 1,
                    "target" : {
                        "node" : 0,
                        "path" : "rotation"
                    }
                },
                {
                    "sampler" : 2,
                    "target" : {
                        "node" : 0,
                        "path" : "scale"
                    }
                }
            ],
            "name" : "Cube|Take 001|BaseLayer.001",
            "samplers" : [
                {
                    "input" : 8,
                    "interpolation" : "STEP",
                    "output" : 9
                },
                {
                    "input" : 8,
                    "interpolation" : "STEP",
                    "output" : 10
                },
                {
                    "input" : 8,
                    "interpolation" : "STEP",
                    "output" : 11
                }
            ]
        },
        {
            "channels" : [
                {
                    "sampler" : 0,
                    "target" : {
                        "node" : 1,
                        "path" : "translation"
                    }
                },
                {
                    "sampler" : 1,
                    "target" : {
                        "node" : 1,
                        "path" : "rotation"
                    }
                },
                {
                    "sampler" : 2,
                    "target" : {
                        "node" : 1,
                        "path" : "scale"
                    }
                }
            ],
            "name" : "Cube.002|Take 001|BaseLayer.001",
            "samplers" : [
                {
                    "input" : 8,
                    "interpolation" : "STEP",
                    "output" : 12
                },
                {
                    "input" : 8,
                    "interpolation" : "STEP",
                    "output" : 13
                },
                {
                    "input" : 8,
                    "interpolation" : "STEP",
                    "output" : 14
                }
            ]
        }
    ],
    "materials" : [
        {
            "doubleSided" : true,
            "name" : "01 - Default.002",
            "pbrMetallicRoughness" : {
                "baseColorTexture" : {
                    "index" : 0
                },
                "roughnessFactor" : 0.858578622341156
            }
        },
        {
            "doubleSided" : true,
            "name" : "Material.002",
            "pbrMetallicRoughness" : {
                "baseColorTexture" : {
                    "index" : 1
                }
            }
        }
    ],
    "meshes" : [
        {
            "name" : "\u041c\u0435\u0448.035",
            "primitives" : [
                {
                    "attributes" : {
                        "POSITION" : 0,
                        "NORMAL" : 1,
                        "TEXCOORD_0" : 2
                    },
                    "indices" : 3,
                    "material" : 0
                }
            ]
        },
        {
            "name" : "\u041c\u0435\u0448.036",
            "primitives" : [
                {
                    "attributes" : {
                        "POSITION" : 4,
                        "NORMAL" : 5,
                        "TEXCOORD_0" : 6
                    },
                    "indices" : 7,
                    "material" : 1
                }
            ]
        }
    ],
    "textures" : [
        {
            "sampler" : 0,
            "source" : 0
        },
        {
            "sampler" : 0,
            "source" : 0
        }
    ],
    "images" : [
        {
            "bufferView" : 4,
            "mimeType" : "image/jpeg",
            "name" : "walnut"
        }
    ],
    "accessors" : [
        {
            "bufferView" : 0,
            "componentType" : 5126,
            "count" : 1569,
            "max" : [
                0.3500000238418579,
                0.35099363327026367,
                0.3500000238418579
            ],
            "min" : [
                -0.3500000238418579,
                1.4901161193847656e-08,
                -0.3500000238418579
            ],
            "type" : "VEC3"
        },
        {
            "bufferView" : 1,
            "componentType" : 5126,
            "count" : 1569,
            "type" : "VEC3"
        },
        {
            "bufferView" : 2,
            "componentType" : 5126,
            "count" : 1569,
            "type" : "VEC2"
        },
        {
            "bufferView" : 3,
            "componentType" : 5123,
            "count" : 7578,
            "type" : "SCALAR"
        },
        {
            "bufferView" : 5,
            "componentType" : 5126,
            "count" : 256,
            "max" : [
                0.3463065028190613,
                0.3313695192337036,
                0.3463065028190613
            ],
            "min" : [
                -0.3463065028190613,
                0.30000001192092896,
                -0.3463065028190613
            ],
            "type" : "VEC3"
        },
        {
            "bufferView" : 6,
            "componentType" : 5126,
            "count" : 256,
            "type" : "VEC3"
        },
        {
            "bufferView" : 7,
            "componentType" : 5126,
            "count" : 256,
            "type" : "VEC2"
        },
        {
            "bufferView" : 8,
            "componentType" : 5123,
            "count" : 1176,
            "type" : "SCALAR"
        },
        {
            "bufferView" : 9,
            "componentType" : 5126,
            "count" : 1,
            "max" : [
                0.03333333333333333
            ],
            "min" : [
                0.03333333333333333
            ],
            "type" : "SCALAR"
        },
        {
            "bufferView" : 10,
            "componentType" : 5126,
            "count" : 1,
            "type" : "VEC3"
        },
        {
            "bufferView" : 11,
            "componentType" : 5126,
            "count" : 1,
            "type" : "VEC4"
        },
        {
            "bufferView" : 12,
            "componentType" : 5126,
            "count" : 1,
            "type" : "VEC3"
        },
        {
            "bufferView" : 13,
            "componentType" : 5126,
            "count" : 1,
            "type" : "VEC3"
        },
        {
            "bufferView" : 14,
            "componentType" : 5126,
            "count" : 1,
            "type" : "VEC4"
        },
        {
            "bufferView" : 15,
            "componentType" : 5126,
            "count" : 1,
            "type" : "VEC3"
        }
    ],
    "bufferViews" : [
        {
            "buffer" : 0,
            "byteLength" : 18828,
            "byteOffset" : 0
        },
        {
            "buffer" : 0,
            "byteLength" : 18828,
            "byteOffset" : 18828
        },
        {
            "buffer" : 0,
            "byteLength" : 12552,
            "byteOffset" : 37656
        },
        {
            "buffer" : 0,
            "byteLength" : 15156,
            "byteOffset" : 50208
        },
        {
            "buffer" : 0,
            "byteLength" : 98098,
            "byteOffset" : 65364
        },
        {
            "buffer" : 0,
            "byteLength" : 3072,
            "byteOffset" : 163464
        },
        {
            "buffer" : 0,
            "byteLength" : 3072,
            "byteOffset" : 166536
        },
        {
            "buffer" : 0,
            "byteLength" : 2048,
            "byteOffset" : 169608
        },
        {
            "buffer" : 0,
            "byteLength" : 2352,
            "byteOffset" : 171656
        },
        {
            "buffer" : 0,
            "byteLength" : 4,
            "byteOffset" : 174008
        },
        {
            "buffer" : 0,
            "byteLength" : 12,
            "byteOffset" : 174012
        },
        {
            "buffer" : 0,
            "byteLength" : 16,
            "byteOffset" : 174024
        },
        {
            "buffer" : 0,
            "byteLength" : 12,
            "byteOffset" : 174040
        },
        {
            "buffer" : 0,
            "byteLength" : 12,
            "byteOffset" : 174052
        },
        {
            "buffer" : 0,
            "byteLength" : 16,
            "byteOffset" : 174064
        },
        {
            "buffer" : 0,
            "byteLength" : 12,
            "byteOffset" : 174080
        }
    ],
    "samplers" : [
        {
            "magFilter" : 9729,
            "minFilter" : 9987
        }
    ],
    "buffers" : [
        {
            "byteLength" : 174092,
            "uri" : "data:application/octet-stream;base64,"
        }
    ]
}
