<svg width="343" height="48" viewBox="0 0 343 48" fill="none" xmlns="http://www.w3.org/2000/svg">
<path d="M0 10C0 4.47715 4.47715 0 10 0H333C338.523 0 343 4.47715 343 10V38C343 43.5229 338.523 48 333 48H10C4.47716 48 0 43.5228 0 38V10Z" fill="#DF661C"/>
<path d="M77.4264 18.3636H68.7446V30H70.1537V19.6136H76.0174V30H77.4264V18.3636ZM79.767 33.2727H81.1079V28.6591H81.2215C81.517 29.1364 82.0851 30.1818 83.767 30.1818C85.9488 30.1818 87.4715 28.4318 87.4715 25.6591C87.4715 22.9091 85.9488 21.1591 83.7442 21.1591C82.0397 21.1591 81.517 22.2045 81.2215 22.6591H81.0624V21.2727H79.767V33.2727ZM81.0851 25.6364C81.0851 23.6818 81.9488 22.3636 83.5851 22.3636C85.2897 22.3636 86.1306 23.7955 86.1306 25.6364C86.1306 27.5 85.267 28.9773 83.5851 28.9773C81.9715 28.9773 81.0851 27.6136 81.0851 25.6364ZM90.5379 28.0227V21.2727H89.197V30H90.7651L94.947 23.25V30H96.2879V21.2727H94.7424L90.5379 28.0227ZM103.197 28.1818L100.197 21.2727H98.4238V30H99.7647V23.1989L102.651 30H103.742L106.628 23.3239V30H107.969V21.2727H106.242L103.197 28.1818ZM113.763 30.1818C115.536 30.1818 116.831 29.2955 117.24 27.9773L115.945 27.6136C115.604 28.5227 114.814 28.9773 113.763 28.9773C112.189 28.9773 111.104 27.9602 111.041 26.0909H117.377V25.5227C117.377 22.2727 115.445 21.1591 113.627 21.1591C111.263 21.1591 109.695 23.0227 109.695 25.7045C109.695 28.3864 111.24 30.1818 113.763 30.1818ZM111.041 24.9318C111.132 23.5739 112.092 22.3636 113.627 22.3636C115.081 22.3636 116.013 23.4545 116.013 24.9318H111.041ZM119.096 33.2727H120.437V28.6591H120.551C120.846 29.1364 121.415 30.1818 123.096 30.1818C125.278 30.1818 126.801 28.4318 126.801 25.6591C126.801 22.9091 125.278 21.1591 123.074 21.1591C121.369 21.1591 120.846 22.2045 120.551 22.6591H120.392V21.2727H119.096V33.2727ZM120.415 25.6364C120.415 23.6818 121.278 22.3636 122.915 22.3636C124.619 22.3636 125.46 23.7955 125.46 25.6364C125.46 27.5 124.596 28.9773 122.915 28.9773C121.301 28.9773 120.415 27.6136 120.415 25.6364ZM129.867 28.0227V21.2727H128.526V30H130.095L134.276 23.25V30H135.617V21.2727H134.072L129.867 28.0227ZM136.566 22.5227H139.452V30H140.793V22.5227H143.657V21.2727H136.566V22.5227ZM146.633 24.4318V21.2727H145.293V30H148.952C150.997 30 152.111 28.75 152.111 27.1818C152.111 25.5909 150.997 24.4318 148.952 24.4318H146.633ZM146.633 25.6818H148.952C150.014 25.6818 150.77 26.3295 150.77 27.25C150.77 28.1307 150.014 28.75 148.952 28.75H146.633V25.6818ZM158.012 30H162.126C163.898 30 164.967 29 164.967 27.6591C164.967 26.2898 163.927 25.5511 162.967 25.4091C163.949 25.2045 164.648 24.6534 164.648 23.5909C164.648 22.1989 163.455 21.2727 161.58 21.2727H158.012V30ZM159.285 28.7727V26.0909H162.126C163.046 26.0909 163.603 26.642 163.603 27.5455C163.603 28.3068 163.046 28.7727 162.126 28.7727H159.285ZM159.285 24.9318V22.5H161.58C162.654 22.5 163.307 22.9489 163.307 23.6818C163.307 24.4602 162.654 24.9318 161.58 24.9318H159.285ZM170.856 30H172.197V22.5227H176.379V30H177.72V21.2727H170.856V30ZM179.849 33.2727H181.19V28.6591H181.303C181.599 29.1364 182.167 30.1818 183.849 30.1818C186.031 30.1818 187.553 28.4318 187.553 25.6591C187.553 22.9091 186.031 21.1591 183.826 21.1591C182.122 21.1591 181.599 22.2045 181.303 22.6591H181.144V21.2727H179.849V33.2727ZM181.167 25.6364C181.167 23.6818 182.031 22.3636 183.667 22.3636C185.372 22.3636 186.212 23.7955 186.212 25.6364C186.212 27.5 185.349 28.9773 183.667 28.9773C182.053 28.9773 181.167 27.6136 181.167 25.6364ZM192.824 30.1818C195.188 30.1818 196.779 28.3864 196.779 25.6818C196.779 22.9545 195.188 21.1591 192.824 21.1591C190.461 21.1591 188.87 22.9545 188.87 25.6818C188.87 28.3864 190.461 30.1818 192.824 30.1818ZM192.824 28.9773C191.029 28.9773 190.211 27.4318 190.211 25.6818C190.211 23.9318 191.029 22.3636 192.824 22.3636C194.62 22.3636 195.438 23.9318 195.438 25.6818C195.438 27.4318 194.62 28.9773 192.824 28.9773ZM202.051 30.1818C203.983 30.1818 205.256 29 205.483 27.4545H204.142C203.892 28.4091 203.097 28.9773 202.051 28.9773C200.46 28.9773 199.438 27.6591 199.438 25.6364C199.438 23.6591 200.483 22.3636 202.051 22.3636C203.233 22.3636 203.938 23.0909 204.142 23.8864H205.483C205.256 22.25 203.869 21.1591 202.028 21.1591C199.665 21.1591 198.097 23.0227 198.097 25.6818C198.097 28.2955 199.597 30.1818 202.051 30.1818ZM206.436 22.5227H209.322V30H210.663V22.5227H213.527V21.2727H206.436V22.5227ZM215.163 33.2727H216.503V28.6591H216.617C216.913 29.1364 217.481 30.1818 219.163 30.1818C221.344 30.1818 222.867 28.4318 222.867 25.6591C222.867 22.9091 221.344 21.1591 219.14 21.1591C217.435 21.1591 216.913 22.2045 216.617 22.6591H216.458V21.2727H215.163V33.2727ZM216.481 25.6364C216.481 23.6818 217.344 22.3636 218.981 22.3636C220.685 22.3636 221.526 23.7955 221.526 25.6364C221.526 27.5 220.663 28.9773 218.981 28.9773C217.367 28.9773 216.481 27.6136 216.481 25.6364ZM227.161 30.2045C228.684 30.2045 229.479 29.3864 229.752 28.8182H229.82V30H231.161V24.25C231.161 21.4773 229.047 21.1591 227.934 21.1591C226.615 21.1591 225.115 21.6136 224.434 23.2045L225.706 23.6591C226.002 23.0227 226.701 22.3409 227.979 22.3409C229.212 22.3409 229.82 22.9943 229.82 24.1136V24.1591C229.82 24.8068 229.161 24.75 227.57 24.9545C225.951 25.1648 224.184 25.5227 224.184 27.5227C224.184 29.2273 225.502 30.2045 227.161 30.2045ZM227.365 29C226.297 29 225.524 28.5227 225.524 27.5909C225.524 26.5682 226.456 26.25 227.502 26.1136C228.07 26.0455 229.593 25.8864 229.82 25.6136V26.8409C229.82 27.9318 228.956 29 227.365 29ZM234.629 21.2727H233.288V30H234.629V26.2727H238.811V30H240.152V21.2727H238.811V25.0227H234.629V21.2727ZM245.826 30.1818C247.758 30.1818 249.031 29 249.258 27.4545H247.917C247.667 28.4091 246.872 28.9773 245.826 28.9773C244.235 28.9773 243.213 27.6591 243.213 25.6364C243.213 23.6591 244.258 22.3636 245.826 22.3636C247.008 22.3636 247.713 23.0909 247.917 23.8864H249.258C249.031 22.25 247.644 21.1591 245.803 21.1591C243.44 21.1591 241.872 23.0227 241.872 25.6818C241.872 28.2955 243.372 30.1818 245.826 30.1818ZM250.211 22.5227H253.097V30H254.438V22.5227H257.302V21.2727H250.211V22.5227ZM258.938 30H263.051C264.824 30 265.892 29 265.892 27.6591C265.892 26.2898 264.852 25.5511 263.892 25.4091C264.875 25.2045 265.574 24.6534 265.574 23.5909C265.574 22.1989 264.381 21.2727 262.506 21.2727H258.938V30ZM260.21 28.7727V26.0909H263.051C263.972 26.0909 264.529 26.642 264.529 27.5455C264.529 28.3068 263.972 28.7727 263.051 28.7727H260.21ZM260.21 24.9318V22.5H262.506C263.58 22.5 264.233 22.9489 264.233 23.6818C264.233 24.4602 263.58 24.9318 262.506 24.9318H260.21ZM271.261 30.1818C273.034 30.1818 274.329 29.2955 274.738 27.9773L273.443 27.6136C273.102 28.5227 272.312 28.9773 271.261 28.9773C269.687 28.9773 268.602 27.9602 268.539 26.0909H274.875V25.5227C274.875 22.2727 272.943 21.1591 271.125 21.1591C268.761 21.1591 267.193 23.0227 267.193 25.7045C267.193 28.3864 268.738 30.1818 271.261 30.1818ZM268.539 24.9318C268.63 23.5739 269.591 22.3636 271.125 22.3636C272.579 22.3636 273.511 23.4545 273.511 24.9318H268.539Z" fill="white"/>
</svg>
