<svg width="391" height="96" viewBox="0 0 391 96" fill="none" xmlns="http://www.w3.org/2000/svg">
<g filter="url(#filter0_d)">
<path d="M24 30C24 24.4772 28.4772 20 34 20H357C362.523 20 367 24.4772 367 30V58C367 63.5228 362.523 68 357 68H34C28.4772 68 24 63.5228 24 58V30Z" fill="#DF661C"/>
<path d="M101.426 38.3636H92.7446V50H94.1537V39.6136H100.017V50H101.426V38.3636ZM103.767 53.2727H105.108V48.6591H105.222C105.517 49.1364 106.085 50.1818 107.767 50.1818C109.949 50.1818 111.472 48.4318 111.472 45.6591C111.472 42.9091 109.949 41.1591 107.744 41.1591C106.04 41.1591 105.517 42.2045 105.222 42.6591H105.062V41.2727H103.767V53.2727ZM105.085 45.6364C105.085 43.6818 105.949 42.3636 107.585 42.3636C109.29 42.3636 110.131 43.7955 110.131 45.6364C110.131 47.5 109.267 48.9773 107.585 48.9773C105.972 48.9773 105.085 47.6136 105.085 45.6364ZM114.538 48.0227V41.2727H113.197V50H114.765L118.947 43.25V50H120.288V41.2727H118.742L114.538 48.0227ZM127.197 48.1818L124.197 41.2727H122.424V50H123.765V43.1989L126.651 50H127.742L130.628 43.3239V50H131.969V41.2727H130.242L127.197 48.1818ZM137.763 50.1818C139.536 50.1818 140.831 49.2955 141.24 47.9773L139.945 47.6136C139.604 48.5227 138.814 48.9773 137.763 48.9773C136.189 48.9773 135.104 47.9602 135.041 46.0909H141.377V45.5227C141.377 42.2727 139.445 41.1591 137.627 41.1591C135.263 41.1591 133.695 43.0227 133.695 45.7045C133.695 48.3864 135.24 50.1818 137.763 50.1818ZM135.041 44.9318C135.132 43.5739 136.092 42.3636 137.627 42.3636C139.081 42.3636 140.013 43.4545 140.013 44.9318H135.041ZM143.096 53.2727H144.437V48.6591H144.551C144.846 49.1364 145.415 50.1818 147.096 50.1818C149.278 50.1818 150.801 48.4318 150.801 45.6591C150.801 42.9091 149.278 41.1591 147.074 41.1591C145.369 41.1591 144.846 42.2045 144.551 42.6591H144.392V41.2727H143.096V53.2727ZM144.415 45.6364C144.415 43.6818 145.278 42.3636 146.915 42.3636C148.619 42.3636 149.46 43.7955 149.46 45.6364C149.46 47.5 148.596 48.9773 146.915 48.9773C145.301 48.9773 144.415 47.6136 144.415 45.6364ZM153.867 48.0227V41.2727H152.526V50H154.095L158.276 43.25V50H159.617V41.2727H158.072L153.867 48.0227ZM160.566 42.5227H163.452V50H164.793V42.5227H167.657V41.2727H160.566V42.5227ZM170.633 44.4318V41.2727H169.293V50H172.952C174.997 50 176.111 48.75 176.111 47.1818C176.111 45.5909 174.997 44.4318 172.952 44.4318H170.633ZM170.633 45.6818H172.952C174.014 45.6818 174.77 46.3295 174.77 47.25C174.77 48.1307 174.014 48.75 172.952 48.75H170.633V45.6818ZM182.012 50H186.126C187.898 50 188.967 49 188.967 47.6591C188.967 46.2898 187.927 45.5511 186.967 45.4091C187.949 45.2045 188.648 44.6534 188.648 43.5909C188.648 42.1989 187.455 41.2727 185.58 41.2727H182.012V50ZM183.285 48.7727V46.0909H186.126C187.046 46.0909 187.603 46.642 187.603 47.5455C187.603 48.3068 187.046 48.7727 186.126 48.7727H183.285ZM183.285 44.9318V42.5H185.58C186.654 42.5 187.307 42.9489 187.307 43.6818C187.307 44.4602 186.654 44.9318 185.58 44.9318H183.285ZM194.856 50H196.197V42.5227H200.379V50H201.72V41.2727H194.856V50ZM203.849 53.2727H205.19V48.6591H205.303C205.599 49.1364 206.167 50.1818 207.849 50.1818C210.031 50.1818 211.553 48.4318 211.553 45.6591C211.553 42.9091 210.031 41.1591 207.826 41.1591C206.122 41.1591 205.599 42.2045 205.303 42.6591H205.144V41.2727H203.849V53.2727ZM205.167 45.6364C205.167 43.6818 206.031 42.3636 207.667 42.3636C209.372 42.3636 210.212 43.7955 210.212 45.6364C210.212 47.5 209.349 48.9773 207.667 48.9773C206.053 48.9773 205.167 47.6136 205.167 45.6364ZM216.824 50.1818C219.188 50.1818 220.779 48.3864 220.779 45.6818C220.779 42.9545 219.188 41.1591 216.824 41.1591C214.461 41.1591 212.87 42.9545 212.87 45.6818C212.87 48.3864 214.461 50.1818 216.824 50.1818ZM216.824 48.9773C215.029 48.9773 214.211 47.4318 214.211 45.6818C214.211 43.9318 215.029 42.3636 216.824 42.3636C218.62 42.3636 219.438 43.9318 219.438 45.6818C219.438 47.4318 218.62 48.9773 216.824 48.9773ZM226.051 50.1818C227.983 50.1818 229.256 49 229.483 47.4545H228.142C227.892 48.4091 227.097 48.9773 226.051 48.9773C224.46 48.9773 223.438 47.6591 223.438 45.6364C223.438 43.6591 224.483 42.3636 226.051 42.3636C227.233 42.3636 227.938 43.0909 228.142 43.8864H229.483C229.256 42.25 227.869 41.1591 226.028 41.1591C223.665 41.1591 222.097 43.0227 222.097 45.6818C222.097 48.2955 223.597 50.1818 226.051 50.1818ZM230.436 42.5227H233.322V50H234.663V42.5227H237.527V41.2727H230.436V42.5227ZM239.163 53.2727H240.503V48.6591H240.617C240.913 49.1364 241.481 50.1818 243.163 50.1818C245.344 50.1818 246.867 48.4318 246.867 45.6591C246.867 42.9091 245.344 41.1591 243.14 41.1591C241.435 41.1591 240.913 42.2045 240.617 42.6591H240.458V41.2727H239.163V53.2727ZM240.481 45.6364C240.481 43.6818 241.344 42.3636 242.981 42.3636C244.685 42.3636 245.526 43.7955 245.526 45.6364C245.526 47.5 244.663 48.9773 242.981 48.9773C241.367 48.9773 240.481 47.6136 240.481 45.6364ZM251.161 50.2045C252.684 50.2045 253.479 49.3864 253.752 48.8182H253.82V50H255.161V44.25C255.161 41.4773 253.047 41.1591 251.934 41.1591C250.615 41.1591 249.115 41.6136 248.434 43.2045L249.706 43.6591C250.002 43.0227 250.701 42.3409 251.979 42.3409C253.212 42.3409 253.82 42.9943 253.82 44.1136V44.1591C253.82 44.8068 253.161 44.75 251.57 44.9545C249.951 45.1648 248.184 45.5227 248.184 47.5227C248.184 49.2273 249.502 50.2045 251.161 50.2045ZM251.365 49C250.297 49 249.524 48.5227 249.524 47.5909C249.524 46.5682 250.456 46.25 251.502 46.1136C252.07 46.0455 253.593 45.8864 253.82 45.6136V46.8409C253.82 47.9318 252.956 49 251.365 49ZM258.629 41.2727H257.288V50H258.629V46.2727H262.811V50H264.152V41.2727H262.811V45.0227H258.629V41.2727ZM269.826 50.1818C271.758 50.1818 273.031 49 273.258 47.4545H271.917C271.667 48.4091 270.872 48.9773 269.826 48.9773C268.235 48.9773 267.213 47.6591 267.213 45.6364C267.213 43.6591 268.258 42.3636 269.826 42.3636C271.008 42.3636 271.713 43.0909 271.917 43.8864H273.258C273.031 42.25 271.644 41.1591 269.803 41.1591C267.44 41.1591 265.872 43.0227 265.872 45.6818C265.872 48.2955 267.372 50.1818 269.826 50.1818ZM274.211 42.5227H277.097V50H278.438V42.5227H281.302V41.2727H274.211V42.5227ZM282.938 50H287.051C288.824 50 289.892 49 289.892 47.6591C289.892 46.2898 288.852 45.5511 287.892 45.4091C288.875 45.2045 289.574 44.6534 289.574 43.5909C289.574 42.1989 288.381 41.2727 286.506 41.2727H282.938V50ZM284.21 48.7727V46.0909H287.051C287.972 46.0909 288.529 46.642 288.529 47.5455C288.529 48.3068 287.972 48.7727 287.051 48.7727H284.21ZM284.21 44.9318V42.5H286.506C287.58 42.5 288.233 42.9489 288.233 43.6818C288.233 44.4602 287.58 44.9318 286.506 44.9318H284.21ZM295.261 50.1818C297.034 50.1818 298.329 49.2955 298.738 47.9773L297.443 47.6136C297.102 48.5227 296.312 48.9773 295.261 48.9773C293.687 48.9773 292.602 47.9602 292.539 46.0909H298.875V45.5227C298.875 42.2727 296.943 41.1591 295.125 41.1591C292.761 41.1591 291.193 43.0227 291.193 45.7045C291.193 48.3864 292.738 50.1818 295.261 50.1818ZM292.539 44.9318C292.63 43.5739 293.591 42.3636 295.125 42.3636C296.579 42.3636 297.511 43.4545 297.511 44.9318H292.539Z" fill="white"/>
</g>
<defs>
<filter id="filter0_d" x="0" y="0" width="391" height="96" filterUnits="userSpaceOnUse" color-interpolation-filters="sRGB">
<feFlood flood-opacity="0" result="BackgroundImageFix"/>
<feColorMatrix in="SourceAlpha" type="matrix" values="0 0 0 0 0 0 0 0 0 0 0 0 0 0 0 0 0 0 127 0"/>
<feOffset dy="4"/>
<feGaussianBlur stdDeviation="12"/>
<feColorMatrix type="matrix" values="0 0 0 0 0 0 0 0 0 0 0 0 0 0 0 0 0 0 0.25 0"/>
<feBlend mode="normal" in2="BackgroundImageFix" result="effect1_dropShadow"/>
<feBlend mode="normal" in="SourceGraphic" in2="effect1_dropShadow" result="shape"/>
</filter>
</defs>
</svg>
