{
    "asset" : {
        "copyright" : "textur",
        "generator" : "Khronos glTF Blender I/O v1.5.17",
        "version" : "2.0"
    },
    "scene" : 0,
    "scenes" : [
        {
            "name" : "Scene",
            "nodes" : [
                11
            ]
        }
    ],
    "nodes" : [
        {
            "mesh" : 0,
            "name" : "Box11702",
            "translation" : [
                -99.21444702148438,
                -67.4800033569336,
                53.34335708618164
            ]
        },
        {
            "mesh" : 1,
            "name" : "Box11703",
            "translation" : [
                -99.21444702148438,
                -67.4800033569336,
                53.34335708618164
            ]
        },
        {
            "mesh" : 2,
            "name" : "Box11704",
            "translation" : [
                -99.21444702148438,
                -67.4800033569336,
                53.34335708618164
            ]
        },
        {
            "mesh" : 3,
            "name" : "Box11705",
            "translation" : [
                -99.21444702148438,
                -67.4800033569336,
                53.34335708618164
            ]
        },
        {
            "mesh" : 4,
            "name" : "Box11706",
            "translation" : [
                -99.21444702148438,
                -67.4800033569336,
                53.34335708618164
            ]
        },
        {
            "mesh" : 5,
            "name" : "Box11707",
            "translation" : [
                -99.21444702148438,
                -67.4800033569336,
                53.34335708618164
            ]
        },
        {
            "mesh" : 6,
            "name" : "Box11708",
            "translation" : [
                -99.21444702148438,
                -67.4800033569336,
                53.34335708618164
            ]
        },
        {
            "mesh" : 7,
            "name" : "Box11709",
            "translation" : [
                -99.21444702148438,
                -67.4800033569336,
                53.34335708618164
            ]
        },
        {
            "mesh" : 8,
            "name" : "Box11710",
            "translation" : [
                -99.21444702148438,
                -67.4800033569336,
                53.34335708618164
            ]
        },
        {
            "mesh" : 9,
            "name" : "Box11711",
            "translation" : [
                -99.21444702148438,
                -67.4800033569336,
                53.34335708618164
            ]
        },
        {
            "mesh" : 10,
            "name" : "Box11712",
            "translation" : [
                -99.21444702148438,
                -67.4800033569336,
                53.34335708618164
            ]
        },
        {
            "children" : [
                0,
                1,
                2,
                3,
                4,
                5,
                6,
                7,
                8,
                9,
                10
            ],
            "name" : "bad",
            "rotation" : [
                -0.7071068286895752,
                0,
                0,
                0.7071067094802856
            ],
            "scale" : [
                0.009275535121560097,
                0.009275535121560097,
                0.009275535121560097
            ]
        }
    ],
    "materials" : [
        {
            "doubleSided" : true,
            "name" : "California_King_Size_Bed_With_Thyme_Sheets_Pine_V1_NEW__a2662b8",
            "normalTexture" : {
                "index" : 0,
                "scale" : 0.30000001192092896
            },
            "pbrMetallicRoughness" : {
                "metallicRoughnessTexture" : {
                    "index" : 1
                },
                "roughnessFactor" : 0.858578622341156
            }
        },
        {
            "doubleSided" : true,
            "name" : "California_King_Size_Bed_With_Thyme_Sheets_Pine_V1_NEW__c625022",
            "normalTexture" : {
                "index" : 2,
                "scale" : 0.30000001192092896
            },
            "pbrMetallicRoughness" : {
                "baseColorTexture" : {
                    "index" : 3
                },
                "roughnessFactor" : 0.858578622341156
            }
        }
    ],
    "meshes" : [
        {
            "name" : "\u041c\u0435\u0448.025",
            "primitives" : [
                {
                    "attributes" : {
                        "POSITION" : 0,
                        "NORMAL" : 1,
                        "TEXCOORD_0" : 2
                    },
                    "indices" : 3,
                    "material" : 0
                }
            ]
        },
        {
            "name" : "\u041c\u0435\u0448.024",
            "primitives" : [
                {
                    "attributes" : {
                        "POSITION" : 4,
                        "NORMAL" : 5,
                        "TEXCOORD_0" : 6
                    },
                    "indices" : 7,
                    "material" : 0
                }
            ]
        },
        {
            "name" : "\u041c\u0435\u0448.026",
            "primitives" : [
                {
                    "attributes" : {
                        "POSITION" : 8,
                        "NORMAL" : 9,
                        "TEXCOORD_0" : 10
                    },
                    "indices" : 11,
                    "material" : 1
                }
            ]
        },
        {
            "name" : "\u041c\u0435\u0448.027",
            "primitives" : [
                {
                    "attributes" : {
                        "POSITION" : 12,
                        "NORMAL" : 13,
                        "TEXCOORD_0" : 14
                    },
                    "indices" : 11,
                    "material" : 1
                }
            ]
        },
        {
            "name" : "\u041c\u0435\u0448.028",
            "primitives" : [
                {
                    "attributes" : {
                        "POSITION" : 15,
                        "NORMAL" : 16,
                        "TEXCOORD_0" : 17
                    },
                    "indices" : 18,
                    "material" : 0
                }
            ]
        },
        {
            "name" : "\u041c\u0435\u0448.029",
            "primitives" : [
                {
                    "attributes" : {
                        "POSITION" : 19,
                        "NORMAL" : 20,
                        "TEXCOORD_0" : 21
                    },
                    "indices" : 22,
                    "material" : 0
                }
            ]
        },
        {
            "name" : "\u041c\u0435\u0448.030",
            "primitives" : [
                {
                    "attributes" : {
                        "POSITION" : 23,
                        "NORMAL" : 24,
                        "TEXCOORD_0" : 25
                    },
                    "indices" : 26,
                    "material" : 0
                }
            ]
        },
        {
            "name" : "\u041c\u0435\u0448.031",
            "primitives" : [
                {
                    "attributes" : {
                        "POSITION" : 27,
                        "NORMAL" : 28,
                        "TEXCOORD_0" : 29
                    },
                    "indices" : 30,
                    "material" : 1
                }
            ]
        },
        {
            "name" : "\u041c\u0435\u0448.032",
            "primitives" : [
                {
                    "attributes" : {
                        "POSITION" : 31,
                        "NORMAL" : 32,
                        "TEXCOORD_0" : 33
                    },
                    "indices" : 34,
                    "material" : 1
                }
            ]
        },
        {
            "name" : "\u041c\u0435\u0448.033",
            "primitives" : [
                {
                    "attributes" : {
                        "POSITION" : 35,
                        "NORMAL" : 36,
                        "TEXCOORD_0" : 37
                    },
                    "indices" : 38,
                    "material" : 1
                }
            ]
        },
        {
            "name" : "\u041c\u0435\u0448.034",
            "primitives" : [
                {
                    "attributes" : {
                        "POSITION" : 39,
                        "NORMAL" : 40,
                        "TEXCOORD_0" : 41
                    },
                    "indices" : 42,
                    "material" : 0
                }
            ]
        }
    ],
    "textures" : [
        {
            "sampler" : 0,
            "source" : 0
        },
        {
            "sampler" : 0,
            "source" : 1
        },
        {
            "sampler" : 0,
            "source" : 2
        },
        {
            "sampler" : 0,
            "source" : 3
        }
    ],
    "images" : [
        {
            "bufferView" : 4,
            "mimeType" : "image/jpeg",
            "name" : "map_normal"
        },
        {
            "bufferView" : 5,
            "mimeType" : "image/png",
            "name" : "map_normal"
        },
        {
            "bufferView" : 14,
            "mimeType" : "image/png",
            "name" : "NormalMap"
        },
        {
            "bufferView" : 15,
            "mimeType" : "image/jpeg",
            "name" : "walnut"
        }
    ],
    "accessors" : [
        {
            "bufferView" : 0,
            "componentType" : 5126,
            "count" : 2314,
            "max" : [
                140.78880310058594,
                154.4250030517578,
                10.0068998336792
            ],
            "min" : [
                101.40889739990234,
                138.464599609375,
                -17.42889976501465
            ],
            "type" : "VEC3"
        },
        {
            "bufferView" : 1,
            "componentType" : 5126,
            "count" : 2314,
            "type" : "VEC3"
        },
        {
            "bufferView" : 2,
            "componentType" : 5126,
            "count" : 2314,
            "type" : "VEC2"
        },
        {
            "bufferView" : 3,
            "componentType" : 5123,
            "count" : 12288,
            "type" : "SCALAR"
        },
        {
            "bufferView" : 6,
            "componentType" : 5126,
            "count" : 2405,
            "max" : [
                102.2029037475586,
                157.9293975830078,
                6.561800003051758
            ],
            "min" : [
                62.74570083618164,
                134.39320373535156,
                -16.83300018310547
            ],
            "type" : "VEC3"
        },
        {
            "bufferView" : 7,
            "componentType" : 5126,
            "count" : 2405,
            "type" : "VEC3"
        },
        {
            "bufferView" : 8,
            "componentType" : 5126,
            "count" : 2405,
            "type" : "VEC2"
        },
        {
            "bufferView" : 9,
            "componentType" : 5123,
            "count" : 12288,
            "type" : "SCALAR"
        },
        {
            "bufferView" : 10,
            "componentType" : 5126,
            "count" : 64,
            "max" : [
                199.10020446777344,
                175.57640075683594,
                -40.63999938964844
            ],
            "min" : [
                179.49740600585938,
                -47.2140007019043,
                -53.34000015258789
            ],
            "type" : "VEC3"
        },
        {
            "bufferView" : 11,
            "componentType" : 5126,
            "count" : 64,
            "type" : "VEC3"
        },
        {
            "bufferView" : 12,
            "componentType" : 5126,
            "count" : 64,
            "type" : "VEC2"
        },
        {
            "bufferView" : 13,
            "componentType" : 5123,
            "count" : 132,
            "type" : "SCALAR"
        },
        {
            "bufferView" : 16,
            "componentType" : 5126,
            "count" : 64,
            "max" : [
                17.303600311279297,
                175.57640075683594,
                -40.63999938964844
            ],
            "min" : [
                -2.299099922180176,
                -47.2140007019043,
                -53.34000015258789
            ],
            "type" : "VEC3"
        },
        {
            "bufferView" : 17,
            "componentType" : 5126,
            "count" : 64,
            "type" : "VEC3"
        },
        {
            "bufferView" : 18,
            "componentType" : 5126,
            "count" : 64,
            "type" : "VEC2"
        },
        {
            "bufferView" : 19,
            "componentType" : 5126,
            "count" : 480,
            "max" : [
                191.53500366210938,
                175.50869750976562,
                -21.28190040588379
            ],
            "min" : [
                5.556000232696533,
                -43.60390090942383,
                -41.408599853515625
            ],
            "type" : "VEC3"
        },
        {
            "bufferView" : 20,
            "componentType" : 5126,
            "count" : 480,
            "type" : "VEC3"
        },
        {
            "bufferView" : 21,
            "componentType" : 5126,
            "count" : 480,
            "type" : "VEC2"
        },
        {
            "bufferView" : 22,
            "componentType" : 5123,
            "count" : 2304,
            "type" : "SCALAR"
        },
        {
            "bufferView" : 23,
            "componentType" : 5126,
            "count" : 2393,
            "max" : [
                99.8019027709961,
                175.52430725097656,
                11.678199768066406
            ],
            "min" : [
                5.287700176239014,
                150.3865966796875,
                -25.17569923400879
            ],
            "type" : "VEC3"
        },
        {
            "bufferView" : 24,
            "componentType" : 5126,
            "count" : 2393,
            "type" : "VEC3"
        },
        {
            "bufferView" : 25,
            "componentType" : 5126,
            "count" : 2393,
            "type" : "VEC2"
        },
        {
            "bufferView" : 26,
            "componentType" : 5123,
            "count" : 12288,
            "type" : "SCALAR"
        },
        {
            "bufferView" : 27,
            "componentType" : 5126,
            "count" : 2424,
            "max" : [
                189.5290069580078,
                175.6134033203125,
                12.101099967956543
            ],
            "min" : [
                95.18679809570312,
                151.39930725097656,
                -24.977800369262695
            ],
            "type" : "VEC3"
        },
        {
            "bufferView" : 28,
            "componentType" : 5126,
            "count" : 2424,
            "type" : "VEC3"
        },
        {
            "bufferView" : 29,
            "componentType" : 5126,
            "count" : 2424,
            "type" : "VEC2"
        },
        {
            "bufferView" : 30,
            "componentType" : 5123,
            "count" : 12288,
            "type" : "SCALAR"
        },
        {
            "bufferView" : 31,
            "componentType" : 5126,
            "count" : 72,
            "max" : [
                199.06979370117188,
                -35.500701904296875,
                -40.63999938964844
            ],
            "min" : [
                -2.2497000694274902,
                -47.229801177978516,
                -53.34000015258789
            ],
            "type" : "VEC3"
        },
        {
            "bufferView" : 32,
            "componentType" : 5126,
            "count" : 72,
            "type" : "VEC3"
        },
        {
            "bufferView" : 33,
            "componentType" : 5126,
            "count" : 72,
            "type" : "VEC2"
        },
        {
            "bufferView" : 34,
            "componentType" : 5123,
            "count" : 132,
            "type" : "SCALAR"
        },
        {
            "bufferView" : 35,
            "componentType" : 5126,
            "count" : 40,
            "max" : [
                199.4093017578125,
                182.18980407714844,
                53.34000015258789
            ],
            "min" : [
                -2.2548000812530518,
                175.4868927001953,
                -53.34000015258789
            ],
            "type" : "VEC3"
        },
        {
            "bufferView" : 36,
            "componentType" : 5126,
            "count" : 40,
            "type" : "VEC3"
        },
        {
            "bufferView" : 37,
            "componentType" : 5126,
            "count" : 40,
            "type" : "VEC2"
        },
        {
            "bufferView" : 38,
            "componentType" : 5123,
            "count" : 84,
            "type" : "SCALAR"
        },
        {
            "bufferView" : 39,
            "componentType" : 5126,
            "count" : 24,
            "max" : [
                193.93870544433594,
                175.69239807128906,
                -40.618900299072266
            ],
            "min" : [
                2.812000036239624,
                -44.229000091552734,
                -43.15890121459961
            ],
            "type" : "VEC3"
        },
        {
            "bufferView" : 40,
            "componentType" : 5126,
            "count" : 24,
            "type" : "VEC3"
        },
        {
            "bufferView" : 41,
            "componentType" : 5126,
            "count" : 24,
            "type" : "VEC2"
        },
        {
            "bufferView" : 42,
            "componentType" : 5123,
            "count" : 36,
            "type" : "SCALAR"
        },
        {
            "bufferView" : 43,
            "componentType" : 5126,
            "count" : 3839,
            "max" : [
                200.8065948486328,
                153.1916961669922,
                -12.93220043182373
            ],
            "min" : [
                -2.377700090408325,
                -44.58060073852539,
                -41.62070083618164
            ],
            "type" : "VEC3"
        },
        {
            "bufferView" : 44,
            "componentType" : 5126,
            "count" : 3839,
            "type" : "VEC3"
        },
        {
            "bufferView" : 45,
            "componentType" : 5126,
            "count" : 3839,
            "type" : "VEC2"
        },
        {
            "bufferView" : 46,
            "componentType" : 5123,
            "count" : 19008,
            "type" : "SCALAR"
        }
    ],
    "bufferViews" : [
        {
            "buffer" : 0,
            "byteLength" : 27768,
            "byteOffset" : 0
        },
        {
            "buffer" : 0,
            "byteLength" : 27768,
            "byteOffset" : 27768
        },
        {
            "buffer" : 0,
            "byteLength" : 18512,
            "byteOffset" : 55536
        },
        {
            "buffer" : 0,
            "byteLength" : 24576,
            "byteOffset" : 74048
        },
        {
            "buffer" : 0,
            "byteLength" : 167597,
            "byteOffset" : 98624
        },
        {
            "buffer" : 0,
            "byteLength" : 746894,
            "byteOffset" : 266224
        },
        {
            "buffer" : 0,
            "byteLength" : 28860,
            "byteOffset" : 1013120
        },
        {
            "buffer" : 0,
            "byteLength" : 28860,
            "byteOffset" : 1041980
        },
        {
            "buffer" : 0,
            "byteLength" : 19240,
            "byteOffset" : 1070840
        },
        {
            "buffer" : 0,
            "byteLength" : 24576,
            "byteOffset" : 1090080
        },
        {
            "buffer" : 0,
            "byteLength" : 768,
            "byteOffset" : 1114656
        },
        {
            "buffer" : 0,
            "byteLength" : 768,
            "byteOffset" : 1115424
        },
        {
            "buffer" : 0,
            "byteLength" : 512,
            "byteOffset" : 1116192
        },
        {
            "buffer" : 0,
            "byteLength" : 264,
            "byteOffset" : 1116704
        },
        {
            "buffer" : 0,
            "byteLength" : 1027122,
            "byteOffset" : 1116968
        },
        {
            "buffer" : 0,
            "byteLength" : 98098,
            "byteOffset" : 2144092
        },
        {
            "buffer" : 0,
            "byteLength" : 768,
            "byteOffset" : 2242192
        },
        {
            "buffer" : 0,
            "byteLength" : 768,
            "byteOffset" : 2242960
        },
        {
            "buffer" : 0,
            "byteLength" : 512,
            "byteOffset" : 2243728
        },
        {
            "buffer" : 0,
            "byteLength" : 5760,
            "byteOffset" : 2244240
        },
        {
            "buffer" : 0,
            "byteLength" : 5760,
            "byteOffset" : 2250000
        },
        {
            "buffer" : 0,
            "byteLength" : 3840,
            "byteOffset" : 2255760
        },
        {
            "buffer" : 0,
            "byteLength" : 4608,
            "byteOffset" : 2259600
        },
        {
            "buffer" : 0,
            "byteLength" : 28716,
            "byteOffset" : 2264208
        },
        {
            "buffer" : 0,
            "byteLength" : 28716,
            "byteOffset" : 2292924
        },
        {
            "buffer" : 0,
            "byteLength" : 19144,
            "byteOffset" : 2321640
        },
        {
            "buffer" : 0,
            "byteLength" : 24576,
            "byteOffset" : 2340784
        },
        {
            "buffer" : 0,
            "byteLength" : 29088,
            "byteOffset" : 2365360
        },
        {
            "buffer" : 0,
            "byteLength" : 29088,
            "byteOffset" : 2394448
        },
        {
            "buffer" : 0,
            "byteLength" : 19392,
            "byteOffset" : 2423536
        },
        {
            "buffer" : 0,
            "byteLength" : 24576,
            "byteOffset" : 2442928
        },
        {
            "buffer" : 0,
            "byteLength" : 864,
            "byteOffset" : 2467504
        },
        {
            "buffer" : 0,
            "byteLength" : 864,
            "byteOffset" : 2468368
        },
        {
            "buffer" : 0,
            "byteLength" : 576,
            "byteOffset" : 2469232
        },
        {
            "buffer" : 0,
            "byteLength" : 264,
            "byteOffset" : 2469808
        },
        {
            "buffer" : 0,
            "byteLength" : 480,
            "byteOffset" : 2470072
        },
        {
            "buffer" : 0,
            "byteLength" : 480,
            "byteOffset" : 2470552
        },
        {
            "buffer" : 0,
            "byteLength" : 320,
            "byteOffset" : 2471032
        },
        {
            "buffer" : 0,
            "byteLength" : 168,
            "byteOffset" : 2471352
        },
        {
            "buffer" : 0,
            "byteLength" : 288,
            "byteOffset" : 2471520
        },
        {
            "buffer" : 0,
            "byteLength" : 288,
            "byteOffset" : 2471808
        },
        {
            "buffer" : 0,
            "byteLength" : 192,
            "byteOffset" : 2472096
        },
        {
            "buffer" : 0,
            "byteLength" : 72,
            "byteOffset" : 2472288
        },
        {
            "buffer" : 0,
            "byteLength" : 46068,
            "byteOffset" : 2472360
        },
        {
            "buffer" : 0,
            "byteLength" : 46068,
            "byteOffset" : 2518428
        },
        {
            "buffer" : 0,
            "byteLength" : 30712,
            "byteOffset" : 2564496
        },
        {
            "buffer" : 0,
            "byteLength" : 38016,
            "byteOffset" : 2595208
        }
    ],
    "samplers" : [
        {
            "magFilter" : 9729,
            "minFilter" : 9987
        }
    ],
    "buffers" : [
        {
            "byteLength" : 2633224,
            "uri" : "data:application/octet-stream;base64,"
        }
    ]
}
