{
    "asset" : {
        "generator" : "Khronos glTF Blender I/O v1.5.17",
        "version" : "2.0"
    },
    "scene" : 0,
    "scenes" : [
        {
            "name" : "Scene",
            "nodes" : [
                0
            ]
        }
    ],
    "nodes" : [
        {
            "mesh" : 0,
            "name" : "TS_Modo_6 sect Drawer",
            "rotation" : [
                1,
                0,
                0,
                1.9470718370939721e-07
            ],
            "scale" : [
                -0.01640000008046627,
                -0.008500000461935997,
                -0.009200000204145908
            ],
            "translation" : [
                0.5778071880340576,
                -0.32546359300613403,
                -0.14264488220214844
            ]
        }
    ],
    "materials" : [
        {
            "doubleSided" : true,
            "name" : "01 - Default",
            "normalTexture" : {
                "index" : 0,
                "scale" : 0.30000001192092896
            },
            "pbrMetallicRoughness" : {
                "baseColorTexture" : {
                    "index" : 1
                },
                "roughnessFactor" : 0.858578622341156
            }
        },
        {
            "doubleSided" : true,
            "name" : "02 - Default",
            "normalTexture" : {
                "index" : 2,
                "scale" : 0.30000001192092896
            },
            "pbrMetallicRoughness" : {
                "baseColorTexture" : {
                    "index" : 3
                },
                "roughnessFactor" : 0.858578622341156
            }
        }
    ],
    "meshes" : [
        {
            "name" : "\u041c\u0435\u0448",
            "primitives" : [
                {
                    "attributes" : {
                        "POSITION" : 0,
                        "NORMAL" : 1,
                        "TEXCOORD_0" : 2,
                        "COLOR_0" : 3
                    },
                    "indices" : 4,
                    "material" : 0
                },
                {
                    "attributes" : {
                        "POSITION" : 5,
                        "NORMAL" : 6,
                        "TEXCOORD_0" : 7,
                        "COLOR_0" : 8
                    },
                    "indices" : 9,
                    "material" : 1
                }
            ]
        }
    ],
    "textures" : [
        {
            "sampler" : 0,
            "source" : 0
        },
        {
            "sampler" : 0,
            "source" : 1
        },
        {
            "sampler" : 0,
            "source" : 2
        },
        {
            "sampler" : 0,
            "source" : 3
        }
    ],
    "images" : [
        {
            "bufferView" : 5,
            "mimeType" : "image/png",
            "name" : "images_NormalMap"
        },
        {
            "bufferView" : 6,
            "mimeType" : "image/jpeg",
            "name" : "images"
        },
        {
            "bufferView" : 12,
            "mimeType" : "image/png",
            "name" : "NormalMap_gray-wood-texture_1259-191"
        },
        {
            "bufferView" : 13,
            "mimeType" : "image/jpeg",
            "name" : "gray-wood-texture_1259-191"
        }
    ],
    "accessors" : [
        {
            "bufferView" : 0,
            "componentType" : 5126,
            "count" : 2856,
            "max" : [
                64.31195068359375,
                117.01219177246094,
                37.334354400634766
            ],
            "min" : [
                6.152342796325684,
                38.28982162475586,
                -6.3245391845703125
            ],
            "type" : "VEC3"
        },
        {
            "bufferView" : 1,
            "componentType" : 5126,
            "count" : 2856,
            "type" : "VEC3"
        },
        {
            "bufferView" : 2,
            "componentType" : 5126,
            "count" : 2856,
            "type" : "VEC2"
        },
        {
            "bufferView" : 3,
            "componentType" : 5123,
            "count" : 2856,
            "normalized" : true,
            "type" : "VEC4"
        },
        {
            "bufferView" : 4,
            "componentType" : 5123,
            "count" : 4242,
            "type" : "SCALAR"
        },
        {
            "bufferView" : 7,
            "componentType" : 5126,
            "count" : 4,
            "max" : [
                61.21195983886719,
                115.6009292602539,
                37.3343505859375
            ],
            "min" : [
                9.252354621887207,
                97.10843658447266,
                37.33433532714844
            ],
            "type" : "VEC3"
        },
        {
            "bufferView" : 8,
            "componentType" : 5126,
            "count" : 4,
            "type" : "VEC3"
        },
        {
            "bufferView" : 9,
            "componentType" : 5126,
            "count" : 4,
            "type" : "VEC2"
        },
        {
            "bufferView" : 10,
            "componentType" : 5123,
            "count" : 4,
            "normalized" : true,
            "type" : "VEC4"
        },
        {
            "bufferView" : 11,
            "componentType" : 5123,
            "count" : 6,
            "type" : "SCALAR"
        }
    ],
    "bufferViews" : [
        {
            "buffer" : 0,
            "byteLength" : 34272,
            "byteOffset" : 0
        },
        {
            "buffer" : 0,
            "byteLength" : 34272,
            "byteOffset" : 34272
        },
        {
            "buffer" : 0,
            "byteLength" : 22848,
            "byteOffset" : 68544
        },
        {
            "buffer" : 0,
            "byteLength" : 22848,
            "byteOffset" : 91392
        },
        {
            "buffer" : 0,
            "byteLength" : 8484,
            "byteOffset" : 114240
        },
        {
            "buffer" : 0,
            "byteLength" : 1933651,
            "byteOffset" : 122724
        },
        {
            "buffer" : 0,
            "byteLength" : 139697,
            "byteOffset" : 2056376
        },
        {
            "buffer" : 0,
            "byteLength" : 48,
            "byteOffset" : 2196076
        },
        {
            "buffer" : 0,
            "byteLength" : 48,
            "byteOffset" : 2196124
        },
        {
            "buffer" : 0,
            "byteLength" : 32,
            "byteOffset" : 2196172
        },
        {
            "buffer" : 0,
            "byteLength" : 32,
            "byteOffset" : 2196204
        },
        {
            "buffer" : 0,
            "byteLength" : 12,
            "byteOffset" : 2196236
        },
        {
            "buffer" : 0,
            "byteLength" : 767370,
            "byteOffset" : 2196248
        },
        {
            "buffer" : 0,
            "byteLength" : 127485,
            "byteOffset" : 2963620
        }
    ],
    "samplers" : [
        {
            "magFilter" : 9729,
            "minFilter" : 9987
        }
    ],
    "buffers" : [
        {
            "byteLength" : 3091108,
            "uri" : "data:application/octet-stream;base64,"
        }
    ]
}
