{
    "asset" : {
        "generator" : "Khronos glTF Blender I/O v1.5.17",
        "version" : "2.0"
    },
    "scene" : 0,
    "scenes" : [
        {
            "name" : "Scene",
            "nodes" : [
                8
            ]
        }
    ],
    "nodes" : [
        {
            "mesh" : 0,
            "name" : "Garderob1",
            "rotation" : [
                0,
                0.7071068286895752,
                0,
                0.7071067094802856
            ],
            "translation" : [
                -224.00003051757812,
                -76.6290283203125,
                -26.999954223632812
            ]
        },
        {
            "mesh" : 1,
            "name" : "Garderob2",
            "rotation" : [
                0.7071068286895752,
                0,
                0,
                0.7071067094802856
            ],
            "translation" : [
                -223.99905395507812,
                244.45303344726562,
                210.0000457763672
            ]
        },
        {
            "mesh" : 2,
            "name" : "Garderob3",
            "rotation" : [
                0.7071068286895752,
                0,
                0,
                0.7071067094802856
            ],
            "translation" : [
                224.00094604492188,
                244.45303344726562,
                210.00006103515625
            ]
        },
        {
            "mesh" : 3,
            "name" : "Garderob4",
            "rotation" : [
                0,
                -0.7071068286895752,
                0,
                0.7071067094802856
            ],
            "translation" : [
                133.75387573242188,
                2032.2652587890625,
                -35.91072082519531
            ]
        },
        {
            "mesh" : 4,
            "name" : "Garderob5",
            "translation" : [
                -1171.47216796875,
                633.3711547851562,
                171.7367706298828
            ]
        },
        {
            "mesh" : 5,
            "name" : "Garderob6",
            "rotation" : [
                0.5000001192092896,
                -0.5000001192092896,
                -0.4999999701976776,
                0.5
            ],
            "scale" : [
                1.0290249586105347,
                1.0290249586105347,
                1.0290249586105347
            ],
            "translation" : [
                -44.36722946166992,
                938.8896484375,
                215.35586547851562
            ]
        },
        {
            "mesh" : 6,
            "name" : "Garderob7",
            "rotation" : [
                -0.5,
                -0.5,
                0.5,
                0.4999999701976776
            ],
            "scale" : [
                -1.0290249586105347,
                -1.0290249586105347,
                -1.0290249586105347
            ],
            "translation" : [
                44.367103576660156,
                938.8896484375,
                215.3558807373047
            ]
        },
        {
            "children" : [
                0,
                1,
                2,
                3,
                4,
                5,
                6
            ],
            "name" : "Garderob"
        },
        {
            "children" : [
                7
            ],
            "name" : "Mebel_ Edvard",
            "scale" : [
                0.0010000000474974513,
                0.0010000000474974513,
                0.0010000000474974513
            ]
        }
    ],
    "materials" : [
        {
            "doubleSided" : true,
            "name" : "Edvard Derevo.001",
            "pbrMetallicRoughness" : {
                "baseColorTexture" : {
                    "index" : 0
                },
                "roughnessFactor" : 0.858578622341156
            }
        },
        {
            "doubleSided" : true,
            "name" : "Edvard Al.002",
            "pbrMetallicRoughness" : {
                "baseColorFactor" : [
                    0.5879999995231628,
                    0.5879999995231628,
                    0.5879999995231628,
                    1
                ],
                "roughnessFactor" : 0
            }
        }
    ],
    "meshes" : [
        {
            "name" : "\u041c\u0435\u0448.015",
            "primitives" : [
                {
                    "attributes" : {
                        "POSITION" : 0,
                        "NORMAL" : 1,
                        "TEXCOORD_0" : 2
                    },
                    "indices" : 3,
                    "material" : 0
                }
            ]
        },
        {
            "name" : "\u041c\u0435\u0448.016",
            "primitives" : [
                {
                    "attributes" : {
                        "POSITION" : 4,
                        "NORMAL" : 5,
                        "TEXCOORD_0" : 6
                    },
                    "indices" : 7,
                    "material" : 0
                }
            ]
        },
        {
            "name" : "\u041c\u0435\u0448.020",
            "primitives" : [
                {
                    "attributes" : {
                        "POSITION" : 8,
                        "NORMAL" : 9,
                        "TEXCOORD_0" : 10
                    },
                    "indices" : 11,
                    "material" : 0
                }
            ]
        },
        {
            "name" : "\u041c\u0435\u0448.017",
            "primitives" : [
                {
                    "attributes" : {
                        "POSITION" : 12,
                        "NORMAL" : 13,
                        "TEXCOORD_0" : 14
                    },
                    "indices" : 15,
                    "material" : 1
                }
            ]
        },
        {
            "name" : "\u041c\u0435\u0448.014",
            "primitives" : [
                {
                    "attributes" : {
                        "POSITION" : 16,
                        "NORMAL" : 17,
                        "TEXCOORD_0" : 18
                    },
                    "indices" : 19,
                    "material" : 1
                }
            ]
        },
        {
            "name" : "\u041c\u0435\u0448.018",
            "primitives" : [
                {
                    "attributes" : {
                        "POSITION" : 20,
                        "NORMAL" : 21,
                        "TEXCOORD_0" : 22
                    },
                    "indices" : 23,
                    "material" : 1
                }
            ]
        },
        {
            "name" : "\u041c\u0435\u0448.019",
            "primitives" : [
                {
                    "attributes" : {
                        "POSITION" : 24,
                        "NORMAL" : 25,
                        "TEXCOORD_0" : 26
                    },
                    "indices" : 23,
                    "material" : 1
                }
            ]
        }
    ],
    "textures" : [
        {
            "sampler" : 0,
            "source" : 0
        }
    ],
    "images" : [
        {
            "bufferView" : 4,
            "mimeType" : "image/jpeg",
            "name" : "walnut"
        }
    ],
    "accessors" : [
        {
            "bufferView" : 0,
            "componentType" : 5126,
            "count" : 224,
            "max" : [
                183.00013732910156,
                2128.72705078125,
                674.0000610351562
            ],
            "min" : [
                -237.0000457763672,
                50.00518798828125,
                -226
            ],
            "type" : "VEC3"
        },
        {
            "bufferView" : 1,
            "componentType" : 5126,
            "count" : 224,
            "type" : "VEC3"
        },
        {
            "bufferView" : 2,
            "componentType" : 5126,
            "count" : 224,
            "type" : "VEC2"
        },
        {
            "bufferView" : 3,
            "componentType" : 5123,
            "count" : 396,
            "type" : "SCALAR"
        },
        {
            "bufferView" : 5,
            "componentType" : 5126,
            "count" : 96,
            "max" : [
                222.195556640625,
                -1.8347719787925598e-07,
                244.45306396484375
            ],
            "min" : [
                -226.001708984375,
                -18.171588897705078,
                -1764.55224609375
            ],
            "type" : "VEC3"
        },
        {
            "bufferView" : 6,
            "componentType" : 5126,
            "count" : 96,
            "type" : "VEC3"
        },
        {
            "bufferView" : 7,
            "componentType" : 5126,
            "count" : 96,
            "type" : "VEC2"
        },
        {
            "bufferView" : 8,
            "componentType" : 5123,
            "count" : 132,
            "type" : "SCALAR"
        },
        {
            "bufferView" : 9,
            "componentType" : 5126,
            "count" : 96,
            "max" : [
                225.998291015625,
                -1.8347719787925598e-07,
                244.45306396484375
            ],
            "min" : [
                -222.198486328125,
                -18.171588897705078,
                -1764.55224609375
            ],
            "type" : "VEC3"
        },
        {
            "bufferView" : 10,
            "componentType" : 5126,
            "count" : 96,
            "type" : "VEC3"
        },
        {
            "bufferView" : 11,
            "componentType" : 5126,
            "count" : 96,
            "type" : "VEC2"
        },
        {
            "bufferView" : 12,
            "componentType" : 5123,
            "count" : 132,
            "type" : "SCALAR"
        },
        {
            "bufferView" : 13,
            "componentType" : 5126,
            "count" : 320,
            "max" : [
                246.80520629882812,
                22,
                584.6508178710938
            ],
            "min" : [
                -174.98361206054688,
                -22,
                -317.1298828125
            ],
            "type" : "VEC3"
        },
        {
            "bufferView" : 14,
            "componentType" : 5126,
            "count" : 320,
            "type" : "VEC3"
        },
        {
            "bufferView" : 15,
            "componentType" : 5126,
            "count" : 320,
            "type" : "VEC2"
        },
        {
            "bufferView" : 16,
            "componentType" : 5123,
            "count" : 1152,
            "type" : "SCALAR"
        },
        {
            "bufferView" : 17,
            "componentType" : 5126,
            "count" : 384,
            "max" : [
                1612.9443359375,
                -659.9947509765625,
                30
            ],
            "min" : [
                730.0001220703125,
                -710,
                -373.4736633300781
            ],
            "type" : "VEC3"
        },
        {
            "bufferView" : 18,
            "componentType" : 5126,
            "count" : 384,
            "type" : "VEC3"
        },
        {
            "bufferView" : 19,
            "componentType" : 5126,
            "count" : 384,
            "type" : "VEC2"
        },
        {
            "bufferView" : 20,
            "componentType" : 5123,
            "count" : 528,
            "type" : "SCALAR"
        },
        {
            "bufferView" : 21,
            "componentType" : 5126,
            "count" : 918,
            "max" : [
                66.08985137939453,
                2.556396484375,
                15.407475471496582
            ],
            "min" : [
                -66.08985137939453,
                -8.793457984924316,
                -15.40747356414795
            ],
            "type" : "VEC3"
        },
        {
            "bufferView" : 22,
            "componentType" : 5126,
            "count" : 918,
            "type" : "VEC3"
        },
        {
            "bufferView" : 23,
            "componentType" : 5126,
            "count" : 918,
            "type" : "VEC2"
        },
        {
            "bufferView" : 24,
            "componentType" : 5123,
            "count" : 3564,
            "type" : "SCALAR"
        },
        {
            "bufferView" : 25,
            "componentType" : 5126,
            "count" : 918,
            "max" : [
                66.08985137939453,
                2.556396484375,
                15.407475471496582
            ],
            "min" : [
                -66.08985137939453,
                -8.793457984924316,
                -15.40747356414795
            ],
            "type" : "VEC3"
        },
        {
            "bufferView" : 26,
            "componentType" : 5126,
            "count" : 918,
            "type" : "VEC3"
        },
        {
            "bufferView" : 27,
            "componentType" : 5126,
            "count" : 918,
            "type" : "VEC2"
        }
    ],
    "bufferViews" : [
        {
            "buffer" : 0,
            "byteLength" : 2688,
            "byteOffset" : 0
        },
        {
            "buffer" : 0,
            "byteLength" : 2688,
            "byteOffset" : 2688
        },
        {
            "buffer" : 0,
            "byteLength" : 1792,
            "byteOffset" : 5376
        },
        {
            "buffer" : 0,
            "byteLength" : 792,
            "byteOffset" : 7168
        },
        {
            "buffer" : 0,
            "byteLength" : 98098,
            "byteOffset" : 7960
        },
        {
            "buffer" : 0,
            "byteLength" : 1152,
            "byteOffset" : 106060
        },
        {
            "buffer" : 0,
            "byteLength" : 1152,
            "byteOffset" : 107212
        },
        {
            "buffer" : 0,
            "byteLength" : 768,
            "byteOffset" : 108364
        },
        {
            "buffer" : 0,
            "byteLength" : 264,
            "byteOffset" : 109132
        },
        {
            "buffer" : 0,
            "byteLength" : 1152,
            "byteOffset" : 109396
        },
        {
            "buffer" : 0,
            "byteLength" : 1152,
            "byteOffset" : 110548
        },
        {
            "buffer" : 0,
            "byteLength" : 768,
            "byteOffset" : 111700
        },
        {
            "buffer" : 0,
            "byteLength" : 264,
            "byteOffset" : 112468
        },
        {
            "buffer" : 0,
            "byteLength" : 3840,
            "byteOffset" : 112732
        },
        {
            "buffer" : 0,
            "byteLength" : 3840,
            "byteOffset" : 116572
        },
        {
            "buffer" : 0,
            "byteLength" : 2560,
            "byteOffset" : 120412
        },
        {
            "buffer" : 0,
            "byteLength" : 2304,
            "byteOffset" : 122972
        },
        {
            "buffer" : 0,
            "byteLength" : 4608,
            "byteOffset" : 125276
        },
        {
            "buffer" : 0,
            "byteLength" : 4608,
            "byteOffset" : 129884
        },
        {
            "buffer" : 0,
            "byteLength" : 3072,
            "byteOffset" : 134492
        },
        {
            "buffer" : 0,
            "byteLength" : 1056,
            "byteOffset" : 137564
        },
        {
            "buffer" : 0,
            "byteLength" : 11016,
            "byteOffset" : 138620
        },
        {
            "buffer" : 0,
            "byteLength" : 11016,
            "byteOffset" : 149636
        },
        {
            "buffer" : 0,
            "byteLength" : 7344,
            "byteOffset" : 160652
        },
        {
            "buffer" : 0,
            "byteLength" : 7128,
            "byteOffset" : 167996
        },
        {
            "buffer" : 0,
            "byteLength" : 11016,
            "byteOffset" : 175124
        },
        {
            "buffer" : 0,
            "byteLength" : 11016,
            "byteOffset" : 186140
        },
        {
            "buffer" : 0,
            "byteLength" : 7344,
            "byteOffset" : 197156
        }
    ],
    "samplers" : [
        {
            "magFilter" : 9729,
            "minFilter" : 9987
        }
    ],
    "buffers" : [
        {
            "byteLength" : 204500,
            "uri" : "data:application/octet-stream;base64,"
        }
    ]
}
