<svg width="129" height="49" viewBox="0 0 129 49" fill="none" xmlns="http://www.w3.org/2000/svg">
<path d="M0 0H129V41C129 45.4183 125.418 49 121 49H8C3.58173 49 0 45.4183 0 41V0Z" fill="#DF661C"/>
<path d="M20.7727 30.6818C23.1364 30.6818 24.7273 28.8864 24.7273 26.1818C24.7273 23.4545 23.1364 21.6591 20.7727 21.6591C18.4091 21.6591 16.8182 23.4545 16.8182 26.1818C16.8182 28.8864 18.4091 30.6818 20.7727 30.6818ZM20.7727 29.4773C18.9773 29.4773 18.1591 27.9318 18.1591 26.1818C18.1591 24.4318 18.9773 22.8636 20.7727 22.8636C22.5682 22.8636 23.3864 24.4318 23.3864 26.1818C23.3864 27.9318 22.5682 29.4773 20.7727 29.4773ZM26.7741 33.7727H28.1151V29.1591H28.2287C28.5241 29.6364 29.0923 30.6818 30.7741 30.6818C32.956 30.6818 34.4787 28.9318 34.4787 26.1591C34.4787 23.4091 32.956 21.6591 30.7514 21.6591C29.0469 21.6591 28.5241 22.7045 28.2287 23.1591H28.0696V21.7727H26.7741V33.7727ZM28.0923 26.1364C28.0923 24.1818 28.956 22.8636 30.5923 22.8636C32.2969 22.8636 33.1378 24.2955 33.1378 26.1364C33.1378 28 32.2741 29.4773 30.5923 29.4773C28.9787 29.4773 28.0923 28.1136 28.0923 26.1364ZM40.1832 30.6818C41.956 30.6818 43.2514 29.7955 43.6605 28.4773L42.3651 28.1136C42.0241 29.0227 41.2344 29.4773 40.1832 29.4773C38.6094 29.4773 37.5241 28.4602 37.4616 26.5909H43.7969V26.0227C43.7969 22.7727 41.8651 21.6591 40.0469 21.6591C37.6832 21.6591 36.1151 23.5227 36.1151 26.2045C36.1151 28.8864 37.6605 30.6818 40.1832 30.6818ZM37.4616 25.4318C37.5526 24.0739 38.5128 22.8636 40.0469 22.8636C41.5014 22.8636 42.4332 23.9545 42.4332 25.4318H37.4616ZM47.1776 25.25C47.1776 23.7273 48.1207 22.8636 49.4048 22.8636C50.6491 22.8636 51.4048 23.6761 51.4048 25.0455V30.5H52.7457V24.9545C52.7457 22.7273 51.5582 21.6591 49.7912 21.6591C48.473 21.6591 47.6548 22.25 47.2457 23.1364H47.1321V21.7727H45.8366V30.5H47.1776V25.25ZM59.696 30.5H61.0369V21.7727H59.696V30.5ZM60.3778 20.3182C60.9006 20.3182 61.3324 19.9091 61.3324 19.4091C61.3324 18.9091 60.9006 18.5 60.3778 18.5C59.8551 18.5 59.4233 18.9091 59.4233 19.4091C59.4233 19.9091 59.8551 20.3182 60.3778 20.3182ZM64.8338 25.25C64.8338 23.7273 65.777 22.8636 67.0611 22.8636C68.3054 22.8636 69.0611 23.6761 69.0611 25.0455V30.5H70.402V24.9545C70.402 22.7273 69.2145 21.6591 67.4474 21.6591C66.1293 21.6591 65.3111 22.25 64.902 23.1364H64.7884V21.7727H63.4929V30.5H64.8338V25.25Z" fill="white"/>
<path fill-rule="evenodd" clip-rule="evenodd" d="M82.564 8.09991C81.31 8.34658 80.324 9.35543 80.08 10.6407C80.036 10.8735 80 11.83 80 12.7661V14.4683H80.757H81.514V12.8947C81.515 12.0293 81.552 11.1876 81.597 11.0244C81.714 10.6033 82.132 10.09 82.586 9.80902L82.975 9.56832L84.595 9.5425L86.215 9.51677V8.76567V8.01466L84.562 8.02342C83.652 8.0282 82.753 8.06262 82.564 8.09991ZM106.693 8.22644C106.693 8.35097 106.716 8.69492 106.744 8.99068L106.795 9.52848H108.248C109.846 9.52848 110.146 9.58696 110.668 9.99968C110.83 10.1284 111.069 10.4247 111.198 10.6579L111.433 11.0821L111.459 12.7752L111.484 14.4683H112.196H112.907V12.5191C112.907 10.3489 112.872 10.144 112.373 9.3912C112.056 8.91236 111.492 8.46912 110.893 8.22914C110.521 8.08023 110.275 8.05912 108.585 8.03123L106.692 8L106.693 8.22644ZM87.913 24.4085C86.59 27.8589 85.483 30.7449 85.454 30.8216C85.406 30.9488 85.473 30.961 86.228 30.961H87.055L87.69 29.1683L88.324 27.3756H91.044H93.765L94.225 28.5907C94.479 29.2589 94.781 30.0567 94.896 30.3634L95.107 30.9211L95.92 30.9439C96.367 30.9564 96.733 30.9394 96.733 30.9062C96.733 30.873 95.634 27.9855 94.291 24.4896L91.849 18.1334L91.083 18.1341L90.318 18.1347L87.913 24.4085ZM98.724 24.5402V30.961H99.442H100.159V28.2455V25.5301L101.141 25.5565C102.058 25.5812 102.145 25.5975 102.456 25.8032C102.989 26.1566 103.273 26.6412 104.227 28.8315C104.722 29.9678 105.168 30.913 105.218 30.9321C105.268 30.9513 105.669 30.9566 106.109 30.944L106.909 30.9211L106.08 29.1683C104.762 26.3802 104.649 26.1583 104.384 25.8251C104.246 25.6515 104.011 25.4223 103.861 25.3159L103.589 25.1223L104.093 24.946C105.034 24.6173 105.663 24.0558 106.074 23.1766C106.875 21.4645 106.302 19.4219 104.807 18.665C103.92 18.2157 103.724 18.1885 101.135 18.1526L98.724 18.1193V24.5402ZM103.516 19.68C104.042 19.8728 104.487 20.2849 104.698 20.7753C104.849 21.1268 104.873 21.2963 104.844 21.8415C104.802 22.6458 104.524 23.2015 103.941 23.646C103.356 24.092 102.824 24.2019 101.394 24.173L100.199 24.1488L100.177 21.9189C100.166 20.6926 100.175 19.6399 100.198 19.5798C100.263 19.4115 103.009 19.4945 103.516 19.68ZM91.236 20.333C91.322 20.635 91.817 22.0294 92.337 23.4317L93.282 25.9813L91.091 26.0025C89.886 26.0141 88.887 26.0106 88.871 25.9946C88.855 25.9786 89.307 24.6885 89.875 23.1278C90.443 21.567 90.932 20.1616 90.961 20.0047C90.991 19.8478 91.029 19.7339 91.047 19.7516C91.065 19.7693 91.15 20.031 91.236 20.333ZM80.056 34.995C79.965 35.086 79.992 38.0069 80.088 38.4664C80.34 39.6674 81.293 40.6419 82.487 40.9172C82.675 40.9606 83.591 40.997 84.522 40.9981L86.215 41V40.2431V39.4862L84.761 39.4857C83.961 39.4855 83.173 39.4482 83.01 39.4028C82.589 39.286 82.075 38.8685 81.794 38.4145L81.554 38.0255L81.514 36.505L81.474 34.9846L80.793 34.9618C80.418 34.9493 80.087 34.9642 80.056 34.995ZM111.473 36.329C111.473 37.854 111.411 38.1644 111.002 38.6807C110.873 38.8434 110.577 39.0821 110.344 39.2114C109.92 39.4461 109.918 39.4463 108.346 39.4722L106.772 39.4981V40.2142V40.9304L108.744 40.9054L110.716 40.8805L111.193 40.6462C111.828 40.3345 112.379 39.769 112.693 39.107L112.947 38.5699L112.974 36.7573L113 34.9447H112.237H111.473V36.329Z" fill="white"/>
</svg>
