<svg width="117" height="53" viewBox="0 0 117 53" fill="none" xmlns="http://www.w3.org/2000/svg">
<path d="M0 0H117V45C117 49.4183 113.418 53 109 53H8C3.58172 53 0 49.4183 0 45V0Z" fill="#DF661C"/>
<path d="M14.7727 32.6818C17.1364 32.6818 18.7273 30.8864 18.7273 28.1818C18.7273 25.4545 17.1364 23.6591 14.7727 23.6591C12.4091 23.6591 10.8182 25.4545 10.8182 28.1818C10.8182 30.8864 12.4091 32.6818 14.7727 32.6818ZM14.7727 31.4773C12.9773 31.4773 12.1591 29.9318 12.1591 28.1818C12.1591 26.4318 12.9773 24.8636 14.7727 24.8636C16.5682 24.8636 17.3864 26.4318 17.3864 28.1818C17.3864 29.9318 16.5682 31.4773 14.7727 31.4773ZM20.7741 35.7727H22.1151V31.1591H22.2287C22.5241 31.6364 23.0923 32.6818 24.7741 32.6818C26.956 32.6818 28.4787 30.9318 28.4787 28.1591C28.4787 25.4091 26.956 23.6591 24.7514 23.6591C23.0469 23.6591 22.5241 24.7045 22.2287 25.1591H22.0696V23.7727H20.7741V35.7727ZM22.0923 28.1364C22.0923 26.1818 22.956 24.8636 24.5923 24.8636C26.2969 24.8636 27.1378 26.2955 27.1378 28.1364C27.1378 30 26.2741 31.4773 24.5923 31.4773C22.9787 31.4773 22.0923 30.1136 22.0923 28.1364ZM34.1832 32.6818C35.956 32.6818 37.2514 31.7955 37.6605 30.4773L36.3651 30.1136C36.0241 31.0227 35.2344 31.4773 34.1832 31.4773C32.6094 31.4773 31.5241 30.4602 31.4616 28.5909H37.7969V28.0227C37.7969 24.7727 35.8651 23.6591 34.0469 23.6591C31.6832 23.6591 30.1151 25.5227 30.1151 28.2045C30.1151 30.8864 31.6605 32.6818 34.1832 32.6818ZM31.4616 27.4318C31.5526 26.0739 32.5128 24.8636 34.0469 24.8636C35.5014 24.8636 36.4332 25.9545 36.4332 27.4318H31.4616ZM41.1776 27.25C41.1776 25.7273 42.1207 24.8636 43.4048 24.8636C44.6491 24.8636 45.4048 25.6761 45.4048 27.0455V32.5H46.7457V26.9545C46.7457 24.7273 45.5582 23.6591 43.7912 23.6591C42.473 23.6591 41.6548 24.25 41.2457 25.1364H41.1321V23.7727H39.8366V32.5H41.1776V27.25ZM53.696 32.5H55.0369V23.7727H53.696V32.5ZM54.3778 22.3182C54.9006 22.3182 55.3324 21.9091 55.3324 21.4091C55.3324 20.9091 54.9006 20.5 54.3778 20.5C53.8551 20.5 53.4233 20.9091 53.4233 21.4091C53.4233 21.9091 53.8551 22.3182 54.3778 22.3182ZM58.8338 27.25C58.8338 25.7273 59.777 24.8636 61.0611 24.8636C62.3054 24.8636 63.0611 25.6761 63.0611 27.0455V32.5H64.402V26.9545C64.402 24.7273 63.2145 23.6591 61.4474 23.6591C60.1293 23.6591 59.3111 24.25 58.902 25.1364H58.7884V23.7727H57.4929V32.5H58.8338V27.25Z" fill="white"/>
<path fill-rule="evenodd" clip-rule="evenodd" d="M76.564 10.0999C75.31 10.3466 74.324 11.3554 74.08 12.6407C74.036 12.8735 74 13.83 74 14.7661V16.4683H74.757H75.514V14.8947C75.515 14.0293 75.552 13.1876 75.597 13.0244C75.714 12.6033 76.132 12.09 76.586 11.809L76.975 11.5683L78.595 11.5425L80.215 11.5168V10.7657V10.0147L78.562 10.0234C77.652 10.0282 76.753 10.0626 76.564 10.0999ZM100.693 10.2264C100.693 10.351 100.716 10.6949 100.744 10.9907L100.795 11.5285H102.248C103.846 11.5285 104.146 11.587 104.668 11.9997C104.83 12.1284 105.069 12.4247 105.198 12.6579L105.433 13.0821L105.459 14.7752L105.484 16.4683H106.196H106.907V14.5191C106.907 12.3489 106.872 12.144 106.373 11.3912C106.056 10.9124 105.492 10.4691 104.893 10.2291C104.521 10.0802 104.275 10.0591 102.585 10.0312L100.692 10L100.693 10.2264ZM81.913 26.4085C80.59 29.8589 79.483 32.7449 79.454 32.8216C79.406 32.9488 79.473 32.961 80.228 32.961H81.055L81.69 31.1683L82.324 29.3756H85.044H87.765L88.225 30.5907C88.479 31.2589 88.781 32.0567 88.896 32.3634L89.107 32.9211L89.92 32.9439C90.367 32.9564 90.733 32.9394 90.733 32.9062C90.733 32.873 89.634 29.9855 88.291 26.4896L85.849 20.1334L85.083 20.1341L84.318 20.1347L81.913 26.4085ZM92.724 26.5402V32.961H93.442H94.159V30.2455V27.5301L95.141 27.5565C96.058 27.5812 96.145 27.5975 96.456 27.8032C96.989 28.1566 97.273 28.6412 98.227 30.8315C98.722 31.9678 99.168 32.913 99.218 32.9321C99.268 32.9513 99.669 32.9566 100.109 32.944L100.909 32.9211L100.08 31.1683C98.762 28.3802 98.649 28.1583 98.384 27.8251C98.246 27.6515 98.011 27.4223 97.861 27.3159L97.589 27.1223L98.093 26.946C99.034 26.6173 99.663 26.0558 100.074 25.1766C100.875 23.4645 100.302 21.4219 98.807 20.665C97.92 20.2157 97.724 20.1885 95.135 20.1526L92.724 20.1193V26.5402ZM97.516 21.68C98.042 21.8728 98.487 22.2849 98.698 22.7753C98.849 23.1268 98.873 23.2963 98.844 23.8415C98.802 24.6458 98.524 25.2015 97.941 25.646C97.356 26.092 96.824 26.2019 95.394 26.173L94.199 26.1488L94.177 23.9189C94.166 22.6926 94.175 21.6399 94.198 21.5798C94.263 21.4115 97.009 21.4945 97.516 21.68ZM85.236 22.333C85.322 22.635 85.817 24.0294 86.337 25.4317L87.282 27.9813L85.091 28.0025C83.886 28.0141 82.887 28.0106 82.871 27.9946C82.855 27.9786 83.307 26.6885 83.875 25.1278C84.443 23.567 84.932 22.1616 84.961 22.0047C84.991 21.8478 85.029 21.7339 85.047 21.7516C85.065 21.7693 85.15 22.031 85.236 22.333ZM74.056 36.995C73.965 37.086 73.992 40.0069 74.088 40.4664C74.34 41.6674 75.293 42.6419 76.487 42.9172C76.675 42.9606 77.591 42.997 78.522 42.9981L80.215 43V42.2431V41.4862L78.761 41.4857C77.961 41.4855 77.173 41.4482 77.01 41.4028C76.589 41.286 76.075 40.8685 75.794 40.4145L75.554 40.0255L75.514 38.505L75.474 36.9846L74.793 36.9618C74.418 36.9493 74.087 36.9642 74.056 36.995ZM105.473 38.329C105.473 39.854 105.411 40.1644 105.002 40.6807C104.873 40.8434 104.577 41.0821 104.344 41.2114C103.92 41.4461 103.918 41.4463 102.346 41.4722L100.772 41.4981V42.2142V42.9304L102.744 42.9054L104.716 42.8805L105.193 42.6462C105.828 42.3345 106.379 41.769 106.693 41.107L106.947 40.5699L106.974 38.7573L107 36.9447H106.237H105.473V38.329Z" fill="white"/>
</svg>
