<svg width="131" height="53" viewBox="0 0 131 53" fill="none" xmlns="http://www.w3.org/2000/svg">
<path d="M0 0H131V45C131 49.4183 127.418 53 123 53H8C3.58172 53 0 49.4183 0 45V0Z" fill="#DF661C"/>
<path d="M14.7727 32.6818C17.1364 32.6818 18.7273 30.8864 18.7273 28.1818C18.7273 25.4545 17.1364 23.6591 14.7727 23.6591C12.4091 23.6591 10.8182 25.4545 10.8182 28.1818C10.8182 30.8864 12.4091 32.6818 14.7727 32.6818ZM14.7727 31.4773C12.9773 31.4773 12.1591 29.9318 12.1591 28.1818C12.1591 26.4318 12.9773 24.8636 14.7727 24.8636C16.5682 24.8636 17.3864 26.4318 17.3864 28.1818C17.3864 29.9318 16.5682 31.4773 14.7727 31.4773ZM24.5696 23.7727H22.706V21.6818H21.3651V23.7727H20.0469V24.9091H21.3651V30.3636C21.3651 31.8864 22.5923 32.6136 23.7287 32.6136C24.2287 32.6136 24.5469 32.5227 24.7287 32.4545L24.456 31.25C24.3423 31.2727 24.1605 31.3182 23.8651 31.3182C23.2741 31.3182 22.706 31.1364 22.706 30V24.9091H24.5696V23.7727ZM28.5639 32.5H29.8821L31.7912 25.7955H31.9276L33.8366 32.5H35.1548L37.8139 23.7727H36.4048L34.5185 30.4318H34.4276L32.5866 23.7727H31.1548L29.2912 30.4545H29.2003L27.3139 23.7727H25.9048L28.5639 32.5ZM42.8352 32.6818C45.1989 32.6818 46.7898 30.8864 46.7898 28.1818C46.7898 25.4545 45.1989 23.6591 42.8352 23.6591C40.4716 23.6591 38.8807 25.4545 38.8807 28.1818C38.8807 30.8864 40.4716 32.6818 42.8352 32.6818ZM42.8352 31.4773C41.0398 31.4773 40.2216 29.9318 40.2216 28.1818C40.2216 26.4318 41.0398 24.8636 42.8352 24.8636C44.6307 24.8636 45.4489 26.4318 45.4489 28.1818C45.4489 29.9318 44.6307 31.4773 42.8352 31.4773ZM42.2216 22.5909H43.4034L45.1761 19.9545H43.608L42.2216 22.5909ZM48.8366 32.5H50.1776V26.9773C50.1776 25.7955 51.1094 24.9318 52.3821 24.9318C52.7401 24.9318 53.1094 25 53.2003 25.0227V23.6591C53.0469 23.6477 52.6946 23.6364 52.4957 23.6364C51.4503 23.6364 50.5412 24.2273 50.223 25.0909H50.1321V23.7727H48.8366V32.5ZM54.5398 32.5H61.3807V31.25H56.4034V31.1591L61.2216 24.8409V23.7727H54.6989V25.0227H59.4943V25.1136L54.5398 31.4773V32.5ZM69.9233 32.5H71.2415L73.1506 25.7955H73.2869L75.196 32.5H76.5142L79.1733 23.7727H77.7642L75.8778 30.4318H75.7869L73.946 23.7727H72.5142L70.6506 30.4545H70.5597L68.6733 23.7727H67.2642L69.9233 32.5Z" fill="white"/>
<path fill-rule="evenodd" clip-rule="evenodd" d="M90.564 10.0999C89.31 10.3466 88.324 11.3554 88.08 12.6407C88.036 12.8735 88 13.83 88 14.7661V16.4683H88.757H89.514V14.8947C89.515 14.0293 89.552 13.1876 89.597 13.0244C89.714 12.6033 90.132 12.09 90.586 11.809L90.975 11.5683L92.595 11.5425L94.215 11.5168V10.7657V10.0147L92.562 10.0234C91.652 10.0282 90.753 10.0626 90.564 10.0999ZM114.693 10.2264C114.693 10.351 114.716 10.6949 114.744 10.9907L114.795 11.5285H116.248C117.846 11.5285 118.146 11.587 118.668 11.9997C118.83 12.1284 119.069 12.4247 119.198 12.6579L119.433 13.0821L119.459 14.7752L119.484 16.4683H120.196H120.907V14.5191C120.907 12.3489 120.872 12.144 120.373 11.3912C120.056 10.9124 119.492 10.4691 118.893 10.2291C118.521 10.0802 118.275 10.0591 116.585 10.0312L114.692 10L114.693 10.2264ZM95.913 26.4085C94.59 29.8589 93.483 32.7449 93.454 32.8216C93.406 32.9488 93.473 32.961 94.228 32.961H95.055L95.69 31.1683L96.324 29.3756H99.044H101.765L102.225 30.5907C102.479 31.2589 102.781 32.0567 102.896 32.3634L103.107 32.9211L103.92 32.9439C104.367 32.9564 104.733 32.9394 104.733 32.9062C104.733 32.873 103.634 29.9855 102.291 26.4896L99.849 20.1334L99.083 20.1341L98.318 20.1347L95.913 26.4085ZM106.724 26.5402V32.961H107.442H108.159V30.2455V27.5301L109.141 27.5565C110.058 27.5812 110.145 27.5975 110.456 27.8032C110.989 28.1566 111.273 28.6412 112.227 30.8315C112.722 31.9678 113.168 32.913 113.218 32.9321C113.268 32.9513 113.669 32.9566 114.109 32.944L114.909 32.9211L114.08 31.1683C112.762 28.3802 112.649 28.1583 112.384 27.8251C112.246 27.6515 112.011 27.4223 111.861 27.3159L111.589 27.1223L112.093 26.946C113.034 26.6173 113.663 26.0558 114.074 25.1766C114.875 23.4645 114.302 21.4219 112.807 20.665C111.92 20.2157 111.724 20.1885 109.135 20.1526L106.724 20.1193V26.5402ZM111.516 21.68C112.042 21.8728 112.487 22.2849 112.698 22.7753C112.849 23.1268 112.873 23.2963 112.844 23.8415C112.802 24.6458 112.524 25.2015 111.941 25.646C111.356 26.092 110.824 26.2019 109.394 26.173L108.199 26.1488L108.177 23.9189C108.166 22.6926 108.175 21.6399 108.198 21.5798C108.263 21.4115 111.009 21.4945 111.516 21.68ZM99.236 22.333C99.322 22.635 99.817 24.0294 100.337 25.4317L101.282 27.9813L99.091 28.0025C97.886 28.0141 96.887 28.0106 96.871 27.9946C96.855 27.9786 97.307 26.6885 97.875 25.1278C98.443 23.567 98.932 22.1616 98.961 22.0047C98.991 21.8478 99.029 21.7339 99.047 21.7516C99.065 21.7693 99.15 22.031 99.236 22.333ZM88.056 36.995C87.965 37.086 87.992 40.0069 88.088 40.4664C88.34 41.6674 89.293 42.6419 90.487 42.9172C90.675 42.9606 91.591 42.997 92.522 42.9981L94.215 43V42.2431V41.4862L92.761 41.4857C91.961 41.4855 91.173 41.4482 91.01 41.4028C90.589 41.286 90.075 40.8685 89.794 40.4145L89.554 40.0255L89.514 38.505L89.474 36.9846L88.793 36.9618C88.418 36.9493 88.087 36.9642 88.056 36.995ZM119.473 38.329C119.473 39.854 119.411 40.1644 119.002 40.6807C118.873 40.8434 118.577 41.0821 118.344 41.2114C117.92 41.4461 117.918 41.4463 116.346 41.4722L114.772 41.4981V42.2142V42.9304L116.744 42.9054L118.716 42.8805L119.193 42.6462C119.828 42.3345 120.379 41.769 120.693 41.107L120.947 40.5699L120.974 38.7573L121 36.9447H120.237H119.473V38.329Z" fill="white"/>
</svg>
