<svg width="143" height="49" viewBox="0 0 143 49" fill="none" xmlns="http://www.w3.org/2000/svg">
<path d="M0 0H143V41C143 45.4183 139.418 49 135 49H8C3.58173 49 0 45.4183 0 41V0Z" fill="#DF661C"/>
<path d="M20.7727 30.6818C23.1364 30.6818 24.7273 28.8864 24.7273 26.1818C24.7273 23.4545 23.1364 21.6591 20.7727 21.6591C18.4091 21.6591 16.8182 23.4545 16.8182 26.1818C16.8182 28.8864 18.4091 30.6818 20.7727 30.6818ZM20.7727 29.4773C18.9773 29.4773 18.1591 27.9318 18.1591 26.1818C18.1591 24.4318 18.9773 22.8636 20.7727 22.8636C22.5682 22.8636 23.3864 24.4318 23.3864 26.1818C23.3864 27.9318 22.5682 29.4773 20.7727 29.4773ZM30.5696 21.7727H28.706V19.6818H27.3651V21.7727H26.0469V22.9091H27.3651V28.3636C27.3651 29.8864 28.5923 30.6136 29.7287 30.6136C30.2287 30.6136 30.5469 30.5227 30.7287 30.4545L30.456 29.25C30.3423 29.2727 30.1605 29.3182 29.8651 29.3182C29.2741 29.3182 28.706 29.1364 28.706 28V22.9091H30.5696V21.7727ZM34.5639 30.5H35.8821L37.7912 23.7955H37.9276L39.8366 30.5H41.1548L43.8139 21.7727H42.4048L40.5185 28.4318H40.4276L38.5866 21.7727H37.1548L35.2912 28.4545H35.2003L33.3139 21.7727H31.9048L34.5639 30.5ZM48.8352 30.6818C51.1989 30.6818 52.7898 28.8864 52.7898 26.1818C52.7898 23.4545 51.1989 21.6591 48.8352 21.6591C46.4716 21.6591 44.8807 23.4545 44.8807 26.1818C44.8807 28.8864 46.4716 30.6818 48.8352 30.6818ZM48.8352 29.4773C47.0398 29.4773 46.2216 27.9318 46.2216 26.1818C46.2216 24.4318 47.0398 22.8636 48.8352 22.8636C50.6307 22.8636 51.4489 24.4318 51.4489 26.1818C51.4489 27.9318 50.6307 29.4773 48.8352 29.4773ZM48.2216 20.5909H49.4034L51.1761 17.9545H49.608L48.2216 20.5909ZM54.8366 30.5H56.1776V24.9773C56.1776 23.7955 57.1094 22.9318 58.3821 22.9318C58.7401 22.9318 59.1094 23 59.2003 23.0227V21.6591C59.0469 21.6477 58.6946 21.6364 58.4957 21.6364C57.4503 21.6364 56.5412 22.2273 56.223 23.0909H56.1321V21.7727H54.8366V30.5ZM60.5398 30.5H67.3807V29.25H62.4034V29.1591L67.2216 22.8409V21.7727H60.6989V23.0227H65.4943V23.1136L60.5398 29.4773V30.5ZM75.9233 30.5H77.2415L79.1506 23.7955H79.2869L81.196 30.5H82.5142L85.1733 21.7727H83.7642L81.8778 28.4318H81.7869L79.946 21.7727H78.5142L76.6506 28.4545H76.5597L74.6733 21.7727H73.2642L75.9233 30.5Z" fill="white"/>
<path fill-rule="evenodd" clip-rule="evenodd" d="M96.564 8.09991C95.31 8.34658 94.324 9.35543 94.08 10.6407C94.036 10.8735 94 11.83 94 12.7661V14.4683H94.757H95.514V12.8947C95.515 12.0293 95.552 11.1876 95.597 11.0244C95.714 10.6033 96.132 10.09 96.586 9.80902L96.975 9.56832L98.595 9.5425L100.215 9.51677V8.76567V8.01466L98.562 8.02342C97.652 8.0282 96.753 8.06262 96.564 8.09991ZM120.693 8.22644C120.693 8.35097 120.716 8.69492 120.744 8.99068L120.795 9.52848H122.248C123.846 9.52848 124.146 9.58696 124.668 9.99968C124.83 10.1284 125.069 10.4247 125.198 10.6579L125.433 11.0821L125.459 12.7752L125.484 14.4683H126.196H126.907V12.5191C126.907 10.3489 126.872 10.144 126.373 9.3912C126.056 8.91236 125.492 8.46912 124.893 8.22914C124.521 8.08023 124.275 8.05912 122.585 8.03123L120.692 8L120.693 8.22644ZM101.913 24.4085C100.59 27.8589 99.483 30.7449 99.454 30.8216C99.406 30.9488 99.473 30.961 100.228 30.961H101.055L101.69 29.1683L102.324 27.3756H105.044H107.765L108.225 28.5907C108.479 29.2589 108.781 30.0567 108.896 30.3634L109.107 30.9211L109.92 30.9439C110.367 30.9564 110.733 30.9394 110.733 30.9062C110.733 30.873 109.634 27.9855 108.291 24.4896L105.849 18.1334L105.083 18.1341L104.318 18.1347L101.913 24.4085ZM112.724 24.5402V30.961H113.442H114.159V28.2455V25.5301L115.141 25.5565C116.058 25.5812 116.145 25.5975 116.456 25.8032C116.989 26.1566 117.273 26.6412 118.227 28.8315C118.722 29.9678 119.168 30.913 119.218 30.9321C119.268 30.9513 119.669 30.9566 120.109 30.944L120.909 30.9211L120.08 29.1683C118.762 26.3802 118.649 26.1583 118.384 25.8251C118.246 25.6515 118.011 25.4223 117.861 25.3159L117.589 25.1223L118.093 24.946C119.034 24.6173 119.663 24.0558 120.074 23.1766C120.875 21.4645 120.302 19.4219 118.807 18.665C117.92 18.2157 117.724 18.1885 115.135 18.1526L112.724 18.1193V24.5402ZM117.516 19.68C118.042 19.8728 118.487 20.2849 118.698 20.7753C118.849 21.1268 118.873 21.2963 118.844 21.8415C118.802 22.6458 118.524 23.2015 117.941 23.646C117.356 24.092 116.824 24.2019 115.394 24.173L114.199 24.1488L114.177 21.9189C114.166 20.6926 114.175 19.6399 114.198 19.5798C114.263 19.4115 117.009 19.4945 117.516 19.68ZM105.236 20.333C105.322 20.635 105.817 22.0294 106.337 23.4317L107.282 25.9813L105.091 26.0025C103.886 26.0141 102.887 26.0106 102.871 25.9946C102.855 25.9786 103.307 24.6885 103.875 23.1278C104.443 21.567 104.932 20.1616 104.961 20.0047C104.991 19.8478 105.029 19.7339 105.047 19.7516C105.065 19.7693 105.15 20.031 105.236 20.333ZM94.056 34.995C93.965 35.086 93.992 38.0069 94.088 38.4664C94.34 39.6674 95.293 40.6419 96.487 40.9172C96.675 40.9606 97.591 40.997 98.522 40.9981L100.215 41V40.2431V39.4862L98.761 39.4857C97.961 39.4855 97.173 39.4482 97.01 39.4028C96.589 39.286 96.075 38.8685 95.794 38.4145L95.554 38.0255L95.514 36.505L95.474 34.9846L94.793 34.9618C94.418 34.9493 94.087 34.9642 94.056 34.995ZM125.473 36.329C125.473 37.854 125.411 38.1644 125.002 38.6807C124.873 38.8434 124.577 39.0821 124.344 39.2114C123.92 39.4461 123.918 39.4463 122.346 39.4722L120.772 39.4981V40.2142V40.9304L122.744 40.9054L124.716 40.8805L125.193 40.6462C125.828 40.3345 126.379 39.769 126.693 39.107L126.947 38.5699L126.974 36.7573L127 34.9447H126.237H125.473V36.329Z" fill="white"/>
</svg>
