<svg width="140" height="53" viewBox="0 0 140 53" fill="none" xmlns="http://www.w3.org/2000/svg">
<path d="M0 0H140V45C140 49.4183 136.418 53 132 53H8C3.58172 53 0 49.4183 0 45V0Z" fill="#DF661C"/>
<path d="M14.7727 32.6818C17.1364 32.6818 18.7273 30.8864 18.7273 28.1818C18.7273 25.4545 17.1364 23.6591 14.7727 23.6591C12.4091 23.6591 10.8182 25.4545 10.8182 28.1818C10.8182 30.8864 12.4091 32.6818 14.7727 32.6818ZM14.7727 31.4773C12.9773 31.4773 12.1591 29.9318 12.1591 28.1818C12.1591 26.4318 12.9773 24.8636 14.7727 24.8636C16.5682 24.8636 17.3864 26.4318 17.3864 28.1818C17.3864 29.9318 16.5682 31.4773 14.7727 31.4773ZM19.6335 25.0227H22.5199V32.5H23.8608V25.0227H26.7244V23.7727H19.6335V25.0227ZM28.6804 32.5H30.0213V28.8182H31.2259L34.0895 32.5H35.8168L32.2486 27.9773L35.7713 23.7727H34.044L30.9077 27.5682H30.0213V23.7727H28.6804V32.5ZM37.2741 35.7727H38.6151V31.1591H38.7287C39.0241 31.6364 39.5923 32.6818 41.2741 32.6818C43.456 32.6818 44.9787 30.9318 44.9787 28.1591C44.9787 25.4091 43.456 23.6591 41.2514 23.6591C39.5469 23.6591 39.0241 24.7045 38.7287 25.1591H38.5696V23.7727H37.2741V35.7727ZM38.5923 28.1364C38.5923 26.1818 39.456 24.8636 41.0923 24.8636C42.7969 24.8636 43.6378 26.2955 43.6378 28.1364C43.6378 30 42.7741 31.4773 41.0923 31.4773C39.4787 31.4773 38.5923 30.1136 38.5923 28.1364ZM48.3651 26.9318V23.7727H47.0241V32.5H50.6832C52.7287 32.5 53.8423 31.25 53.8423 29.6818C53.8423 28.0909 52.7287 26.9318 50.6832 26.9318H48.3651ZM55.2287 32.5H56.5696V23.7727H55.2287V32.5ZM48.3651 28.1818H50.6832C51.7457 28.1818 52.5014 28.8295 52.5014 29.75C52.5014 30.6307 51.7457 31.25 50.6832 31.25H48.3651V28.1818ZM58.5241 25.0227H61.4105V32.5H62.7514V25.0227H65.6151V23.7727H58.5241V25.0227ZM68.9119 26.9318V23.7727H67.571V32.5H71.2301C73.2756 32.5 74.3892 31.25 74.3892 29.6818C74.3892 28.0909 73.2756 26.9318 71.2301 26.9318H68.9119ZM68.9119 28.1818H71.2301C72.2926 28.1818 73.0483 28.8295 73.0483 29.75C73.0483 30.6307 72.2926 31.25 71.2301 31.25H68.9119V28.1818ZM80.9304 32.5H85.044C86.8168 32.5 87.8849 31.5 87.8849 30.1591C87.8849 28.7898 86.8452 28.0511 85.8849 27.9091C86.8679 27.7045 87.5668 27.1534 87.5668 26.0909C87.5668 24.6989 86.3736 23.7727 84.4986 23.7727H80.9304V32.5ZM82.2031 31.2727V28.5909H85.044C85.9645 28.5909 86.5213 29.142 86.5213 30.0455C86.5213 30.8068 85.9645 31.2727 85.044 31.2727H82.2031ZM82.2031 27.4318V25H84.4986C85.5724 25 86.2259 25.4489 86.2259 26.1818C86.2259 26.9602 85.5724 27.4318 84.4986 27.4318H82.2031Z" fill="white"/>
<path fill-rule="evenodd" clip-rule="evenodd" d="M99.564 10.0999C98.31 10.3466 97.324 11.3554 97.08 12.6407C97.036 12.8735 97 13.83 97 14.7661V16.4683H97.757H98.514V14.8947C98.515 14.0293 98.552 13.1876 98.597 13.0244C98.714 12.6033 99.132 12.09 99.586 11.809L99.975 11.5683L101.595 11.5425L103.215 11.5168V10.7657V10.0147L101.562 10.0234C100.652 10.0282 99.753 10.0626 99.564 10.0999ZM123.693 10.2264C123.693 10.351 123.716 10.6949 123.744 10.9907L123.795 11.5285H125.248C126.846 11.5285 127.146 11.587 127.668 11.9997C127.83 12.1284 128.069 12.4247 128.198 12.6579L128.433 13.0821L128.459 14.7752L128.484 16.4683H129.196H129.907V14.5191C129.907 12.3489 129.872 12.144 129.373 11.3912C129.056 10.9124 128.492 10.4691 127.893 10.2291C127.521 10.0802 127.275 10.0591 125.585 10.0312L123.692 10L123.693 10.2264ZM104.913 26.4085C103.59 29.8589 102.483 32.7449 102.454 32.8216C102.406 32.9488 102.473 32.961 103.228 32.961H104.055L104.69 31.1683L105.324 29.3756H108.044H110.765L111.225 30.5907C111.479 31.2589 111.781 32.0567 111.896 32.3634L112.107 32.9211L112.92 32.9439C113.367 32.9564 113.733 32.9394 113.733 32.9062C113.733 32.873 112.634 29.9855 111.291 26.4896L108.849 20.1334L108.083 20.1341L107.318 20.1347L104.913 26.4085ZM115.724 26.5402V32.961H116.442H117.159V30.2455V27.5301L118.141 27.5565C119.058 27.5812 119.145 27.5975 119.456 27.8032C119.989 28.1566 120.273 28.6412 121.227 30.8315C121.722 31.9678 122.168 32.913 122.218 32.9321C122.268 32.9513 122.669 32.9566 123.109 32.944L123.909 32.9211L123.08 31.1683C121.762 28.3802 121.649 28.1583 121.384 27.8251C121.246 27.6515 121.011 27.4223 120.861 27.3159L120.589 27.1223L121.093 26.946C122.034 26.6173 122.663 26.0558 123.074 25.1766C123.875 23.4645 123.302 21.4219 121.807 20.665C120.92 20.2157 120.724 20.1885 118.135 20.1526L115.724 20.1193V26.5402ZM120.516 21.68C121.042 21.8728 121.487 22.2849 121.698 22.7753C121.849 23.1268 121.873 23.2963 121.844 23.8415C121.802 24.6458 121.524 25.2015 120.941 25.646C120.356 26.092 119.824 26.2019 118.394 26.173L117.199 26.1488L117.177 23.9189C117.166 22.6926 117.175 21.6399 117.198 21.5798C117.263 21.4115 120.009 21.4945 120.516 21.68ZM108.236 22.333C108.322 22.635 108.817 24.0294 109.337 25.4317L110.282 27.9813L108.091 28.0025C106.886 28.0141 105.887 28.0106 105.871 27.9946C105.855 27.9786 106.307 26.6885 106.875 25.1278C107.443 23.567 107.932 22.1616 107.961 22.0047C107.991 21.8478 108.029 21.7339 108.047 21.7516C108.065 21.7693 108.15 22.031 108.236 22.333ZM97.056 36.995C96.965 37.086 96.992 40.0069 97.088 40.4664C97.34 41.6674 98.293 42.6419 99.487 42.9172C99.675 42.9606 100.591 42.997 101.522 42.9981L103.215 43V42.2431V41.4862L101.761 41.4857C100.961 41.4855 100.173 41.4482 100.01 41.4028C99.589 41.286 99.075 40.8685 98.794 40.4145L98.554 40.0255L98.514 38.505L98.474 36.9846L97.793 36.9618C97.418 36.9493 97.087 36.9642 97.056 36.995ZM128.473 38.329C128.473 39.854 128.411 40.1644 128.002 40.6807C127.873 40.8434 127.577 41.0821 127.344 41.2114C126.92 41.4461 126.918 41.4463 125.346 41.4722L123.772 41.4981V42.2142V42.9304L125.744 42.9054L127.716 42.8805L128.193 42.6462C128.828 42.3345 129.379 41.769 129.693 41.107L129.947 40.5699L129.974 38.7573L130 36.9447H129.237H128.473V38.329Z" fill="white"/>
</svg>
