<svg width="152" height="49" viewBox="0 0 152 49" fill="none" xmlns="http://www.w3.org/2000/svg">
<path d="M0 0H152V41C152 45.4183 148.418 49 144 49H8C3.58172 49 0 45.4183 0 41V0Z" fill="#DF661C"/>
<path d="M20.7727 30.6818C23.1364 30.6818 24.7273 28.8864 24.7273 26.1818C24.7273 23.4545 23.1364 21.6591 20.7727 21.6591C18.4091 21.6591 16.8182 23.4545 16.8182 26.1818C16.8182 28.8864 18.4091 30.6818 20.7727 30.6818ZM20.7727 29.4773C18.9773 29.4773 18.1591 27.9318 18.1591 26.1818C18.1591 24.4318 18.9773 22.8636 20.7727 22.8636C22.5682 22.8636 23.3864 24.4318 23.3864 26.1818C23.3864 27.9318 22.5682 29.4773 20.7727 29.4773ZM25.6335 23.0227H28.5199V30.5H29.8608V23.0227H32.7244V21.7727H25.6335V23.0227ZM34.6804 30.5H36.0213V26.8182H37.2259L40.0895 30.5H41.8168L38.2486 25.9773L41.7713 21.7727H40.044L36.9077 25.5682H36.0213V21.7727H34.6804V30.5ZM43.2741 33.7727H44.6151V29.1591H44.7287C45.0241 29.6364 45.5923 30.6818 47.2741 30.6818C49.456 30.6818 50.9787 28.9318 50.9787 26.1591C50.9787 23.4091 49.456 21.6591 47.2514 21.6591C45.5469 21.6591 45.0241 22.7045 44.7287 23.1591H44.5696V21.7727H43.2741V33.7727ZM44.5923 26.1364C44.5923 24.1818 45.456 22.8636 47.0923 22.8636C48.7969 22.8636 49.6378 24.2955 49.6378 26.1364C49.6378 28 48.7741 29.4773 47.0923 29.4773C45.4787 29.4773 44.5923 28.1136 44.5923 26.1364ZM54.3651 24.9318V21.7727H53.0241V30.5H56.6832C58.7287 30.5 59.8423 29.25 59.8423 27.6818C59.8423 26.0909 58.7287 24.9318 56.6832 24.9318H54.3651ZM61.2287 30.5H62.5696V21.7727H61.2287V30.5ZM54.3651 26.1818H56.6832C57.7457 26.1818 58.5014 26.8295 58.5014 27.75C58.5014 28.6307 57.7457 29.25 56.6832 29.25H54.3651V26.1818ZM64.5241 23.0227H67.4105V30.5H68.7514V23.0227H71.6151V21.7727H64.5241V23.0227ZM74.9119 24.9318V21.7727H73.571V30.5H77.2301C79.2756 30.5 80.3892 29.25 80.3892 27.6818C80.3892 26.0909 79.2756 24.9318 77.2301 24.9318H74.9119ZM74.9119 26.1818H77.2301C78.2926 26.1818 79.0483 26.8295 79.0483 27.75C79.0483 28.6307 78.2926 29.25 77.2301 29.25H74.9119V26.1818ZM86.9304 30.5H91.044C92.8168 30.5 93.8849 29.5 93.8849 28.1591C93.8849 26.7898 92.8452 26.0511 91.8849 25.9091C92.8679 25.7045 93.5668 25.1534 93.5668 24.0909C93.5668 22.6989 92.3736 21.7727 90.4986 21.7727H86.9304V30.5ZM88.2031 29.2727V26.5909H91.044C91.9645 26.5909 92.5213 27.142 92.5213 28.0455C92.5213 28.8068 91.9645 29.2727 91.044 29.2727H88.2031ZM88.2031 25.4318V23H90.4986C91.5724 23 92.2259 23.4489 92.2259 24.1818C92.2259 24.9602 91.5724 25.4318 90.4986 25.4318H88.2031Z" fill="white"/>
<path fill-rule="evenodd" clip-rule="evenodd" d="M105.564 8.09991C104.31 8.34658 103.324 9.35543 103.08 10.6407C103.036 10.8735 103 11.83 103 12.7661V14.4683H103.757H104.514V12.8947C104.515 12.0293 104.552 11.1876 104.597 11.0244C104.714 10.6033 105.132 10.09 105.586 9.80902L105.975 9.56832L107.595 9.5425L109.215 9.51677V8.76567V8.01466L107.562 8.02342C106.652 8.0282 105.753 8.06262 105.564 8.09991ZM129.693 8.22644C129.693 8.35097 129.716 8.69492 129.744 8.99068L129.795 9.52848H131.248C132.846 9.52848 133.146 9.58696 133.668 9.99968C133.83 10.1284 134.069 10.4247 134.198 10.6579L134.433 11.0821L134.459 12.7752L134.484 14.4683H135.196H135.907V12.5191C135.907 10.3489 135.872 10.144 135.373 9.3912C135.056 8.91236 134.492 8.46912 133.893 8.22914C133.521 8.08023 133.275 8.05912 131.585 8.03123L129.692 8L129.693 8.22644ZM110.913 24.4085C109.59 27.8589 108.483 30.7449 108.454 30.8216C108.406 30.9488 108.473 30.961 109.228 30.961H110.055L110.69 29.1683L111.324 27.3756H114.044H116.765L117.225 28.5907C117.479 29.2589 117.781 30.0567 117.896 30.3634L118.107 30.9211L118.92 30.9439C119.367 30.9564 119.733 30.9394 119.733 30.9062C119.733 30.873 118.634 27.9855 117.291 24.4896L114.849 18.1334L114.083 18.1341L113.318 18.1347L110.913 24.4085ZM121.724 24.5402V30.961H122.442H123.159V28.2455V25.5301L124.141 25.5565C125.058 25.5812 125.145 25.5975 125.456 25.8032C125.989 26.1566 126.273 26.6412 127.227 28.8315C127.722 29.9678 128.168 30.913 128.218 30.9321C128.268 30.9513 128.669 30.9566 129.109 30.944L129.909 30.9211L129.08 29.1683C127.762 26.3802 127.649 26.1583 127.384 25.8251C127.246 25.6515 127.011 25.4223 126.861 25.3159L126.589 25.1223L127.093 24.946C128.034 24.6173 128.663 24.0558 129.074 23.1766C129.875 21.4645 129.302 19.4219 127.807 18.665C126.92 18.2157 126.724 18.1885 124.135 18.1526L121.724 18.1193V24.5402ZM126.516 19.68C127.042 19.8728 127.487 20.2849 127.698 20.7753C127.849 21.1268 127.873 21.2963 127.844 21.8415C127.802 22.6458 127.524 23.2015 126.941 23.646C126.356 24.092 125.824 24.2019 124.394 24.173L123.199 24.1488L123.177 21.9189C123.166 20.6926 123.175 19.6399 123.198 19.5798C123.263 19.4115 126.009 19.4945 126.516 19.68ZM114.236 20.333C114.322 20.635 114.817 22.0294 115.337 23.4317L116.282 25.9813L114.091 26.0025C112.886 26.0141 111.887 26.0106 111.871 25.9946C111.855 25.9786 112.307 24.6885 112.875 23.1278C113.443 21.567 113.932 20.1616 113.961 20.0047C113.991 19.8478 114.029 19.7339 114.047 19.7516C114.065 19.7693 114.15 20.031 114.236 20.333ZM103.056 34.995C102.965 35.086 102.992 38.0069 103.088 38.4664C103.34 39.6674 104.293 40.6419 105.487 40.9172C105.675 40.9606 106.591 40.997 107.522 40.9981L109.215 41V40.2431V39.4862L107.761 39.4857C106.961 39.4855 106.173 39.4482 106.01 39.4028C105.589 39.286 105.075 38.8685 104.794 38.4145L104.554 38.0255L104.514 36.505L104.474 34.9846L103.793 34.9618C103.418 34.9493 103.087 34.9642 103.056 34.995ZM134.473 36.329C134.473 37.854 134.411 38.1644 134.002 38.6807C133.873 38.8434 133.577 39.0821 133.344 39.2114C132.92 39.4461 132.918 39.4463 131.346 39.4722L129.772 39.4981V40.2142V40.9304L131.744 40.9054L133.716 40.8805L134.193 40.6462C134.828 40.3345 135.379 39.769 135.693 39.107L135.947 38.5699L135.974 36.7573L136 34.9447H135.237H134.473V36.329Z" fill="white"/>
</svg>
