<svg width="221" height="185" viewBox="0 0 221 185" fill="none" xmlns="http://www.w3.org/2000/svg">
<g opacity="0.8" filter="url(#filter0_d)">
<g clip-path="url(#clip0)">
<path d="M152.026 117.705L150.345 116.274C149.891 115.891 149.39 115.567 148.854 115.309L153.16 110.234C153.743 109.547 154.186 108.753 154.462 107.895C154.739 107.037 154.843 106.133 154.77 105.235C154.696 104.337 154.447 103.462 154.035 102.66C153.623 101.858 153.057 101.146 152.37 100.563L150.426 98.9095C150.143 98.6607 149.841 98.435 149.522 98.2346L152.896 94.1852C153.478 93.508 153.918 92.7222 154.194 91.8734C154.469 91.0246 154.573 90.1297 154.501 89.2403C154.428 88.3509 154.179 87.4848 153.77 86.6921C153.36 85.8994 152.797 85.1958 152.114 84.6221L150.089 82.9079C149.687 82.5723 149.248 82.2847 148.78 82.0507L152.896 77.1848C153.478 76.5075 153.918 75.7218 154.194 74.873C154.469 74.0242 154.573 73.1292 154.501 72.2398C154.428 71.3505 154.179 70.4844 153.77 69.6917C153.36 68.899 152.797 68.1954 152.114 67.6216L150.089 65.9074C149.6 65.4925 149.055 65.1494 148.469 64.8883V16.7823C148.467 14.9761 147.751 13.244 146.476 11.9643C145.202 10.6846 143.473 9.96131 141.666 9.95239L80.3527 9.95239C78.5442 9.95775 76.8115 10.6795 75.5339 11.9595C74.2564 13.2396 73.5381 14.9738 73.5363 16.7823V73.4729C73.2866 73.2704 73.0436 73.0612 72.7737 72.879C71.5 71.9994 69.9887 71.5286 68.4409 71.5292C67.2509 71.5309 66.0774 71.8081 65.0125 72.3391C63.7389 72.9696 62.6674 73.9442 61.9195 75.1526C61.1716 76.3609 60.7771 77.7546 60.7809 79.1757V79.8506C60.7816 80.212 60.8087 80.5729 60.8619 80.9304L62.4411 91.9986C62.872 95.0159 62.9626 98.0721 62.7111 101.11L61.6583 113.73C61.5908 114.587 61.557 115.431 61.557 116.227C61.5525 120.807 62.4492 125.343 64.1958 129.576L66.0383 134.024C66.2632 134.566 66.3595 135.153 66.3197 135.738C66.2799 136.324 66.1051 136.892 65.8088 137.398L61.827 144.221C61.6976 144.443 61.6138 144.689 61.5805 144.943C61.5472 145.198 61.5649 145.456 61.6328 145.704C61.7007 145.952 61.8173 146.183 61.9758 146.385C62.1343 146.587 62.3315 146.756 62.5559 146.881L102.739 169.294C103.141 169.518 103.611 169.591 104.063 169.5C104.515 169.408 104.919 169.158 105.202 168.794L109.501 163.267C109.981 162.645 110.645 162.189 111.398 161.964L111.978 161.789C120.014 159.31 127.131 154.499 132.427 147.967L142.159 135.947C142.307 135.947 142.456 135.947 142.598 135.947C143.626 135.948 144.643 135.723 145.575 135.29C146.508 134.856 147.334 134.224 147.997 133.437L152.883 127.68C154.1 126.245 154.698 124.385 154.545 122.51C154.391 120.635 153.5 118.897 152.066 117.678L152.026 117.705ZM77.4034 16.7823C77.4052 15.9994 77.716 15.2488 78.2684 14.694C78.8207 14.1391 79.5698 13.8248 80.3527 13.8195H141.66C142.446 13.8213 143.2 14.1349 143.755 14.6916C144.31 15.2483 144.622 16.0026 144.622 16.789V64.4429L144.339 64.5036H144.184C143.925 64.563 143.671 64.6374 143.421 64.7264H143.354C143.124 64.8109 142.898 64.9078 142.679 65.0166L142.523 65.0975C142.291 65.2194 142.066 65.3546 141.849 65.5025H141.815C141.613 65.6447 141.419 65.7979 141.234 65.9614L141.086 66.0896C140.89 66.2696 140.705 66.4612 140.533 66.6633L136.314 71.6372C135.295 72.8323 134.725 74.3455 134.701 75.916C134.701 76.141 134.701 76.3659 134.701 76.5909C134.774 77.4762 135.021 78.3386 135.427 79.1284C135.834 79.9183 136.392 80.6201 137.07 81.1936L139.095 82.9281C139.252 83.0631 139.414 83.1891 139.581 83.306L139.669 83.36L139.851 83.4748L140.094 83.63L140.283 83.7245L140.391 83.792L136.281 88.6377C135.119 90.0109 134.549 91.7885 134.696 93.581C134.843 95.3735 135.694 97.0348 137.064 98.2008L139.088 99.9218C139.338 100.131 139.601 100.323 139.878 100.495L139.932 100.536L136.368 104.889C135.195 106.277 134.618 108.073 134.763 109.885C134.909 111.696 135.765 113.377 137.145 114.56L139.088 116.207C139.48 116.537 139.908 116.823 140.364 117.057L135.478 122.821C134.495 123.981 133.91 125.426 133.809 126.943C133.708 128.46 134.097 129.97 134.917 131.25H80.3527C79.5663 131.248 78.8127 130.935 78.2573 130.378C77.7019 129.821 77.3899 129.067 77.3899 128.281V16.7823H77.4034Z" fill="white"/>
</g>
<g clip-path="url(#clip1)">
<path d="M25.5731 51.4631L60.7809 51.4631L60.7809 45.3655L25.5731 45.3655L25.5731 36.2191L13.8762 48.4143L25.5731 60.6096L25.5731 51.4631Z" fill="white"/>
</g>
<path d="M197.303 45.3655H162.095V51.4631H197.303V60.6096L209 48.4143L197.303 36.2191V45.3655Z" fill="white"/>
</g>
<defs>
<filter id="filter0_d" x="0" y="0.952393" width="221" height="183.274" filterUnits="userSpaceOnUse" color-interpolation-filters="sRGB">
<feFlood flood-opacity="0" result="BackgroundImageFix"/>
<feColorMatrix in="SourceAlpha" type="matrix" values="0 0 0 0 0 0 0 0 0 0 0 0 0 0 0 0 0 0 127 0"/>
<feOffset dy="3"/>
<feGaussianBlur stdDeviation="6"/>
<feColorMatrix type="matrix" values="0 0 0 0 0 0 0 0 0 0 0 0 0 0 0 0 0 0 0.07 0"/>
<feBlend mode="normal" in2="BackgroundImageFix" result="effect1_dropShadow"/>
<feBlend mode="normal" in="SourceGraphic" in2="effect1_dropShadow" result="shape"/>
</filter>
<clipPath id="clip0">
<rect width="93.8095" height="159.274" fill="white" transform="translate(60.7809 9.95239)"/>
</clipPath>
<clipPath id="clip1">
<rect width="52.5333" height="45.0286" fill="white" transform="translate(64.5333 75.6191) rotate(-180)"/>
</clipPath>
</defs>
</svg>
