<svg width="221" height="300" viewBox="0 0 221 300" fill="none" xmlns="http://www.w3.org/2000/svg">
<g opacity="0.8" filter="url(#filter0_d)">
<g clip-path="url(#clip0)">
<path d="M152.026 178.705L150.345 177.274C149.891 176.891 149.39 176.567 148.854 176.309L153.16 171.234C153.743 170.547 154.186 169.753 154.462 168.895C154.739 168.037 154.843 167.133 154.77 166.235C154.696 165.337 154.447 164.462 154.035 163.66C153.623 162.858 153.057 162.146 152.37 161.563L150.426 159.909C150.143 159.661 149.841 159.435 149.522 159.235L152.896 155.185C153.478 154.508 153.918 153.722 154.194 152.873C154.469 152.025 154.573 151.13 154.501 150.24C154.428 149.351 154.179 148.485 153.77 147.692C153.36 146.899 152.797 146.196 152.114 145.622L150.089 143.908C149.687 143.572 149.248 143.285 148.78 143.051L152.896 138.185C153.478 137.508 153.918 136.722 154.194 135.873C154.469 135.024 154.573 134.129 154.501 133.24C154.428 132.35 154.179 131.484 153.77 130.692C153.36 129.899 152.797 129.195 152.114 128.622L150.089 126.907C149.6 126.493 149.055 126.149 148.469 125.888V77.7823C148.467 75.9761 147.751 74.244 146.476 72.9643C145.202 71.6846 143.473 70.9613 141.666 70.9524H80.3527C78.5442 70.9577 76.8115 71.6795 75.5339 72.9595C74.2564 74.2396 73.5381 75.9738 73.5363 77.7823V134.473C73.2866 134.27 73.0436 134.061 72.7737 133.879C71.5 132.999 69.9887 132.529 68.4409 132.529C67.2509 132.531 66.0774 132.808 65.0125 133.339C63.7389 133.97 62.6674 134.944 61.9195 136.153C61.1716 137.361 60.7771 138.755 60.7809 140.176V140.851C60.7816 141.212 60.8087 141.573 60.8619 141.93L62.4411 152.999C62.872 156.016 62.9626 159.072 62.7111 162.11L61.6583 174.73C61.5908 175.587 61.557 176.431 61.557 177.227C61.5525 181.807 62.4492 186.343 64.1958 190.576L66.0383 195.024C66.2632 195.566 66.3595 196.153 66.3197 196.738C66.2799 197.324 66.1051 197.892 65.8088 198.398L61.827 205.221C61.6976 205.443 61.6138 205.689 61.5805 205.943C61.5472 206.198 61.5649 206.456 61.6328 206.704C61.7007 206.952 61.8173 207.183 61.9758 207.385C62.1343 207.587 62.3315 207.756 62.5559 207.881L102.739 230.294C103.141 230.518 103.611 230.591 104.063 230.5C104.515 230.408 104.919 230.158 105.202 229.794L109.501 224.267C109.981 223.645 110.645 223.189 111.398 222.964L111.978 222.789C120.014 220.31 127.131 215.499 132.427 208.967L142.159 196.947C142.307 196.947 142.456 196.947 142.598 196.947C143.626 196.948 144.643 196.723 145.575 196.29C146.508 195.856 147.334 195.224 147.997 194.437L152.883 188.68C154.1 187.245 154.698 185.385 154.545 183.51C154.391 181.635 153.5 179.897 152.066 178.678L152.026 178.705ZM77.4034 77.7823C77.4052 76.9994 77.716 76.2488 78.2684 75.694C78.8207 75.1391 79.5698 74.8248 80.3527 74.8195H141.66C142.446 74.8213 143.2 75.1349 143.755 75.6916C144.31 76.2483 144.622 77.0026 144.622 77.789V125.443L144.339 125.504H144.184C143.925 125.563 143.671 125.637 143.421 125.726H143.354C143.124 125.811 142.898 125.908 142.679 126.017L142.523 126.098C142.291 126.219 142.066 126.355 141.849 126.502H141.815C141.613 126.645 141.419 126.798 141.234 126.961L141.086 127.09C140.89 127.27 140.705 127.461 140.533 127.663L136.314 132.637C135.295 133.832 134.725 135.345 134.701 136.916C134.701 137.141 134.701 137.366 134.701 137.591C134.774 138.476 135.021 139.339 135.427 140.128C135.834 140.918 136.392 141.62 137.07 142.194L139.095 143.928C139.252 144.063 139.414 144.189 139.581 144.306L139.669 144.36L139.851 144.475L140.094 144.63L140.283 144.724L140.391 144.792L136.281 149.638C135.119 151.011 134.549 152.788 134.696 154.581C134.843 156.374 135.694 158.035 137.064 159.201L139.088 160.922C139.338 161.131 139.601 161.323 139.878 161.495L139.932 161.536L136.368 165.889C135.195 167.277 134.618 169.073 134.763 170.885C134.909 172.696 135.765 174.377 137.145 175.56L139.088 177.207C139.48 177.537 139.908 177.823 140.364 178.057L135.478 183.821C134.495 184.981 133.91 186.426 133.809 187.943C133.708 189.46 134.097 190.97 134.917 192.25H80.3527C79.5663 192.248 78.8127 191.935 78.2573 191.378C77.7019 190.821 77.3899 190.067 77.3899 189.281V77.7823H77.4034Z" fill="white"/>
</g>
<g clip-path="url(#clip1)">
<path d="M25.5731 112.463L60.7809 112.463L60.7809 106.366L25.5731 106.366L25.5731 97.2191L13.8762 109.414L25.5731 121.61L25.5731 112.463Z" fill="white"/>
</g>
<path d="M197.303 106.366H162.095V112.463H197.303V121.61L209 109.414L197.303 97.2191V106.366Z" fill="white"/>
<g clip-path="url(#clip2)">
<path d="M110.734 270.451L110.734 235.243L104.637 235.243L104.637 270.451L95.4904 270.451L107.686 282.148L119.881 270.451L110.734 270.451Z" fill="white"/>
</g>
<path d="M104.637 21.673V56.8809H110.735V21.673H119.881L107.686 9.97612L95.4905 21.673H104.637Z" fill="white"/>
</g>
<defs>
<filter id="filter0_d" x="0" y="0.976135" width="221" height="298.048" filterUnits="userSpaceOnUse" color-interpolation-filters="sRGB">
<feFlood flood-opacity="0" result="BackgroundImageFix"/>
<feColorMatrix in="SourceAlpha" type="matrix" values="0 0 0 0 0 0 0 0 0 0 0 0 0 0 0 0 0 0 127 0"/>
<feOffset dy="3"/>
<feGaussianBlur stdDeviation="6"/>
<feColorMatrix type="matrix" values="0 0 0 0 0 0 0 0 0 0 0 0 0 0 0 0 0 0 0.07 0"/>
<feBlend mode="normal" in2="BackgroundImageFix" result="effect1_dropShadow"/>
<feBlend mode="normal" in="SourceGraphic" in2="effect1_dropShadow" result="shape"/>
</filter>
<clipPath id="clip0">
<rect width="93.8095" height="159.274" fill="white" transform="translate(60.7809 70.9524)"/>
</clipPath>
<clipPath id="clip1">
<rect width="52.5333" height="45.0286" fill="white" transform="translate(64.5333 136.619) rotate(-180)"/>
</clipPath>
<clipPath id="clip2">
<rect width="52.5333" height="45.0286" fill="white" transform="translate(134.89 231.491) rotate(90)"/>
</clipPath>
</defs>
</svg>
