<svg width="335" height="235" viewBox="0 0 335 235" fill="none" xmlns="http://www.w3.org/2000/svg">
<path d="M276 32C275.448 32 275 32.4477 275 33C275 33.5523 275.448 34 276 34V32ZM302 34C302.552 34 303 33.5523 303 33C303 32.4477 302.552 32 302 32V34ZM302 146C302.552 146 303 145.552 303 145C303 144.448 302.552 144 302 144V146ZM276 144C275.448 144 275 144.448 275 145C275 145.552 275.448 146 276 146V144ZM297.125 33.2534L291.351 43.2534H302.899L297.125 33.2534ZM297.125 144.747L302.899 134.747H291.351L297.125 144.747ZM276 34H297.125V32H276V34ZM297.125 34H302V32H297.125V34ZM302 144H297.125V146H302V144ZM297.125 144H276V146H297.125V144ZM296.125 42.2534V135.747H298.125V42.2534H296.125Z" fill="#DF661C"/>
<rect x="286.467" y="116.448" width="55" height="20" rx="10" transform="rotate(-90 286.467 116.448)" fill="#313131"/>
<path d="M300.467 106.649V103.862C300.467 102.171 299.626 101.408 298.51 101.408C297.385 101.408 296.749 102.196 296.71 102.917H296.639C296.469 102.249 296.014 101.692 295.105 101.692C294.029 101.692 293.194 102.438 293.194 103.986V106.649H300.467ZM299.526 105.552H297.197V103.929C297.197 103.048 297.765 102.498 298.457 102.498C299.068 102.498 299.526 102.913 299.526 103.968V105.552ZM296.341 105.552H294.128V104.053C294.128 103.183 294.586 102.768 295.19 102.768C295.893 102.768 296.341 103.343 296.341 104.082V105.552ZM296.888 99.151H295.013V100.191H300.467V97.8087C300.467 96.4735 299.693 95.7277 298.667 95.7277C297.619 95.7277 296.888 96.4735 296.888 97.8087V99.151ZM300.467 94.9536V93.8918H295.013V94.9536H300.467ZM297.804 99.151V97.8087C297.804 97.1979 298.173 96.7611 298.699 96.7611C299.196 96.7611 299.551 97.1979 299.551 97.8087V99.151H297.804ZM300.577 90.1693C300.577 88.8802 299.803 88.0457 298.741 87.9285V88.9619C299.331 89.0969 299.679 89.555 299.679 90.1622C299.679 91.0606 298.93 91.6395 297.74 91.6395C296.572 91.6395 295.836 91.05 295.836 90.1622C295.836 89.4875 296.263 89.0756 296.774 88.9619V87.9285C295.673 88.0422 294.942 88.9406 294.942 90.18C294.942 91.7176 296.099 92.7119 297.765 92.7119C299.409 92.7119 300.577 91.7531 300.577 90.1693ZM300.577 84.4955C300.577 82.9578 299.452 81.9529 297.765 81.9529C296.067 81.9529 294.942 82.9578 294.942 84.4955C294.942 86.0331 296.067 87.0381 297.765 87.0381C299.452 87.0381 300.577 86.0331 300.577 84.4955ZM299.686 84.4919C299.686 85.4969 298.809 85.9656 297.761 85.9656C296.717 85.9656 295.829 85.4969 295.829 84.4919C295.829 83.4941 296.717 83.0253 297.761 83.0253C298.809 83.0253 299.686 83.4941 299.686 84.4919ZM295.929 81.4246V79.6384H300.467V78.6015H295.929V76.8224H295.013V81.4246H295.929ZM300.588 74.3659C300.588 73.4639 300.13 72.9561 299.721 72.7536V72.711H300.467V71.6741H296.845C295.258 71.6741 294.942 72.9241 294.942 73.7906C294.942 74.7778 295.339 75.6869 296.334 76.042L296.561 75.0441C296.174 74.8879 295.801 74.4901 295.801 73.7764C295.801 73.091 296.16 72.7394 296.778 72.7394H296.802C297.189 72.7394 297.182 73.1372 297.296 74.1173C297.417 75.1507 297.687 76.2089 298.926 76.2089C299.998 76.2089 300.588 75.4028 300.588 74.3659ZM299.736 74.135C299.736 74.7352 299.466 75.1684 298.94 75.1684C298.372 75.1684 298.17 74.6642 298.088 74.0498C298.042 73.7053 297.949 72.8886 297.797 72.7359H298.5C299.146 72.7359 299.736 73.2508 299.736 74.135Z" fill="white"/>
<rect x="286.467" y="116.448" width="55" height="20" rx="10" transform="rotate(-90 286.467 116.448)" stroke="#DF661C" stroke-width="2"/>
<path d="M27 168.233H223.882" stroke="url(#paint0_linear)" stroke-linejoin="round"/>
<path d="M27 168.233H223.882" stroke="url(#paint1_linear)" stroke-linejoin="round"/>
<path d="M27 168.076H223.902V55.8486H27V168.076Z" stroke="url(#paint2_linear)" stroke-linejoin="round"/>
<path d="M35.0643 163.372H215.838V60.553H35.0643V163.372Z" stroke="url(#paint3_linear)" stroke-linejoin="round"/>
<path d="M275.648 145.564L223.902 168.076V55.8487L275.648 33.3359V145.564Z" stroke="url(#paint4_linear)" stroke-linejoin="round"/>
<path d="M35.0643 90.7939H215.838" stroke="url(#paint5_linear)" stroke-linejoin="round"/>
<path d="M275.648 145.384L223.882 168.233V136.491" stroke="url(#paint6_linear)" stroke-linejoin="round"/>
<path d="M35.0643 136.491H215.838" stroke="url(#paint7_linear)" stroke-linejoin="round"/>
<path d="M27 56.0053H223.882L275.964 33H79.0817L27 56.0053Z" stroke="url(#paint8_linear)" stroke-linejoin="round"/>
<circle cx="64.9692" cy="75.6734" r="3.19612" stroke="white"/>
<circle cx="64.9692" cy="113.307" r="3.19612" stroke="white"/>
<circle cx="64.9692" cy="150.268" r="3.19612" stroke="white"/>
<circle cx="181.901" cy="75.6734" r="3.19612" stroke="white"/>
<circle cx="181.901" cy="113.307" r="3.19612" stroke="white"/>
<circle cx="181.901" cy="150.268" r="3.19612" stroke="white"/>
<path d="M278.134 144.321C277.912 143.815 277.322 143.585 276.816 143.806C276.31 144.028 276.08 144.618 276.302 145.124L278.134 144.321ZM286.821 169.111C287.043 169.617 287.633 169.847 288.139 169.625C288.644 169.403 288.875 168.813 288.653 168.308L286.821 169.111ZM234.575 192.022C234.797 192.528 235.387 192.758 235.893 192.537C236.398 192.315 236.629 191.725 236.407 191.219L234.575 192.022ZM225.888 167.232C225.666 166.726 225.076 166.496 224.57 166.718C224.064 166.94 223.834 167.529 224.056 168.035L225.888 167.232ZM286.514 166.564L275.038 165.293L279.675 175.868L286.514 166.564ZM234.505 189.372L245.982 190.643L241.344 180.068L234.505 189.372ZM276.302 145.124L284.849 164.613L286.68 163.81L278.134 144.321L276.302 145.124ZM284.849 164.613L286.821 169.111L288.653 168.308L286.68 163.81L284.849 164.613ZM236.407 191.219L234.434 186.722L232.603 187.525L234.575 192.022L236.407 191.219ZM234.434 186.722L225.888 167.232L224.056 168.035L232.603 187.525L234.434 186.722ZM277.87 169.263L242.345 184.842L243.149 186.673L278.674 171.094L277.87 169.263Z" fill="#DF661C"/>
<rect x="230.502" y="183.116" width="59" height="20" rx="10" transform="rotate(-23.679 230.502 183.116)" fill="#313131"/>
<path d="M246.331 183.52L242.178 185.341L245.099 192.002L246.104 191.561L243.562 185.765L246.71 184.385L246.331 183.52ZM249.913 189.89L250.225 189.754C251.314 189.276 251.361 188.294 250.714 186.607L250.048 184.876L251.68 184.16L253.503 188.316L254.456 187.898L252.265 182.903L248.779 184.432L249.661 186.682C250.275 188.25 250.275 188.727 249.719 188.971L249.54 189.05L249.913 189.89ZM257.01 189.012C257.813 188.659 258.137 188.017 258.081 187.103L257.667 180.545L256.613 180.996L257.048 185.428L256.996 185.45L254.03 182.129L252.99 182.585L257.037 186.844L257.062 187.228C257.105 188 256.782 188.208 256.184 188.296L256.299 189.195C256.439 189.196 256.717 189.14 257.01 189.012ZM261.617 176.584C261.459 176.886 261.088 177.048 260.57 177.272C260.417 177.339 260.251 177.411 260.07 177.495C258.465 178.237 258.15 179.748 259.152 182.031L259.368 182.525C260.173 184.36 261.507 184.926 262.902 184.314C264.297 183.703 264.776 182.337 264.095 180.782C263.422 179.247 262.161 178.788 260.958 179.316C260.233 179.634 259.763 180.208 259.709 180.968L259.647 180.995C259.203 179.682 259.403 178.846 260.468 178.34C261.415 177.89 262.024 177.627 262.29 177.021L261.617 176.584ZM262.547 183.497C261.721 183.859 260.928 183.42 260.476 182.389C260.045 181.372 260.289 180.575 261.099 180.219C261.921 179.859 262.676 180.218 263.12 181.229C263.573 182.264 263.36 183.14 262.547 183.497ZM266.599 180.948L265.006 177.316L264.053 177.734L266.243 182.729L267.3 182.265L267.898 177.668L269.492 181.304L270.445 180.886L268.255 175.891L267.207 176.35L266.599 180.948ZM270.515 174.9L269.562 175.318L271.753 180.313L272.705 179.895L271.796 177.82L273.958 176.872L274.868 178.947L275.818 178.53L273.627 173.535L272.678 173.951L273.589 176.029L271.426 176.978L270.515 174.9ZM278.621 177.433C279.447 177.071 279.728 176.447 279.749 175.992L279.788 175.975L280.088 176.658L281.037 176.241L279.583 172.924C278.945 171.47 277.674 171.683 276.88 172.031C275.976 172.427 275.303 173.157 275.377 174.21L276.382 174.017C276.37 173.6 276.585 173.099 277.238 172.812C277.866 172.537 278.332 172.724 278.58 173.29L278.59 173.313C278.745 173.667 278.378 173.821 277.526 174.318C276.629 174.844 275.768 175.516 276.266 176.651C276.696 177.633 277.671 177.849 278.621 177.433ZM278.49 176.56C277.94 176.801 277.435 176.727 277.224 176.246C276.996 175.726 277.376 175.338 277.906 175.016C278.203 174.836 278.914 174.423 278.993 174.222L279.275 174.866C279.535 175.458 279.3 176.204 278.49 176.56Z" fill="white"/>
<rect x="230.502" y="183.116" width="59" height="20" rx="10" transform="rotate(-23.679 230.502 183.116)" stroke="#DF661C" stroke-width="2"/>
<path d="M225 168.969C225 168.417 224.552 167.969 224 167.969C223.448 167.969 223 168.417 223 168.969H225ZM223 194.988C223 195.54 223.448 195.988 224 195.988C224.552 195.988 225 195.54 225 194.988H223ZM26 194.988C26 195.54 26.4477 195.988 27 195.988C27.5523 195.988 28 195.54 28 194.988H26ZM28 168.969C28 168.417 27.5523 167.969 27 167.969C26.4477 167.969 26 168.417 26 168.969H28ZM223.554 190.109L213.554 184.336V195.883L223.554 190.109ZM27.4457 190.109L37.4457 195.883V184.336L27.4457 190.109ZM223 168.969V190.109H225V168.969H223ZM223 190.109V194.988H225V190.109H223ZM28 194.988V190.109H26V194.988H28ZM28 190.109V168.969H26V190.109H28ZM214.554 189.109H36.4457V191.109H214.554V189.109Z" fill="#DF661C"/>
<rect x="98.0986" y="180.437" width="59.2532" height="20" rx="10" fill="#313131"/>
<path d="M108.194 187.164V194.437H116.244V187.164H115.161V193.485H112.768V187.164H111.681V193.485H109.28V187.164H108.194ZM118.897 192.949V188.982H117.856V194.437H119.01L121.404 190.466V194.437H122.444V188.982H121.301L118.897 192.949ZM123.872 196.482H124.934V193.588H124.998C125.189 193.936 125.58 194.543 126.574 194.543C127.895 194.543 128.854 193.485 128.854 191.72C128.854 189.951 127.881 188.911 126.564 188.911C125.552 188.911 125.186 189.529 124.998 189.866H124.909V188.982H123.872V196.482ZM124.912 191.709C124.912 190.569 125.41 189.813 126.336 189.813C127.299 189.813 127.782 190.626 127.782 191.709C127.782 192.803 127.285 193.638 126.336 193.638C125.424 193.638 124.912 192.856 124.912 191.709ZM131.084 192.949V188.982H130.044V194.437H131.198L133.591 190.466V194.437H134.632V188.982H133.488L131.084 192.949ZM137.1 188.982H136.059V194.437H137.1V192.171H139.461V194.437H140.498V188.982H139.461V191.251H137.1V188.982ZM143.506 194.557C144.408 194.557 144.916 194.099 145.118 193.691H145.161V194.437H146.198V190.814C146.198 189.227 144.948 188.911 144.081 188.911C143.094 188.911 142.185 189.309 141.83 190.303L142.828 190.53C142.984 190.143 143.382 189.77 144.096 189.77C144.781 189.77 145.133 190.129 145.133 190.747V190.772C145.133 191.159 144.735 191.152 143.755 191.265C142.721 191.386 141.663 191.656 141.663 192.895C141.663 193.968 142.469 194.557 143.506 194.557ZM143.737 193.705C143.137 193.705 142.704 193.435 142.704 192.91C142.704 192.341 143.208 192.139 143.822 192.057C144.167 192.011 144.983 191.919 145.136 191.766V192.469C145.136 193.116 144.621 193.705 143.737 193.705Z" fill="white"/>
<rect x="98.0986" y="180.437" width="59.2532" height="20" rx="10" stroke="#DF661C" stroke-width="2"/>
<defs>
<linearGradient id="paint0_linear" x1="156.68" y1="168.233" x2="19.5562" y2="198.777" gradientUnits="userSpaceOnUse">
<stop stop-color="white"/>
<stop offset="1" stop-color="white" stop-opacity="0.29"/>
</linearGradient>
<linearGradient id="paint1_linear" x1="156.68" y1="168.233" x2="19.5562" y2="198.777" gradientUnits="userSpaceOnUse">
<stop stop-color="white"/>
<stop offset="1" stop-color="white" stop-opacity="0.29"/>
</linearGradient>
<linearGradient id="paint2_linear" x1="156.693" y1="168.077" x2="14.0054" y2="181.455" gradientUnits="userSpaceOnUse">
<stop stop-color="white"/>
<stop offset="1" stop-color="white" stop-opacity="0.29"/>
</linearGradient>
<linearGradient id="paint3_linear" x1="154.134" y1="163.373" x2="23.1389" y2="175.68" gradientUnits="userSpaceOnUse">
<stop stop-color="white"/>
<stop offset="1" stop-color="white" stop-opacity="0.29"/>
</linearGradient>
<linearGradient id="paint4_linear" x1="241.565" y1="168.076" x2="279.37" y2="169.008" gradientUnits="userSpaceOnUse">
<stop stop-color="white"/>
<stop offset="1" stop-color="white" stop-opacity="0.29"/>
</linearGradient>
<linearGradient id="paint5_linear" x1="154.134" y1="90.7941" x2="26.3912" y2="114.526" gradientUnits="userSpaceOnUse">
<stop stop-color="white"/>
<stop offset="1" stop-color="white" stop-opacity="0.29"/>
</linearGradient>
<linearGradient id="paint6_linear" x1="156.68" y1="168.233" x2="27" y2="211.217" gradientUnits="userSpaceOnUse">
<stop stop-color="white"/>
<stop offset="1" stop-color="white" stop-opacity="0.29"/>
</linearGradient>
<linearGradient id="paint7_linear" x1="154.134" y1="136.491" x2="27.2885" y2="162.434" gradientUnits="userSpaceOnUse">
<stop stop-color="white"/>
<stop offset="1" stop-color="white" stop-opacity="0.29"/>
</linearGradient>
<linearGradient id="paint8_linear" x1="156.68" y1="56.0053" x2="27" y2="98.989" gradientUnits="userSpaceOnUse">
<stop stop-color="white"/>
<stop offset="1" stop-color="white" stop-opacity="0.29"/>
</linearGradient>
</defs>
</svg>
