{
    "asset" : {
        "generator" : "Khronos glTF Blender I/O v1.5.17",
        "version" : "2.0"
    },
    "scene" : 0,
    "scenes" : [
        {
            "name" : "Scene",
            "nodes" : [
                3
            ]
        }
    ],
    "nodes" : [
        {
            "mesh" : 0,
            "name" : "Box001",
            "rotation" : [
                0,
                -1,
                0,
                7.549790126404332e-08
            ],
            "scale" : [
                1,
                0.6573740243911743,
                1
            ],
            "translation" : [
                0,
                131.4748077392578,
                -7.500004291534424
            ]
        },
        {
            "mesh" : 1,
            "name" : "Box002",
            "rotation" : [
                0,
                -1,
                0,
                7.549790126404332e-08
            ],
            "translation" : [
                2.384185791015625e-05,
                0,
                1032.5006103515625
            ]
        },
        {
            "mesh" : 2,
            "name" : "ChamferBox001",
            "rotation" : [
                0,
                -1,
                0,
                7.549790126404332e-08
            ],
            "translation" : [
                -5.000001907348633,
                250,
                -7.500003337860107
            ]
        },
        {
            "children" : [
                0,
                1,
                2
            ],
            "name" : "Group001",
            "rotation" : [
                0,
                1,
                0,
                -4.371138828673793e-08
            ],
            "scale" : [
                0.0010000000474974513,
                0.0010000000474974513,
                0.0010000000474974513
            ],
            "translation" : [
                0,
                0,
                -0.00750005105510354
            ]
        }
    ],
    "materials" : [
        {
            "doubleSided" : true,
            "name" : "08 - Default.001",
            "normalTexture" : {
                "index" : 0,
                "scale" : 0.30000001192092896
            },
            "pbrMetallicRoughness" : {
                "baseColorTexture" : {
                    "index" : 1
                },
                "roughnessFactor" : 0.858578622341156
            }
        },
        {
            "doubleSided" : true,
            "name" : "03 - Default.001",
            "pbrMetallicRoughness" : {
                "baseColorFactor" : [
                    0.9882352948188782,
                    0.9882352948188782,
                    0.9882352948188782,
                    1
                ],
                "roughnessFactor" : 0.858578622341156
            }
        }
    ],
    "meshes" : [
        {
            "name" : "\u041c\u0435\u0448.004",
            "primitives" : [
                {
                    "attributes" : {
                        "POSITION" : 0,
                        "NORMAL" : 1,
                        "TEXCOORD_0" : 2
                    },
                    "indices" : 3,
                    "material" : 0
                }
            ]
        },
        {
            "name" : "\u041c\u0435\u0448.005",
            "primitives" : [
                {
                    "attributes" : {
                        "POSITION" : 4,
                        "NORMAL" : 5,
                        "TEXCOORD_0" : 6
                    },
                    "indices" : 7,
                    "material" : 0
                }
            ]
        },
        {
            "name" : "\u041c\u0435\u0448.006",
            "primitives" : [
                {
                    "attributes" : {
                        "POSITION" : 8,
                        "NORMAL" : 9,
                        "TEXCOORD_0" : 10
                    },
                    "indices" : 11,
                    "material" : 1
                }
            ]
        }
    ],
    "textures" : [
        {
            "sampler" : 0,
            "source" : 0
        },
        {
            "sampler" : 0,
            "source" : 1
        }
    ],
    "images" : [
        {
            "bufferView" : 4,
            "mimeType" : "image/png",
            "name" : "imgonline-com-ua-Texture-seamless-fPIrQhbY0T1n_NormalMap"
        },
        {
            "bufferView" : 5,
            "mimeType" : "image/png",
            "name" : "imgonline-com-ua-Texture-seamless-fPIrQhbY0T1n"
        }
    ],
    "accessors" : [
        {
            "bufferView" : 0,
            "componentType" : 5126,
            "count" : 204,
            "max" : [
                835,
                400,
                1040
            ],
            "min" : [
                -835,
                -200,
                -1040
            ],
            "type" : "VEC3"
        },
        {
            "bufferView" : 1,
            "componentType" : 5126,
            "count" : 204,
            "type" : "VEC3"
        },
        {
            "bufferView" : 2,
            "componentType" : 5126,
            "count" : 204,
            "type" : "VEC2"
        },
        {
            "bufferView" : 3,
            "componentType" : 5123,
            "count" : 540,
            "type" : "SCALAR"
        },
        {
            "bufferView" : 6,
            "componentType" : 5126,
            "count" : 24,
            "max" : [
                835,
                924,
                15
            ],
            "min" : [
                -835,
                0,
                -15
            ],
            "type" : "VEC3"
        },
        {
            "bufferView" : 7,
            "componentType" : 5126,
            "count" : 24,
            "type" : "VEC3"
        },
        {
            "bufferView" : 8,
            "componentType" : 5126,
            "count" : 24,
            "type" : "VEC2"
        },
        {
            "bufferView" : 9,
            "componentType" : 5123,
            "count" : 36,
            "type" : "SCALAR"
        },
        {
            "bufferView" : 10,
            "componentType" : 5126,
            "count" : 138,
            "max" : [
                775,
                200,
                980
            ],
            "min" : [
                -775,
                0,
                -980
            ],
            "type" : "VEC3"
        },
        {
            "bufferView" : 11,
            "componentType" : 5126,
            "count" : 138,
            "type" : "VEC3"
        },
        {
            "bufferView" : 12,
            "componentType" : 5126,
            "count" : 138,
            "type" : "VEC2"
        },
        {
            "bufferView" : 13,
            "componentType" : 5123,
            "count" : 612,
            "type" : "SCALAR"
        }
    ],
    "bufferViews" : [
        {
            "buffer" : 0,
            "byteLength" : 2448,
            "byteOffset" : 0
        },
        {
            "buffer" : 0,
            "byteLength" : 2448,
            "byteOffset" : 2448
        },
        {
            "buffer" : 0,
            "byteLength" : 1632,
            "byteOffset" : 4896
        },
        {
            "buffer" : 0,
            "byteLength" : 1080,
            "byteOffset" : 6528
        },
        {
            "buffer" : 0,
            "byteLength" : 1781250,
            "byteOffset" : 7608
        },
        {
            "buffer" : 0,
            "byteLength" : 956599,
            "byteOffset" : 1788860
        },
        {
            "buffer" : 0,
            "byteLength" : 288,
            "byteOffset" : 2745460
        },
        {
            "buffer" : 0,
            "byteLength" : 288,
            "byteOffset" : 2745748
        },
        {
            "buffer" : 0,
            "byteLength" : 192,
            "byteOffset" : 2746036
        },
        {
            "buffer" : 0,
            "byteLength" : 72,
            "byteOffset" : 2746228
        },
        {
            "buffer" : 0,
            "byteLength" : 1656,
            "byteOffset" : 2746300
        },
        {
            "buffer" : 0,
            "byteLength" : 1656,
            "byteOffset" : 2747956
        },
        {
            "buffer" : 0,
            "byteLength" : 1104,
            "byteOffset" : 2749612
        },
        {
            "buffer" : 0,
            "byteLength" : 1224,
            "byteOffset" : 2750716
        }
    ],
    "samplers" : [
        {
            "magFilter" : 9729,
            "minFilter" : 9987
        }
    ],
    "buffers" : [
        {
            "byteLength" : 2751940,
            "uri" : "data:application/octet-stream;base64,"
        }
    ]
}
