<svg width="335" height="235" viewBox="0 0 335 235" fill="none" xmlns="http://www.w3.org/2000/svg">
<path d="M102.286 15.0897H282L202.714 71.3336H23L102.286 15.0897Z" stroke="url(#paint0_linear)" stroke-linejoin="round"/>
<g opacity="0.5">
<path d="M23 185.905H42.9999L43 87.238H23.0001L23 185.905Z" stroke="url(#paint1_linear)" stroke-linejoin="round"/>
<path d="M43 185.905L52.9999 178.905L53 87.238H43.0001L43 185.905Z" stroke="url(#paint2_linear)" stroke-linejoin="round"/>
</g>
<g opacity="0.4">
<path d="M183 185.905H203L203 87.238H183L183 185.905Z" stroke="url(#paint3_linear)" stroke-linejoin="round"/>
</g>
<g opacity="0.4">
<path d="M203.167 185.905L213.166 178.905L213.167 80.238L203.167 87.238L203.167 185.905Z" stroke="url(#paint4_linear)" stroke-linejoin="round"/>
</g>
<g opacity="0.4">
<path d="M272 37.5V137H252L252 51.9454" stroke="url(#paint5_linear)" stroke-linejoin="round"/>
<path d="M281.5 30V130.5L272.5 136.5V37.5" stroke="url(#paint6_linear)" stroke-linejoin="round"/>
</g>
<g opacity="0.5">
<path d="M91.4933 138H111.493L111.493 87.3044H91.4934L91.4933 138Z" stroke="url(#paint7_linear)" stroke-linejoin="round"/>
<path d="M111 138L121 129.518L121 87.3044H111L111 138Z" stroke="url(#paint8_linear)" stroke-linejoin="round"/>
</g>
<path d="M282 29.9763L202.714 87.2382H23" stroke="url(#paint9_linear)" stroke-linejoin="round"/>
<path d="M23 71.3336H202.842V87.3041H23V71.3336Z" stroke="url(#paint10_linear)" stroke-linejoin="round"/>
<path d="M102.286 15H282V29.9762" stroke="url(#paint11_linear)" stroke-linejoin="round"/>
<path d="M282 14C281.448 14 281 14.4477 281 15C281 15.5523 281.448 16 282 16V14ZM308 16C308.552 16 309 15.5523 309 15C309 14.4477 308.552 14 308 14V16ZM308 130C308.552 130 309 129.552 309 129C309 128.448 308.552 128 308 128V130ZM282 128C281.448 128 281 128.448 281 129C281 129.552 281.448 130 282 130V128ZM303.125 15.2579L297.351 25.2579H308.899L303.125 15.2579ZM303.125 128.742L308.899 118.742H297.351L303.125 128.742ZM282 16H303.125V14H282V16ZM303.125 16H308V14H303.125V16ZM308 128H303.125V130H308V128ZM303.125 128H282V130H303.125V128ZM302.125 24.2579V119.742H304.125V24.2579H302.125Z" fill="#DF661C"/>
<rect x="291.997" y="97.9419" width="47.5" height="20" rx="10" transform="rotate(-90 291.997 97.9419)" fill="#313131"/>
<path d="M304.997 91.1429V88.3552C304.997 86.6649 304.155 85.9014 303.04 85.9014C301.914 85.9014 301.279 86.6898 301.239 87.4106H301.168C300.998 86.743 300.543 86.1855 299.634 86.1855C298.558 86.1855 297.724 86.9312 297.724 88.4795V91.1429H304.997ZM304.056 90.0456H301.726V88.4227C301.726 87.542 302.294 86.9916 302.987 86.9916C303.597 86.9916 304.056 87.4071 304.056 88.4618V90.0456ZM300.87 90.0456H298.658V88.547C298.658 87.677 299.116 87.2615 299.72 87.2615C300.423 87.2615 300.87 87.8368 300.87 88.5754V90.0456ZM301.417 83.6447H299.542V84.6851H304.997V82.3023C304.997 80.9671 304.222 80.2214 303.196 80.2214C302.149 80.2214 301.417 80.9671 301.417 82.3023V83.6447ZM304.997 79.4472V78.3854H299.542V79.4472H304.997ZM302.333 83.6447V82.3023C302.333 81.6915 302.703 81.2547 303.228 81.2547C303.725 81.2547 304.08 81.6915 304.08 82.3023V83.6447H302.333ZM305.107 74.663C305.107 73.3739 304.333 72.5394 303.271 72.4222V73.4556C303.86 73.5905 304.208 74.0486 304.208 74.6559C304.208 75.5543 303.459 76.1331 302.269 76.1331C301.101 76.1331 300.366 75.5436 300.366 74.6559C300.366 73.9811 300.792 73.5692 301.303 73.4556V72.4222C300.203 72.5358 299.471 73.4343 299.471 74.6736C299.471 76.2112 300.629 77.2056 302.294 77.2056C303.938 77.2056 305.107 76.2468 305.107 74.663ZM305.107 68.9891C305.107 67.4515 303.981 66.4465 302.294 66.4465C300.597 66.4465 299.471 67.4515 299.471 68.9891C299.471 70.5268 300.597 71.5317 302.294 71.5317C303.981 71.5317 305.107 70.5268 305.107 68.9891ZM304.215 68.9856C304.215 69.9905 303.338 70.4593 302.291 70.4593C301.247 70.4593 300.359 69.9905 300.359 68.9856C300.359 67.9877 301.247 67.519 302.291 67.519C303.338 67.519 304.215 67.9877 304.215 68.9856ZM300.458 65.9183V64.1321H304.997V63.0951H300.458V61.316H299.542V65.9183H300.458ZM305.117 58.8595C305.117 57.9575 304.659 57.4497 304.251 57.2473V57.2047H304.997V56.1677H301.374C299.787 56.1677 299.471 57.4177 299.471 58.2842C299.471 59.2714 299.869 60.1805 300.863 60.5356L301.09 59.5378C300.703 59.3815 300.33 58.9838 300.33 58.27C300.33 57.5847 300.689 57.2331 301.307 57.2331H301.332C301.719 57.2331 301.712 57.6308 301.825 58.6109C301.946 59.6443 302.216 60.7025 303.455 60.7025C304.528 60.7025 305.117 59.8964 305.117 58.8595ZM304.265 58.6287C304.265 59.2288 303.995 59.6621 303.47 59.6621C302.901 59.6621 302.699 59.1578 302.617 58.5435C302.571 58.199 302.479 57.3822 302.326 57.2295H303.029C303.676 57.2295 304.265 57.7445 304.265 58.6287Z" fill="white"/>
<rect x="291.997" y="97.9419" width="47.5" height="20" rx="10" transform="rotate(-90 291.997 97.9419)" stroke="#DF661C" stroke-width="2"/>
<path d="M205 186.905C205 186.353 204.552 185.905 204 185.905C203.448 185.905 203 186.353 203 186.905H205ZM203 212.923C203 213.475 203.448 213.923 204 213.923C204.552 213.923 205 213.475 205 212.923H203ZM22 212.923C22 213.475 22.4477 213.923 23 213.923C23.5522 213.923 24 213.475 24 212.923H22ZM24 186.905C24 186.353 23.5522 185.905 23 185.905C22.4477 185.905 22 186.353 22 186.905H24ZM203.59 208.045L193.59 202.271V213.818L203.59 208.045ZM23.4095 208.045L33.4095 213.818V202.271L23.4095 208.045ZM203 186.905V208.045H205V186.905H203ZM203 208.045V212.923H205V208.045H203ZM24 212.923V208.045H22V212.923H24ZM24 208.045V186.905H22V208.045H24ZM194.59 207.045H32.4095V209.045H194.59V207.045Z" fill="#DF661C"/>
<rect x="81.0084" y="198.372" width="58" height="20" rx="10" fill="#313131"/>
<path d="M91.1035 205.099V212.372H99.1539V205.099H98.0708V211.42H95.6774V205.099H94.5907V211.42H92.1902V205.099H91.1035ZM101.807 210.884V206.918H100.766V212.372H101.92L104.314 208.402V212.372H105.354V206.918H104.211L101.807 210.884ZM106.782 214.418H107.844V211.523H107.907C108.099 211.871 108.49 212.479 109.484 212.479C110.805 212.479 111.764 211.42 111.764 209.655C111.764 207.887 110.791 206.847 109.474 206.847C108.461 206.847 108.096 207.464 107.907 207.802H107.819V206.918H106.782V214.418ZM107.822 209.645C107.822 208.505 108.319 207.748 109.246 207.748C110.209 207.748 110.692 208.562 110.692 209.645C110.692 210.739 110.194 211.573 109.246 211.573C108.334 211.573 107.822 210.792 107.822 209.645ZM113.994 210.884V206.918H112.954V212.372H114.108L116.501 208.402V212.372H117.542V206.918H116.398L113.994 210.884ZM120.01 206.918H118.969V212.372H120.01V210.106H122.371V212.372H123.408V206.918H122.371V209.187H120.01V206.918ZM126.416 212.493C127.318 212.493 127.826 212.035 128.028 211.626H128.071V212.372H129.108V208.75C129.108 207.163 127.858 206.847 126.991 206.847C126.004 206.847 125.095 207.244 124.74 208.239L125.738 208.466C125.894 208.079 126.292 207.706 127.005 207.706C127.691 207.706 128.042 208.065 128.042 208.682V208.707C128.042 209.094 127.645 209.087 126.665 209.201C125.631 209.322 124.573 209.592 124.573 210.831C124.573 211.903 125.379 212.493 126.416 212.493ZM126.647 211.641C126.047 211.641 125.613 211.371 125.613 210.845C125.613 210.277 126.118 210.074 126.732 209.993C127.077 209.947 127.893 209.854 128.046 209.702V210.405C128.046 211.051 127.531 211.641 126.647 211.641Z" fill="white"/>
<rect x="81.0084" y="198.372" width="58" height="20" rx="10" stroke="#DF661C" stroke-width="2"/>
<path d="M283.076 129.64C282.761 129.186 282.138 129.074 281.684 129.389C281.231 129.704 281.118 130.327 281.433 130.781L283.076 129.64ZM296.279 152.148C296.594 152.602 297.217 152.714 297.671 152.399C298.124 152.084 298.236 151.461 297.921 151.007L296.279 152.148ZM217.024 207.211C217.339 207.665 217.962 207.777 218.416 207.462C218.869 207.147 218.982 206.524 218.667 206.07L217.024 207.211ZM203.821 184.703C203.506 184.249 202.883 184.137 202.429 184.452C201.976 184.767 201.864 185.39 202.179 185.844L203.821 184.703ZM294.137 147.696L282.63 148.66L289.219 158.143L294.137 147.696ZM215.241 202.51L226.748 201.546L220.159 192.063L215.241 202.51ZM281.433 130.781L293.495 148.142L295.138 147.001L283.076 129.64L281.433 130.781ZM293.495 148.142L296.279 152.148L297.921 151.007L295.138 147.001L293.495 148.142ZM218.667 206.07L215.883 202.064L214.241 203.205L217.024 207.211L218.667 206.07ZM215.883 202.064L203.821 184.703L202.179 185.844L214.241 203.205L215.883 202.064ZM286.175 152.01L222.062 196.553L223.203 198.196L287.316 153.652L286.175 152.01Z" fill="#DF661C"/>
<rect x="224.571" y="185.055" width="59" height="20" rx="10" transform="rotate(-34.79 224.571 185.055)" fill="#313131"/>
<path d="M240.286 182.328L236.562 184.916L240.712 190.888L241.613 190.262L238.002 185.065L240.825 183.104L240.286 182.328ZM245.029 187.889L245.309 187.695C246.286 187.016 246.142 186.043 245.183 184.513L244.195 182.942L245.659 181.925L248.249 185.652L249.103 185.059L245.991 180.579L242.864 182.751L244.164 184.789C245.069 186.21 245.16 186.678 244.662 187.024L244.501 187.136L245.029 187.889ZM251.824 185.659C252.544 185.158 252.738 184.466 252.507 183.58L250.837 177.225L249.889 177.871L251.17 182.135L251.123 182.167L247.574 179.479L246.64 180.128L251.432 183.527L251.531 183.899C251.723 184.648 251.445 184.915 250.876 185.116L251.162 185.976C251.299 185.95 251.561 185.841 251.824 185.659ZM253.95 172.576C253.853 172.903 253.52 173.134 253.054 173.453C252.917 173.548 252.769 173.652 252.607 173.768C251.175 174.806 251.158 176.349 252.58 178.397L252.888 178.84C254.031 180.485 255.449 180.784 256.7 179.914C257.951 179.045 258.158 177.613 257.19 176.219C256.233 174.842 254.908 174.634 253.829 175.384C253.179 175.836 252.829 176.49 252.922 177.246L252.867 177.285C252.178 176.082 252.213 175.223 253.161 174.521C254.003 173.897 254.55 173.521 254.694 172.876L253.95 172.576ZM256.195 179.18C255.454 179.695 254.59 179.417 253.948 178.493C253.33 177.577 253.415 176.748 254.141 176.244C254.879 175.731 255.689 175.938 256.319 176.845C256.964 177.773 256.924 178.674 256.195 179.18ZM259.679 175.899L257.416 172.641L256.561 173.235L259.673 177.715L260.621 177.056L260.322 172.43L262.587 175.691L263.441 175.097L260.329 170.617L259.39 171.27L259.679 175.899ZM262.356 169.209L261.501 169.803L264.614 174.282L265.468 173.689L264.175 171.828L266.115 170.481L267.408 172.341L268.259 171.75L265.147 167.27L264.295 167.862L265.59 169.725L263.651 171.073L262.356 169.209ZM270.798 170.133C271.539 169.618 271.695 168.952 271.628 168.501L271.663 168.477L272.088 169.089L272.94 168.498L270.873 165.523C269.968 164.219 268.761 164.673 268.049 165.167C267.238 165.731 266.719 166.576 266.994 167.595L267.944 167.212C267.851 166.805 267.965 166.272 268.551 165.865C269.114 165.474 269.607 165.568 269.96 166.075L269.974 166.096C270.195 166.414 269.864 166.635 269.124 167.287C268.344 167.976 267.629 168.802 268.336 169.819C268.948 170.7 269.947 170.724 270.798 170.133ZM270.501 169.301C270.009 169.643 269.499 169.669 269.199 169.237C268.875 168.771 269.173 168.317 269.631 167.899C269.888 167.665 270.506 167.123 270.544 166.91L270.945 167.488C271.314 168.019 271.228 168.796 270.501 169.301Z" fill="white"/>
<rect x="224.571" y="185.055" width="59" height="20" rx="10" transform="rotate(-34.79 224.571 185.055)" stroke="#DF661C" stroke-width="2"/>
<defs>
<linearGradient id="paint0_linear" x1="71.6561" y1="28.8662" x2="448.43" y2="-355.535" gradientUnits="userSpaceOnUse">
<stop stop-color="white"/>
<stop offset="1" stop-color="white" stop-opacity="0"/>
</linearGradient>
<linearGradient id="paint1_linear" x1="26.7572" y1="111.406" x2="86.0166" y2="108.744" gradientUnits="userSpaceOnUse">
<stop stop-color="white"/>
<stop offset="1" stop-color="white" stop-opacity="0"/>
</linearGradient>
<linearGradient id="paint2_linear" x1="46.7572" y1="111.406" x2="106.017" y2="108.744" gradientUnits="userSpaceOnUse">
<stop stop-color="white"/>
<stop offset="1" stop-color="white" stop-opacity="0"/>
</linearGradient>
<linearGradient id="paint3_linear" x1="186.757" y1="111.406" x2="246.017" y2="108.744" gradientUnits="userSpaceOnUse">
<stop stop-color="white"/>
<stop offset="1" stop-color="white" stop-opacity="0"/>
</linearGradient>
<linearGradient id="paint4_linear" x1="206.924" y1="111.406" x2="266.183" y2="108.744" gradientUnits="userSpaceOnUse">
<stop stop-color="white"/>
<stop offset="1" stop-color="white" stop-opacity="0"/>
</linearGradient>
<linearGradient id="paint5_linear" x1="255.757" y1="48.4774" x2="315.017" y2="45.8161" gradientUnits="userSpaceOnUse">
<stop stop-color="white"/>
<stop offset="1" stop-color="white" stop-opacity="0"/>
</linearGradient>
<linearGradient id="paint6_linear" x1="276.257" y1="48.4773" x2="335.517" y2="45.816" gradientUnits="userSpaceOnUse">
<stop stop-color="white"/>
<stop offset="1" stop-color="white" stop-opacity="0"/>
</linearGradient>
<linearGradient id="paint7_linear" x1="95.2505" y1="99.7219" x2="154.179" y2="94.5712" gradientUnits="userSpaceOnUse">
<stop stop-color="white"/>
<stop offset="1" stop-color="white" stop-opacity="0"/>
</linearGradient>
<linearGradient id="paint8_linear" x1="114.757" y1="99.7219" x2="173.686" y2="94.5712" gradientUnits="userSpaceOnUse">
<stop stop-color="white"/>
<stop offset="1" stop-color="white" stop-opacity="0"/>
</linearGradient>
<linearGradient id="paint9_linear" x1="71.6561" y1="44.0021" x2="455.326" y2="-340.475" gradientUnits="userSpaceOnUse">
<stop stop-color="white"/>
<stop offset="1" stop-color="white" stop-opacity="0"/>
</linearGradient>
<linearGradient id="paint10_linear" x1="56.7853" y1="75.2455" x2="130.692" y2="-109.145" gradientUnits="userSpaceOnUse">
<stop stop-color="white"/>
<stop offset="1" stop-color="white" stop-opacity="0"/>
</linearGradient>
<linearGradient id="paint11_linear" x1="136.047" y1="18.6683" x2="202.177" y2="-157.147" gradientUnits="userSpaceOnUse">
<stop stop-color="white"/>
<stop offset="1" stop-color="white" stop-opacity="0"/>
</linearGradient>
</defs>
</svg>
