{
    "asset" : {
        "generator" : "Khronos glTF Blender I/O v1.5.17",
        "version" : "2.0"
    },
    "scene" : 0,
    "scenes" : [
        {
            "name" : "Scene",
            "nodes" : [
                0
            ]
        }
    ],
    "nodes" : [
        {
            "mesh" : 0,
            "name" : "coffee_table_anrex_olivia",
            "scale" : [
                0.0010000000474974513,
                0.0010000000474974513,
                0.0010000000474974513
            ]
        }
    ],
    "materials" : [
        {
            "doubleSided" : true,
            "name" : "wire_177148027",
            "pbrMetallicRoughness" : {}
        }
    ],
    "meshes" : [
        {
            "name" : "\u041c\u0435\u0448.010",
            "primitives" : [
                {
                    "attributes" : {
                        "POSITION" : 0,
                        "NORMAL" : 1,
                        "TEXCOORD_0" : 2
                    },
                    "indices" : 3,
                    "material" : 0
                }
            ]
        }
    ],
    "accessors" : [
        {
            "bufferView" : 0,
            "componentType" : 5126,
            "count" : 3116,
            "max" : [
                653.4058837890625,
                500.6971130371094,
                676.5609741210938
            ],
            "min" : [
                -446.5940856933594,
                0.6970000267028809,
                -22.121599197387695
            ],
            "type" : "VEC3"
        },
        {
            "bufferView" : 1,
            "componentType" : 5126,
            "count" : 3116,
            "type" : "VEC3"
        },
        {
            "bufferView" : 2,
            "componentType" : 5126,
            "count" : 3116,
            "type" : "VEC2"
        },
        {
            "bufferView" : 3,
            "componentType" : 5123,
            "count" : 14496,
            "type" : "SCALAR"
        }
    ],
    "bufferViews" : [
        {
            "buffer" : 0,
            "byteLength" : 37392,
            "byteOffset" : 0
        },
        {
            "buffer" : 0,
            "byteLength" : 37392,
            "byteOffset" : 37392
        },
        {
            "buffer" : 0,
            "byteLength" : 24928,
            "byteOffset" : 74784
        },
        {
            "buffer" : 0,
            "byteLength" : 28992,
            "byteOffset" : 99712
        }
    ],
    "buffers" : [
        {
            "byteLength" : 128704,
            "uri" : "data:application/octet-stream;base64,"
        }
    ]
}
