{
    "asset" : {
        "generator" : "Khronos glTF Blender I/O v1.5.17",
        "version" : "2.0"
    },
    "scene" : 0,
    "scenes" : [
        {
            "name" : "Scene",
            "nodes" : [
                0,
                1,
                2
            ]
        }
    ],
    "nodes" : [
        {
            "mesh" : 0,
            "name" : "Rectangle002",
            "translation" : [
                -2.0996094463043846e-05,
                0.36999985575675964,
                -2.7954103643423878e-05
            ]
        },
        {
            "mesh" : 1,
            "name" : "Rectangle001",
            "translation" : [
                -2.0996094463043846e-05,
                0.709999680519104,
                -2.7954103643423878e-05
            ]
        },
        {
            "mesh" : 2,
            "name" : "Box001",
            "translation" : [
                -2.0996094463043846e-05,
                0.7499999403953552,
                -2.7954103643423878e-05
            ]
        }
    ],
    "materials" : [
        {
            "doubleSided" : true,
            "name" : "02 - Default.005",
            "normalTexture" : {
                "index" : 0,
                "scale" : 0.30000001192092896
            },
            "pbrMetallicRoughness" : {
                "baseColorTexture" : {
                    "index" : 1
                },
                "roughnessFactor" : 0.5712906122207642
            }
        }
    ],
    "meshes" : [
        {
            "name" : "\u041c\u0435\u0448.010",
            "primitives" : [
                {
                    "attributes" : {
                        "POSITION" : 0,
                        "NORMAL" : 1,
                        "TEXCOORD_0" : 2,
                        "COLOR_0" : 3
                    },
                    "indices" : 4,
                    "material" : 0
                }
            ]
        },
        {
            "name" : "\u041c\u0435\u0448.011",
            "primitives" : [
                {
                    "attributes" : {
                        "POSITION" : 5,
                        "NORMAL" : 6,
                        "TEXCOORD_0" : 7
                    },
                    "indices" : 8,
                    "material" : 0
                }
            ]
        },
        {
            "name" : "\u041c\u0435\u0448.012",
            "primitives" : [
                {
                    "attributes" : {
                        "POSITION" : 9,
                        "NORMAL" : 10,
                        "TEXCOORD_0" : 11
                    },
                    "indices" : 12,
                    "material" : 0
                }
            ]
        }
    ],
    "textures" : [
        {
            "sampler" : 0,
            "source" : 0
        },
        {
            "sampler" : 0,
            "source" : 1
        }
    ],
    "images" : [
        {
            "mimeType" : "image/png",
            "name" : "NormalMap",
            "uri" : "NormalMap.png"
        },
        {
            "mimeType" : "image/jpeg",
            "name" : "walnut",
            "uri" : "walnut.jpg"
        }
    ],
    "accessors" : [
        {
            "bufferView" : 0,
            "componentType" : 5126,
            "count" : 144,
            "max" : [
                0.6601048111915588,
                0.37000572681427,
                0.4000999331474304
            ],
            "min" : [
                -0.6600629091262817,
                -0.36999982595443726,
                -0.4000438153743744
            ],
            "type" : "VEC3"
        },
        {
            "bufferView" : 1,
            "componentType" : 5126,
            "count" : 144,
            "type" : "VEC3"
        },
        {
            "bufferView" : 2,
            "componentType" : 5126,
            "count" : 144,
            "type" : "VEC2"
        },
        {
            "bufferView" : 3,
            "componentType" : 5123,
            "count" : 144,
            "normalized" : true,
            "type" : "VEC4"
        },
        {
            "bufferView" : 4,
            "componentType" : 5123,
            "count" : 240,
            "type" : "SCALAR"
        },
        {
            "bufferView" : 5,
            "componentType" : 5126,
            "count" : 48,
            "max" : [
                0.640014111995697,
                0.0500028096139431,
                0.3800140619277954
            ],
            "min" : [
                -0.6400086879730225,
                -0.0500028096139431,
                -0.38000544905662537
            ],
            "type" : "VEC3"
        },
        {
            "bufferView" : 6,
            "componentType" : 5126,
            "count" : 48,
            "type" : "VEC3"
        },
        {
            "bufferView" : 7,
            "componentType" : 5126,
            "count" : 48,
            "type" : "VEC2"
        },
        {
            "bufferView" : 8,
            "componentType" : 5123,
            "count" : 96,
            "type" : "SCALAR"
        },
        {
            "bufferView" : 9,
            "componentType" : 5126,
            "count" : 24,
            "max" : [
                0.6599999666213989,
                0.020000001415610313,
                0.4000000059604645
            ],
            "min" : [
                -0.6599999666213989,
                0,
                -0.4000000059604645
            ],
            "type" : "VEC3"
        },
        {
            "bufferView" : 10,
            "componentType" : 5126,
            "count" : 24,
            "type" : "VEC3"
        },
        {
            "bufferView" : 11,
            "componentType" : 5126,
            "count" : 24,
            "type" : "VEC2"
        },
        {
            "bufferView" : 12,
            "componentType" : 5123,
            "count" : 36,
            "type" : "SCALAR"
        }
    ],
    "bufferViews" : [
        {
            "buffer" : 0,
            "byteLength" : 1728,
            "byteOffset" : 0
        },
        {
            "buffer" : 0,
            "byteLength" : 1728,
            "byteOffset" : 1728
        },
        {
            "buffer" : 0,
            "byteLength" : 1152,
            "byteOffset" : 3456
        },
        {
            "buffer" : 0,
            "byteLength" : 1152,
            "byteOffset" : 4608
        },
        {
            "buffer" : 0,
            "byteLength" : 480,
            "byteOffset" : 5760
        },
        {
            "buffer" : 0,
            "byteLength" : 576,
            "byteOffset" : 6240
        },
        {
            "buffer" : 0,
            "byteLength" : 576,
            "byteOffset" : 6816
        },
        {
            "buffer" : 0,
            "byteLength" : 384,
            "byteOffset" : 7392
        },
        {
            "buffer" : 0,
            "byteLength" : 192,
            "byteOffset" : 7776
        },
        {
            "buffer" : 0,
            "byteLength" : 288,
            "byteOffset" : 7968
        },
        {
            "buffer" : 0,
            "byteLength" : 288,
            "byteOffset" : 8256
        },
        {
            "buffer" : 0,
            "byteLength" : 192,
            "byteOffset" : 8544
        },
        {
            "buffer" : 0,
            "byteLength" : 72,
            "byteOffset" : 8736
        }
    ],
    "samplers" : [
        {
            "magFilter" : 9729,
            "minFilter" : 9987
        }
    ],
    "buffers" : [
        {
            "byteLength" : 8808,
            "uri" : "table.bin"
        }
    ]
}
