{
    "asset" : {
        "generator" : "Khronos glTF Blender I/O v1.5.17",
        "version" : "2.0"
    },
    "scene" : 0,
    "scenes" : [
        {
            "name" : "Scene",
            "nodes" : [
                1
            ]
        }
    ],
    "nodes" : [
        {
            "mesh" : 0,
            "name" : "Line004",
            "rotation" : [
                0,
                -0.7071067094802856,
                -0.7071068286895752,
                5.338507236274381e-08
            ],
            "scale" : [
                -1,
                -1,
                -1
            ],
            "translation" : [
                -282.0087585449219,
                21.000030517578125,
                241.2880859375
            ]
        },
        {
            "children" : [
                0
            ],
            "name" : "Group002",
            "scale" : [
                0.0010000000474974513,
                0.001032260013744235,
                0.0010000000474974513
            ],
            "translation" : [
                -0.0029912416357547045,
                0.15499968826770782,
                0.0037119141779839993
            ]
        }
    ],
    "materials" : [
        {
            "doubleSided" : true,
            "name" : "standart",
            "normalTexture" : {
                "index" : 0,
                "scale" : 0.30000001192092896
            },
            "pbrMetallicRoughness" : {
                "baseColorTexture" : {
                    "index" : 1
                },
                "roughnessFactor" : 0.858578622341156
            }
        }
    ],
    "meshes" : [
        {
            "name" : "Mesh.049",
            "primitives" : [
                {
                    "attributes" : {
                        "POSITION" : 0,
                        "NORMAL" : 1,
                        "TEXCOORD_0" : 2
                    },
                    "indices" : 3,
                    "material" : 0
                }
            ]
        }
    ],
    "textures" : [
        {
            "sampler" : 0,
            "source" : 0
        },
        {
            "sampler" : 0,
            "source" : 1
        }
    ],
    "images" : [
        {
            "bufferView" : 4,
            "mimeType" : "image/png",
            "name" : "NormalMap"
        },
        {
            "bufferView" : 5,
            "mimeType" : "image/jpeg",
            "name" : "1texture"
        }
    ],
    "accessors" : [
        {
            "bufferView" : 0,
            "componentType" : 5126,
            "count" : 576,
            "max" : [
                710.0000610351562,
                545,
                176
            ],
            "min" : [
                -140.00001525878906,
                -55.0001220703125,
                -259.937255859375
            ],
            "type" : "VEC3"
        },
        {
            "bufferView" : 1,
            "componentType" : 5126,
            "count" : 576,
            "type" : "VEC3"
        },
        {
            "bufferView" : 2,
            "componentType" : 5126,
            "count" : 576,
            "type" : "VEC2"
        },
        {
            "bufferView" : 3,
            "componentType" : 5123,
            "count" : 1032,
            "type" : "SCALAR"
        }
    ],
    "bufferViews" : [
        {
            "buffer" : 0,
            "byteLength" : 6912,
            "byteOffset" : 0
        },
        {
            "buffer" : 0,
            "byteLength" : 6912,
            "byteOffset" : 6912
        },
        {
            "buffer" : 0,
            "byteLength" : 4608,
            "byteOffset" : 13824
        },
        {
            "buffer" : 0,
            "byteLength" : 2064,
            "byteOffset" : 18432
        },
        {
            "buffer" : 0,
            "byteLength" : 2719342,
            "byteOffset" : 20496
        },
        {
            "buffer" : 0,
            "byteLength" : 187945,
            "byteOffset" : 2739840
        }
    ],
    "samplers" : [
        {
            "magFilter" : 9729,
            "minFilter" : 9987
        }
    ],
    "buffers" : [
        {
            "byteLength" : 2927788,
            "uri" : "data:application/octet-stream;base64,"
        }
    ]
}
