<svg width="335" height="280" viewBox="0 0 335 280" fill="none" xmlns="http://www.w3.org/2000/svg">
<path d="M246 1C245.448 1 245 1.44772 245 2C245 2.55228 245.448 3 246 3V1ZM272 3C272.552 3 273 2.55228 273 2C273 1.44772 272.552 1 272 1V3ZM272 226C272.552 226 273 225.552 273 225C273 224.448 272.552 224 272 224V226ZM246 224C245.448 224 245 224.448 245 225C245 225.552 245.448 226 246 226V224ZM267.125 2.50452L261.351 12.5045H272.899L267.125 2.50452ZM267.125 224.495L272.899 214.495H261.351L267.125 224.495ZM246 3H267.125V1H246V3ZM267.125 3H272V1H267.125V3ZM272 224H267.125V226H272V224ZM267.125 224H246V226H267.125V224ZM266.125 11.5045V215.495H268.125V11.5045H266.125Z" fill="#DF661C"/>
<rect x="256.467" y="141" width="55" height="20" rx="10" transform="rotate(-90 256.467 141)" fill="#313131"/>
<path d="M270.467 131.201V128.413C270.467 126.723 269.626 125.96 268.51 125.96C267.385 125.96 266.749 126.748 266.71 127.469H266.639C266.469 126.801 266.014 126.244 265.105 126.244C264.029 126.244 263.194 126.989 263.194 128.538V131.201H270.467ZM269.526 130.104H267.197V128.481C267.197 127.6 267.765 127.05 268.457 127.05C269.068 127.05 269.526 127.465 269.526 128.52V130.104ZM266.341 130.104H264.128V128.605C264.128 127.735 264.586 127.32 265.19 127.32C265.893 127.32 266.341 127.895 266.341 128.634V130.104ZM266.888 123.703H265.013V124.743H270.467V122.36C270.467 121.025 269.693 120.279 268.667 120.279C267.619 120.279 266.888 121.025 266.888 122.36V123.703ZM270.467 119.505V118.444H265.013V119.505H270.467ZM267.804 123.703V122.36C267.804 121.75 268.173 121.313 268.699 121.313C269.196 121.313 269.551 121.75 269.551 122.36V123.703H267.804ZM270.577 114.721C270.577 113.432 269.803 112.597 268.741 112.48V113.514C269.331 113.649 269.679 114.107 269.679 114.714C269.679 115.612 268.93 116.191 267.74 116.191C266.572 116.191 265.836 115.602 265.836 114.714C265.836 114.039 266.263 113.627 266.774 113.514V112.48C265.673 112.594 264.942 113.492 264.942 114.732C264.942 116.269 266.099 117.264 267.765 117.264C269.409 117.264 270.577 116.305 270.577 114.721ZM270.577 109.047C270.577 107.51 269.452 106.505 267.765 106.505C266.067 106.505 264.942 107.51 264.942 109.047C264.942 110.585 266.067 111.59 267.765 111.59C269.452 111.59 270.577 110.585 270.577 109.047ZM269.686 109.044C269.686 110.049 268.809 110.517 267.761 110.517C266.717 110.517 265.829 110.049 265.829 109.044C265.829 108.046 266.717 107.577 267.761 107.577C268.809 107.577 269.686 108.046 269.686 109.044ZM265.929 105.976V104.19H270.467V103.153H265.929V101.374H265.013V105.976H265.929ZM270.588 98.9176C270.588 98.0156 270.13 97.5078 269.721 97.3054V97.2628H270.467V96.2259H266.845C265.258 96.2259 264.942 97.4759 264.942 98.3423C264.942 99.3295 265.339 100.239 266.334 100.594L266.561 99.5959C266.174 99.4396 265.801 99.0419 265.801 98.3281C265.801 97.6428 266.16 97.2912 266.778 97.2912H266.802C267.189 97.2912 267.182 97.6889 267.296 98.669C267.417 99.7024 267.687 100.761 268.926 100.761C269.998 100.761 270.588 99.9545 270.588 98.9176ZM269.736 98.6868C269.736 99.2869 269.466 99.7202 268.94 99.7202C268.372 99.7202 268.17 99.2159 268.088 98.6016C268.042 98.2571 267.949 97.4403 267.797 97.2876H268.5C269.146 97.2876 269.736 97.8026 269.736 98.6868Z" fill="white"/>
<rect x="256.467" y="141" width="55" height="20" rx="10" transform="rotate(-90 256.467 141)" stroke="#DF661C" stroke-width="2"/>
<path d="M58 241.012H203.508" stroke="url(#paint0_linear)" stroke-linejoin="round"/>
<path d="M58 241.012H203.508" stroke="url(#paint1_linear)" stroke-linejoin="round"/>
<path d="M58 240.897H203.523V18.8866H58V240.897Z" stroke="url(#paint2_linear)" stroke-linejoin="round"/>
<path d="M63.96 236.923H197.563V23.3565H63.96V236.923Z" stroke="url(#paint3_linear)" stroke-linejoin="round"/>
<path d="M64 184H131V23H64V184Z" stroke="url(#paint4_linear)" stroke-linejoin="round"/>
<path d="M241.767 224.258L203.523 240.897V18.8865L241.767 2.24817L241.767 224.258Z" stroke="url(#paint5_linear)" stroke-linejoin="round"/>
<path d="M63.96 183.78H197.563" stroke="url(#paint6_linear)" stroke-linejoin="round"/>
<path d="M241.767 224.126L203.508 241.013V217.554" stroke="url(#paint7_linear)" stroke-linejoin="round"/>
<path d="M63.96 211.554H197.563" stroke="url(#paint8_linear)" stroke-linejoin="round"/>
<path d="M58 19.0024H203.508L242 2H96.4917L58 19.0024Z" stroke="url(#paint9_linear)" stroke-linejoin="round"/>
<circle cx="121.822" cy="111.515" r="2.23167" stroke="white"/>
<circle cx="86.0616" cy="198.418" r="2.23167" stroke="white"/>
<circle cx="86.0616" cy="224.735" r="2.23167" stroke="white"/>
<circle cx="141.192" cy="111.515" r="2.23167" stroke="white"/>
<circle cx="172.482" cy="198.418" r="2.23167" stroke="white"/>
<circle cx="172.482" cy="224.735" r="2.23167" stroke="white"/>
<path d="M243.136 224.898C242.914 224.392 242.324 224.162 241.818 224.383C241.312 224.605 241.082 225.195 241.304 225.701L243.136 224.898ZM251.823 249.688C252.045 250.194 252.635 250.424 253.14 250.202C253.646 249.98 253.876 249.39 253.655 248.885L251.823 249.688ZM214.03 266.261C214.251 266.767 214.841 266.997 215.347 266.776C215.853 266.554 216.083 265.964 215.861 265.458L214.03 266.261ZM205.342 241.471C205.12 240.965 204.531 240.735 204.025 240.957C203.519 241.179 203.289 241.769 203.511 242.274L205.342 241.471ZM251.582 247.112L240.105 245.841L244.742 256.416L251.582 247.112ZM213.959 263.611L225.436 264.882L220.799 254.308L213.959 263.611ZM241.304 225.701L249.851 245.19L251.682 244.387L243.136 224.898L241.304 225.701ZM249.851 245.19L251.823 249.688L253.655 248.885L251.682 244.387L249.851 245.19ZM215.861 265.458L213.889 260.961L212.057 261.764L214.03 266.261L215.861 265.458ZM213.889 260.961L205.342 241.471L203.511 242.274L212.057 261.764L213.889 260.961ZM242.938 249.811L221.8 259.081L222.603 260.912L243.741 251.643L242.938 249.811Z" fill="#DF661C"/>
<rect x="206.317" y="257.398" width="50" height="20" rx="10" transform="rotate(-23.679 206.317 257.398)" fill="#313131"/>
<path d="M221.116 268.115L222.079 267.693L221.373 266.083L225.844 264.122L226.546 265.722L227.509 265.3L226.433 262.848L225.679 263.179L223.132 257.37L219.024 259.171L220.102 262.053C220.814 263.951 220.755 264.888 220.475 265.46L220.036 265.653L221.116 268.115ZM221.659 264.941C221.773 264.166 221.601 263.075 221.064 261.631L220.314 259.637L222.548 258.657L224.716 263.601L221.659 264.941ZM227.436 263.424L227.748 263.287C228.838 262.809 228.884 261.827 228.238 260.141L227.571 258.409L229.204 257.693L231.027 261.849L231.979 261.431L229.789 256.436L226.303 257.965L227.185 260.215C227.799 261.784 227.799 262.261 227.242 262.504L227.064 262.583L227.436 263.424ZM233.632 259.082L232.039 255.45L231.086 255.867L233.276 260.863L234.333 260.399L234.931 255.802L236.525 259.438L237.478 259.02L235.287 254.025L234.24 254.484L233.632 259.082ZM237.548 253.034L236.595 253.451L238.785 258.447L239.738 258.029L238.828 255.954L240.991 255.006L241.901 257.08L242.851 256.664L240.66 251.669L239.71 252.085L240.622 254.163L238.459 255.112L237.548 253.034ZM245.654 255.567C246.48 255.204 246.761 254.581 246.782 254.126L246.821 254.109L247.121 254.791L248.07 254.375L246.616 251.058C245.978 249.604 244.707 249.817 243.913 250.165C243.009 250.561 242.336 251.29 242.41 252.344L243.415 252.151C243.403 251.734 243.617 251.233 244.271 250.946C244.899 250.671 245.365 250.858 245.613 251.424L245.623 251.447C245.778 251.801 245.411 251.954 244.559 252.452C243.661 252.978 242.801 253.65 243.298 254.785C243.729 255.767 244.704 255.983 245.654 255.567ZM245.523 254.693C244.973 254.934 244.468 254.861 244.257 254.38C244.029 253.86 244.409 253.472 244.939 253.15C245.236 252.97 245.947 252.557 246.026 252.356L246.308 253C246.567 253.592 246.333 254.338 245.523 254.693Z" fill="white"/>
<rect x="206.317" y="257.398" width="50" height="20" rx="10" transform="rotate(-23.679 206.317 257.398)" stroke="#DF661C" stroke-width="2"/>
<path d="M205 241C205 240.448 204.552 240 204 240C203.448 240 203 240.448 203 241H205ZM203 267C203 267.552 203.448 268 204 268C204.552 268 205 267.552 205 267H203ZM57 267C57 267.552 57.4477 268 58 268C58.5523 268 59 267.552 59 267H57ZM59 241C59 240.448 58.5523 240 58 240C57.4477 240 57 240.448 57 241H59ZM203.67 262.125L193.67 256.351V267.899L203.67 262.125ZM58.3303 262.125L68.3303 267.899V256.351L58.3303 262.125ZM203 241V262.125H205V241H203ZM203 262.125V267H205V262.125H203ZM59 267V262.125H57V267H59ZM59 262.125V241H57V262.125H59ZM194.67 261.125H67.3303V263.125H194.67V261.125Z" fill="#DF661C"/>
<rect x="101.099" y="252.467" width="59.2532" height="20" rx="10" fill="#313131"/>
<path d="M111.194 259.195V266.467H119.244V259.195H118.161V265.516H115.768V259.195H114.681V265.516H112.28V259.195H111.194ZM121.897 264.979V261.013H120.856V266.467H122.01L124.404 262.497V266.467H125.444V261.013H124.301L121.897 264.979ZM126.872 268.513H127.934V265.619H127.998C128.189 265.967 128.58 266.574 129.574 266.574C130.895 266.574 131.854 265.516 131.854 263.751C131.854 261.982 130.881 260.942 129.564 260.942C128.552 260.942 128.186 261.56 127.998 261.897H127.909V261.013H126.872V268.513ZM127.912 263.74C127.912 262.6 128.41 261.844 129.336 261.844C130.299 261.844 130.782 262.657 130.782 263.74C130.782 264.834 130.285 265.668 129.336 265.668C128.424 265.668 127.912 264.887 127.912 263.74ZM134.084 264.979V261.013H133.044V266.467H134.198L136.591 262.497V266.467H137.632V261.013H136.488L134.084 264.979ZM140.1 261.013H139.059V266.467H140.1V264.202H142.461V266.467H143.498V261.013H142.461V263.282H140.1V261.013ZM146.506 266.588C147.408 266.588 147.916 266.13 148.118 265.722H148.161V266.467H149.198V262.845C149.198 261.258 147.948 260.942 147.081 260.942C146.094 260.942 145.185 261.339 144.83 262.334L145.828 262.561C145.984 262.174 146.382 261.801 147.096 261.801C147.781 261.801 148.133 262.16 148.133 262.778V262.803C148.133 263.19 147.735 263.182 146.755 263.296C145.721 263.417 144.663 263.687 144.663 264.926C144.663 265.999 145.469 266.588 146.506 266.588ZM146.737 265.736C146.137 265.736 145.704 265.466 145.704 264.94C145.704 264.372 146.208 264.17 146.822 264.088C147.167 264.042 147.983 263.95 148.136 263.797V264.5C148.136 265.146 147.621 265.736 146.737 265.736Z" fill="white"/>
<rect x="101.099" y="252.467" width="59.2532" height="20" rx="10" stroke="#DF661C" stroke-width="2"/>
<defs>
<linearGradient id="paint0_linear" x1="153.842" y1="241.013" x2="50.277" y2="258.062" gradientUnits="userSpaceOnUse">
<stop stop-color="white"/>
<stop offset="1" stop-color="white" stop-opacity="0.29"/>
</linearGradient>
<linearGradient id="paint1_linear" x1="153.842" y1="241.013" x2="50.277" y2="258.062" gradientUnits="userSpaceOnUse">
<stop stop-color="white"/>
<stop offset="1" stop-color="white" stop-opacity="0.29"/>
</linearGradient>
<linearGradient id="paint2_linear" x1="153.852" y1="240.897" x2="47.5995" y2="244.619" gradientUnits="userSpaceOnUse">
<stop stop-color="white"/>
<stop offset="1" stop-color="white" stop-opacity="0.29"/>
</linearGradient>
<linearGradient id="paint3_linear" x1="151.96" y1="236.924" x2="54.4007" y2="240.185" gradientUnits="userSpaceOnUse">
<stop stop-color="white"/>
<stop offset="1" stop-color="white" stop-opacity="0.29"/>
</linearGradient>
<linearGradient id="paint4_linear" x1="108.131" y1="184.001" x2="59.1757" y2="185.089" gradientUnits="userSpaceOnUse">
<stop stop-color="white"/>
<stop offset="1" stop-color="white" stop-opacity="0.29"/>
</linearGradient>
<linearGradient id="paint5_linear" x1="216.577" y1="240.897" x2="244.517" y2="241.585" gradientUnits="userSpaceOnUse">
<stop stop-color="white"/>
<stop offset="1" stop-color="white" stop-opacity="0.29"/>
</linearGradient>
<linearGradient id="paint6_linear" x1="151.96" y1="183.78" x2="56.0988" y2="196.942" gradientUnits="userSpaceOnUse">
<stop stop-color="white"/>
<stop offset="1" stop-color="white" stop-opacity="0.29"/>
</linearGradient>
<linearGradient id="paint7_linear" x1="153.842" y1="241.013" x2="57.9999" y2="272.78" gradientUnits="userSpaceOnUse">
<stop stop-color="white"/>
<stop offset="1" stop-color="white" stop-opacity="0.29"/>
</linearGradient>
<linearGradient id="paint8_linear" x1="151.96" y1="211.554" x2="56.4734" y2="225.987" gradientUnits="userSpaceOnUse">
<stop stop-color="white"/>
<stop offset="1" stop-color="white" stop-opacity="0.29"/>
</linearGradient>
<linearGradient id="paint9_linear" x1="153.842" y1="19.0024" x2="58" y2="50.7701" gradientUnits="userSpaceOnUse">
<stop stop-color="white"/>
<stop offset="1" stop-color="white" stop-opacity="0.29"/>
</linearGradient>
</defs>
</svg>
