{
    "asset" : {
        "generator" : "Khronos glTF Blender I/O v1.5.17",
        "version" : "2.0"
    },
    "scene" : 0,
    "scenes" : [
        {
            "name" : "Scene",
            "nodes" : [
                0,
                1,
                2,
                3
            ]
        }
    ],
    "nodes" : [
        {
            "mesh" : 0,
            "name" : "Rectangle001",
            "translation" : [
                -2.0996094463043846e-05,
                0.709999680519104,
                -2.7954103643423878e-05
            ]
        },
        {
            "mesh" : 1,
            "name" : "Box001",
            "translation" : [
                -2.0996094463043846e-05,
                0.7499999403953552,
                -2.7954103643423878e-05
            ]
        },
        {
            "name" : "Line001",
            "translation" : [
                -0.6603528261184692,
                0,
                0.32237064838409424
            ]
        },
        {
            "mesh" : 2,
            "name" : "Rectangle002",
            "translation" : [
                -0.6032633781433105,
                0,
                0.3434249758720398
            ]
        }
    ],
    "materials" : [
        {
            "doubleSided" : true,
            "name" : "03 - Default.007",
            "normalTexture" : {
                "index" : 0,
                "scale" : 0.30000001192092896
            },
            "pbrMetallicRoughness" : {
                "baseColorTexture" : {
                    "index" : 1
                },
                "roughnessFactor" : 0.858578622341156
            }
        },
        {
            "doubleSided" : true,
            "name" : "02 - Default.013",
            "normalTexture" : {
                "index" : 2,
                "scale" : 0.30000001192092896
            },
            "pbrMetallicRoughness" : {
                "baseColorTexture" : {
                    "index" : 3
                },
                "roughnessFactor" : 0.5712906122207642
            }
        }
    ],
    "meshes" : [
        {
            "name" : "\u041c\u0435\u0448.039",
            "primitives" : [
                {
                    "attributes" : {
                        "POSITION" : 0,
                        "NORMAL" : 1,
                        "TEXCOORD_0" : 2
                    },
                    "indices" : 3,
                    "material" : 0
                }
            ]
        },
        {
            "name" : "\u041c\u0435\u0448.040",
            "primitives" : [
                {
                    "attributes" : {
                        "POSITION" : 4,
                        "NORMAL" : 5,
                        "TEXCOORD_0" : 6
                    },
                    "indices" : 7,
                    "material" : 1
                }
            ]
        },
        {
            "name" : "\u041c\u0435\u0448.041",
            "primitives" : [
                {
                    "attributes" : {
                        "POSITION" : 8,
                        "NORMAL" : 9,
                        "TEXCOORD_0" : 10
                    },
                    "indices" : 11,
                    "material" : 1
                }
            ]
        }
    ],
    "textures" : [
        {
            "sampler" : 0,
            "source" : 0
        },
        {
            "sampler" : 0,
            "source" : 1
        },
        {
            "sampler" : 0,
            "source" : 2
        },
        {
            "sampler" : 0,
            "source" : 3
        }
    ],
    "images" : [
        {
            "mimeType" : "image/jpeg",
            "name" : "specular",
            "uri" : "textur/specular.jpg"
        },
        {
            "mimeType" : "image/jpeg",
            "name" : "fw_641_sq",
            "uri" : "textur/fw_641_sq.jpg"
        },
        {
            "mimeType" : "image/png",
            "name" : "NormalMap",
            "uri" : "textur/NormalMap.png"
        },
        {
            "mimeType" : "image/jpeg",
            "name" : "walnut",
            "uri" : "textur/walnut.jpg"
        }
    ],
    "accessors" : [
        {
            "bufferView" : 0,
            "componentType" : 5126,
            "count" : 48,
            "max" : [
                0.640014111995697,
                0.0500028096139431,
                0.3800140619277954
            ],
            "min" : [
                -0.6400086879730225,
                -0.0500028096139431,
                -0.38000544905662537
            ],
            "type" : "VEC3"
        },
        {
            "bufferView" : 1,
            "componentType" : 5126,
            "count" : 48,
            "type" : "VEC3"
        },
        {
            "bufferView" : 2,
            "componentType" : 5126,
            "count" : 48,
            "type" : "VEC2"
        },
        {
            "bufferView" : 3,
            "componentType" : 5123,
            "count" : 96,
            "type" : "SCALAR"
        },
        {
            "bufferView" : 4,
            "componentType" : 5126,
            "count" : 24,
            "max" : [
                0.6599999666213989,
                0.020000001415610313,
                0.4000000059604645
            ],
            "min" : [
                -0.6599999666213989,
                0,
                -0.4000000059604645
            ],
            "type" : "VEC3"
        },
        {
            "bufferView" : 5,
            "componentType" : 5126,
            "count" : 24,
            "type" : "VEC3"
        },
        {
            "bufferView" : 6,
            "componentType" : 5126,
            "count" : 24,
            "type" : "VEC2"
        },
        {
            "bufferView" : 7,
            "componentType" : 5123,
            "count" : 36,
            "type" : "SCALAR"
        },
        {
            "bufferView" : 8,
            "componentType" : 5126,
            "count" : 1188,
            "max" : [
                0.0942113995552063,
                0.75,
                0.0577298104763031
            ],
            "min" : [
                -0.05718296766281128,
                0,
                -0.09413325786590576
            ],
            "type" : "VEC3"
        },
        {
            "bufferView" : 9,
            "componentType" : 5126,
            "count" : 1188,
            "type" : "VEC3"
        },
        {
            "bufferView" : 10,
            "componentType" : 5126,
            "count" : 1188,
            "type" : "VEC2"
        },
        {
            "bufferView" : 11,
            "componentType" : 5123,
            "count" : 3516,
            "type" : "SCALAR"
        }
    ],
    "bufferViews" : [
        {
            "buffer" : 0,
            "byteLength" : 576,
            "byteOffset" : 0
        },
        {
            "buffer" : 0,
            "byteLength" : 576,
            "byteOffset" : 576
        },
        {
            "buffer" : 0,
            "byteLength" : 384,
            "byteOffset" : 1152
        },
        {
            "buffer" : 0,
            "byteLength" : 192,
            "byteOffset" : 1536
        },
        {
            "buffer" : 0,
            "byteLength" : 288,
            "byteOffset" : 1728
        },
        {
            "buffer" : 0,
            "byteLength" : 288,
            "byteOffset" : 2016
        },
        {
            "buffer" : 0,
            "byteLength" : 192,
            "byteOffset" : 2304
        },
        {
            "buffer" : 0,
            "byteLength" : 72,
            "byteOffset" : 2496
        },
        {
            "buffer" : 0,
            "byteLength" : 14256,
            "byteOffset" : 2568
        },
        {
            "buffer" : 0,
            "byteLength" : 14256,
            "byteOffset" : 16824
        },
        {
            "buffer" : 0,
            "byteLength" : 9504,
            "byteOffset" : 31080
        },
        {
            "buffer" : 0,
            "byteLength" : 7032,
            "byteOffset" : 40584
        }
    ],
    "samplers" : [
        {
            "magFilter" : 9729,
            "minFilter" : 9987
        }
    ],
    "buffers" : [
        {
            "byteLength" : 47616,
            "uri" : "table.bin"
        }
    ]
}
