{
    "asset" : {
        "generator" : "Khronos glTF Blender I/O v1.5.17",
        "version" : "2.0"
    },
    "scene" : 0,
    "scenes" : [
        {
            "name" : "Scene",
            "nodes" : [
                0,
                1,
                2,
                3,
                4,
                5
            ]
        }
    ],
    "nodes" : [
        {
            "mesh" : 0,
            "name" : "Rectangle001",
            "translation" : [
                -2.0996094463043846e-05,
                0.709999680519104,
                -2.7954103643423878e-05
            ]
        },
        {
            "mesh" : 1,
            "name" : "Box001",
            "translation" : [
                -2.0996094463043846e-05,
                0.7499999403953552,
                -2.7954103643423878e-05
            ]
        },
        {
            "mesh" : 2,
            "name" : "Line001",
            "translation" : [
                -0.6033245921134949,
                2.796451326503302e-06,
                -0.34333938360214233
            ]
        },
        {
            "mesh" : 3,
            "name" : "Line002",
            "translation" : [
                -0.6033114790916443,
                2.796451326503302e-06,
                0.3432581126689911
            ]
        },
        {
            "mesh" : 4,
            "name" : "Line003",
            "translation" : [
                0.6032511591911316,
                2.8312206268310547e-06,
                0.3432343900203705
            ]
        },
        {
            "mesh" : 5,
            "name" : "Line004",
            "translation" : [
                0.6033079624176025,
                2.7865171432495117e-06,
                -0.3433631360530853
            ]
        }
    ],
    "materials" : [
        {
            "doubleSided" : true,
            "name" : "03 - Default.005",
            "pbrMetallicRoughness" : {
                "baseColorTexture" : {
                    "index" : 0
                },
                "roughnessFactor" : 0.858578622341156
            }
        },
        {
            "doubleSided" : true,
            "name" : "02 - Default.002",
            "pbrMetallicRoughness" : {
                "baseColorTexture" : {
                    "index" : 1
                },
                "roughnessFactor" : 0.5712906122207642
            }
        }
    ],
    "meshes" : [
        {
            "name" : "\u041c\u0435\u0448.027",
            "primitives" : [
                {
                    "attributes" : {
                        "POSITION" : 0,
                        "NORMAL" : 1,
                        "TEXCOORD_0" : 2
                    },
                    "indices" : 3,
                    "material" : 0
                }
            ]
        },
        {
            "name" : "\u041c\u0435\u0448.028",
            "primitives" : [
                {
                    "attributes" : {
                        "POSITION" : 4,
                        "NORMAL" : 5,
                        "TEXCOORD_0" : 6
                    },
                    "indices" : 7,
                    "material" : 1
                }
            ]
        },
        {
            "name" : "\u041c\u0435\u0448.029",
            "primitives" : [
                {
                    "attributes" : {
                        "POSITION" : 8,
                        "NORMAL" : 9,
                        "TEXCOORD_0" : 10
                    },
                    "indices" : 11,
                    "material" : 1
                }
            ]
        },
        {
            "name" : "\u041c\u0435\u0448.030",
            "primitives" : [
                {
                    "attributes" : {
                        "POSITION" : 12,
                        "NORMAL" : 13,
                        "TEXCOORD_0" : 14
                    },
                    "indices" : 15,
                    "material" : 1
                }
            ]
        },
        {
            "name" : "\u041c\u0435\u0448.031",
            "primitives" : [
                {
                    "attributes" : {
                        "POSITION" : 16,
                        "NORMAL" : 17,
                        "TEXCOORD_0" : 18
                    },
                    "indices" : 19,
                    "material" : 1
                }
            ]
        },
        {
            "name" : "\u041c\u0435\u0448.032",
            "primitives" : [
                {
                    "attributes" : {
                        "POSITION" : 20,
                        "NORMAL" : 21,
                        "TEXCOORD_0" : 22
                    },
                    "indices" : 23,
                    "material" : 1
                }
            ]
        }
    ],
    "textures" : [
        {
            "sampler" : 0,
            "source" : 0
        },
        {
            "sampler" : 0,
            "source" : 1
        }
    ],
    "images" : [
        {
            "bufferView" : 4,
            "mimeType" : "image/jpeg",
            "name" : "fw_641_sq"
        },
        {
            "bufferView" : 9,
            "mimeType" : "image/jpeg",
            "name" : "walnut"
        }
    ],
    "accessors" : [
        {
            "bufferView" : 0,
            "componentType" : 5126,
            "count" : 48,
            "max" : [
                0.640014111995697,
                0.0500028096139431,
                0.3800140619277954
            ],
            "min" : [
                -0.6400086879730225,
                -0.0500028096139431,
                -0.38000544905662537
            ],
            "type" : "VEC3"
        },
        {
            "bufferView" : 1,
            "componentType" : 5126,
            "count" : 48,
            "type" : "VEC3"
        },
        {
            "bufferView" : 2,
            "componentType" : 5126,
            "count" : 48,
            "type" : "VEC2"
        },
        {
            "bufferView" : 3,
            "componentType" : 5123,
            "count" : 96,
            "type" : "SCALAR"
        },
        {
            "bufferView" : 5,
            "componentType" : 5126,
            "count" : 24,
            "max" : [
                0.6599999666213989,
                0.020000001415610313,
                0.4000000059604645
            ],
            "min" : [
                -0.6599999666213989,
                0,
                -0.4000000059604645
            ],
            "type" : "VEC3"
        },
        {
            "bufferView" : 6,
            "componentType" : 5126,
            "count" : 24,
            "type" : "VEC3"
        },
        {
            "bufferView" : 7,
            "componentType" : 5126,
            "count" : 24,
            "type" : "VEC2"
        },
        {
            "bufferView" : 8,
            "componentType" : 5123,
            "count" : 36,
            "type" : "SCALAR"
        },
        {
            "bufferView" : 10,
            "componentType" : 5126,
            "count" : 36,
            "max" : [
                0.09330672025680542,
                0.7400012016296387,
                0.09330940246582031
            ],
            "min" : [
                -0.05665552616119385,
                -1.187125917567755e-06,
                -0.05665707588195801
            ],
            "type" : "VEC3"
        },
        {
            "bufferView" : 11,
            "componentType" : 5126,
            "count" : 36,
            "type" : "VEC3"
        },
        {
            "bufferView" : 12,
            "componentType" : 5126,
            "count" : 36,
            "type" : "VEC2"
        },
        {
            "bufferView" : 13,
            "componentType" : 5123,
            "count" : 60,
            "type" : "SCALAR"
        },
        {
            "bufferView" : 14,
            "componentType" : 5126,
            "count" : 36,
            "max" : [
                0.09329360723495483,
                0.7400018572807312,
                0.0566461980342865
            ],
            "min" : [
                -0.056649088859558105,
                -1.842777010097052e-06,
                -0.09328809380531311
            ],
            "type" : "VEC3"
        },
        {
            "bufferView" : 15,
            "componentType" : 5126,
            "count" : 36,
            "type" : "VEC3"
        },
        {
            "bufferView" : 16,
            "componentType" : 5126,
            "count" : 36,
            "type" : "VEC2"
        },
        {
            "bufferView" : 17,
            "componentType" : 5123,
            "count" : 60,
            "type" : "SCALAR"
        },
        {
            "bufferView" : 18,
            "componentType" : 5126,
            "count" : 36,
            "max" : [
                0.05664461851119995,
                0.7400028109550476,
                0.05663451552391052
            ],
            "min" : [
                -0.09326893091201782,
                -2.8014183044433594e-06,
                -0.0932643711566925
            ],
            "type" : "VEC3"
        },
        {
            "bufferView" : 19,
            "componentType" : 5126,
            "count" : 36,
            "type" : "VEC3"
        },
        {
            "bufferView" : 20,
            "componentType" : 5126,
            "count" : 36,
            "type" : "VEC2"
        },
        {
            "bufferView" : 21,
            "componentType" : 5123,
            "count" : 60,
            "type" : "SCALAR"
        },
        {
            "bufferView" : 22,
            "componentType" : 5126,
            "count" : 36,
            "max" : [
                0.056672096252441406,
                0.7400004863739014,
                0.0933331549167633
            ],
            "min" : [
                -0.09332573413848877,
                -5.21540641784668e-07,
                -0.0566687285900116
            ],
            "type" : "VEC3"
        },
        {
            "bufferView" : 23,
            "componentType" : 5126,
            "count" : 36,
            "type" : "VEC3"
        },
        {
            "bufferView" : 24,
            "componentType" : 5126,
            "count" : 36,
            "type" : "VEC2"
        },
        {
            "bufferView" : 25,
            "componentType" : 5123,
            "count" : 60,
            "type" : "SCALAR"
        }
    ],
    "bufferViews" : [
        {
            "buffer" : 0,
            "byteLength" : 576,
            "byteOffset" : 0
        },
        {
            "buffer" : 0,
            "byteLength" : 576,
            "byteOffset" : 576
        },
        {
            "buffer" : 0,
            "byteLength" : 384,
            "byteOffset" : 1152
        },
        {
            "buffer" : 0,
            "byteLength" : 192,
            "byteOffset" : 1536
        },
        {
            "buffer" : 0,
            "byteLength" : 15408,
            "byteOffset" : 1728
        },
        {
            "buffer" : 0,
            "byteLength" : 288,
            "byteOffset" : 17136
        },
        {
            "buffer" : 0,
            "byteLength" : 288,
            "byteOffset" : 17424
        },
        {
            "buffer" : 0,
            "byteLength" : 192,
            "byteOffset" : 17712
        },
        {
            "buffer" : 0,
            "byteLength" : 72,
            "byteOffset" : 17904
        },
        {
            "buffer" : 0,
            "byteLength" : 98098,
            "byteOffset" : 17976
        },
        {
            "buffer" : 0,
            "byteLength" : 432,
            "byteOffset" : 116076
        },
        {
            "buffer" : 0,
            "byteLength" : 432,
            "byteOffset" : 116508
        },
        {
            "buffer" : 0,
            "byteLength" : 288,
            "byteOffset" : 116940
        },
        {
            "buffer" : 0,
            "byteLength" : 120,
            "byteOffset" : 117228
        },
        {
            "buffer" : 0,
            "byteLength" : 432,
            "byteOffset" : 117348
        },
        {
            "buffer" : 0,
            "byteLength" : 432,
            "byteOffset" : 117780
        },
        {
            "buffer" : 0,
            "byteLength" : 288,
            "byteOffset" : 118212
        },
        {
            "buffer" : 0,
            "byteLength" : 120,
            "byteOffset" : 118500
        },
        {
            "buffer" : 0,
            "byteLength" : 432,
            "byteOffset" : 118620
        },
        {
            "buffer" : 0,
            "byteLength" : 432,
            "byteOffset" : 119052
        },
        {
            "buffer" : 0,
            "byteLength" : 288,
            "byteOffset" : 119484
        },
        {
            "buffer" : 0,
            "byteLength" : 120,
            "byteOffset" : 119772
        },
        {
            "buffer" : 0,
            "byteLength" : 432,
            "byteOffset" : 119892
        },
        {
            "buffer" : 0,
            "byteLength" : 432,
            "byteOffset" : 120324
        },
        {
            "buffer" : 0,
            "byteLength" : 288,
            "byteOffset" : 120756
        },
        {
            "buffer" : 0,
            "byteLength" : 120,
            "byteOffset" : 121044
        }
    ],
    "samplers" : [
        {
            "magFilter" : 9729,
            "minFilter" : 9987
        }
    ],
    "buffers" : [
        {
            "byteLength" : 121164,
            "uri" : "data:application/octet-stream;base64,"
        }
    ]
}
