{
    "asset" : {
        "generator" : "Khronos glTF Blender I/O v1.5.17",
        "version" : "2.0"
    },
    "scene" : 0,
    "scenes" : [
        {
            "name" : "Scene",
            "nodes" : [
                0
            ]
        }
    ],
    "nodes" : [
        {
            "mesh" : 0,
            "name" : "coffee_table_anrex_olivia",
            "scale" : [
                0.0010000000474974513,
                0.0010000000474974513,
                0.0010000000474974513
            ]
        }
    ],
    "materials" : [
        {
            "doubleSided" : true,
            "name" : "wire_177148027",
            "normalTexture" : {
                "index" : 0,
                "scale" : 0.30000001192092896
            },
            "pbrMetallicRoughness" : {
                "baseColorTexture" : {
                    "index" : 1
                },
                "metallicRoughnessTexture" : {
                    "index" : 2
                }
            }
        }
    ],
    "meshes" : [
        {
            "name" : "\u041c\u0435\u0448.015",
            "primitives" : [
                {
                    "attributes" : {
                        "POSITION" : 0,
                        "NORMAL" : 1,
                        "TEXCOORD_0" : 2
                    },
                    "indices" : 3,
                    "material" : 0
                }
            ]
        }
    ],
    "textures" : [
        {
            "sampler" : 0,
            "source" : 0
        },
        {
            "sampler" : 0,
            "source" : 1
        },
        {
            "sampler" : 0,
            "source" : 2
        }
    ],
    "images" : [
        {
            "mimeType" : "image/jpeg",
            "name" : "woodline_cream_displ",
            "uri" : "woodline_cream_displ.jpg"
        },
        {
            "mimeType" : "image/jpeg",
            "name" : "woodline_cream_diff",
            "uri" : "woodline_cream_diff.jpg"
        },
        {
            "mimeType" : "image/png",
            "name" : "woodline_cream_refl_gloss",
            "uri" : "woodline_cream_refl_gloss.png"
        }
    ],
    "accessors" : [
        {
            "bufferView" : 0,
            "componentType" : 5126,
            "count" : 3116,
            "max" : [
                653.4058837890625,
                500.6971130371094,
                676.5609741210938
            ],
            "min" : [
                -446.5940856933594,
                0.6970000267028809,
                -22.121599197387695
            ],
            "type" : "VEC3"
        },
        {
            "bufferView" : 1,
            "componentType" : 5126,
            "count" : 3116,
            "type" : "VEC3"
        },
        {
            "bufferView" : 2,
            "componentType" : 5126,
            "count" : 3116,
            "type" : "VEC2"
        },
        {
            "bufferView" : 3,
            "componentType" : 5123,
            "count" : 14496,
            "type" : "SCALAR"
        }
    ],
    "bufferViews" : [
        {
            "buffer" : 0,
            "byteLength" : 37392,
            "byteOffset" : 0
        },
        {
            "buffer" : 0,
            "byteLength" : 37392,
            "byteOffset" : 37392
        },
        {
            "buffer" : 0,
            "byteLength" : 24928,
            "byteOffset" : 74784
        },
        {
            "buffer" : 0,
            "byteLength" : 28992,
            "byteOffset" : 99712
        }
    ],
    "samplers" : [
        {
            "magFilter" : 9729,
            "minFilter" : 9987
        }
    ],
    "buffers" : [
        {
            "byteLength" : 128704,
            "uri" : "table.bin"
        }
    ]
}
