<svg width="335" height="235" viewBox="0 0 335 235" fill="none" xmlns="http://www.w3.org/2000/svg">
<path d="M102.286 15.0896H282L202.714 71.3336H23L102.286 15.0896Z" stroke="url(#paint0_linear)" stroke-linejoin="round"/>
<g opacity="0.5">
<path d="M78.5 173.572L61.5102 185.905H23" stroke="url(#paint1_linear)" stroke-linejoin="round"/>
<path d="M78.4998 173.571L78.5 87.4033" stroke="url(#paint2_linear)" stroke-linejoin="round"/>
<path d="M23 185.905H61.7616L61.7619 87.238H23.0003L23 185.905Z" stroke="url(#paint3_linear)" stroke-linejoin="round"/>
</g>
<g opacity="0.4">
<path d="M220.333 173.572L203.344 185.905H164.833" stroke="url(#paint4_linear)" stroke-linejoin="round"/>
<path d="M220.333 173.571L220.333 74.9048" stroke="url(#paint5_linear)" stroke-linejoin="round"/>
<path d="M164.833 185.905H203.595L203.595 87.238H164.834L164.833 185.905Z" stroke="url(#paint6_linear)" stroke-linejoin="round"/>
</g>
<g opacity="0.4">
<path d="M282 128.643L265.01 140.976H226.5" stroke="url(#paint7_linear)" stroke-linejoin="round"/>
<path d="M282 128.643L282 29.9763" stroke="url(#paint8_linear)" stroke-linejoin="round"/>
<path d="M265.262 42.3096L265.262 140.976H226.5L226.5 69.9454" stroke="url(#paint9_linear)" stroke-linejoin="round"/>
</g>
<g opacity="0.5">
<path d="M141.048 127.762L124.058 140.976H85.5476" stroke="url(#paint10_linear)" stroke-linejoin="round"/>
<path d="M141.047 127.762V86.2627" stroke="url(#paint11_linear)" stroke-linejoin="round"/>
<path d="M85.4933 140.771H124.378L124.378 87.3044H85.4936L85.4933 140.771Z" stroke="url(#paint12_linear)" stroke-linejoin="round"/>
</g>
<path d="M282 29.9763L202.714 87.2382H23" stroke="url(#paint13_linear)" stroke-linejoin="round"/>
<path d="M23 71.3337H202.842V87.3043H23V71.3337Z" stroke="url(#paint14_linear)" stroke-linejoin="round"/>
<path d="M102.286 15H282V29.9762" stroke="url(#paint15_linear)" stroke-linejoin="round"/>
<path d="M282 14C281.448 14 281 14.4477 281 15C281 15.5523 281.448 16 282 16V14ZM308 16C308.552 16 309 15.5523 309 15C309 14.4477 308.552 14 308 14V16ZM308 130C308.552 130 309 129.552 309 129C309 128.448 308.552 128 308 128V130ZM282 128C281.448 128 281 128.448 281 129C281 129.552 281.448 130 282 130V128ZM303.125 15.2579L297.351 25.2579H308.899L303.125 15.2579ZM303.125 128.742L308.899 118.742H297.351L303.125 128.742ZM282 16H303.125V14H282V16ZM303.125 16H308V14H303.125V16ZM308 128H303.125V130H308V128ZM303.125 128H282V130H303.125V128ZM302.125 24.2579V119.742H304.125V24.2579H302.125Z" fill="#DF661C"/>
<rect x="291.997" y="101.448" width="55" height="20" rx="10" transform="rotate(-90 291.997 101.448)" fill="#313131"/>
<path d="M305.997 91.6492V88.8616C305.997 87.1713 305.155 86.4078 304.04 86.4078C302.914 86.4078 302.279 87.1961 302.239 87.917H302.168C301.998 87.2494 301.543 86.6918 300.634 86.6918C299.558 86.6918 298.724 87.4376 298.724 88.9859V91.6492H305.997ZM305.056 90.5519H302.726V88.9291C302.726 88.0484 303.294 87.498 303.987 87.498C304.597 87.498 305.056 87.9134 305.056 88.9681V90.5519ZM301.87 90.5519H299.658V89.0534C299.658 88.1833 300.116 87.7678 300.72 87.7678C301.423 87.7678 301.87 88.3431 301.87 89.0818V90.5519ZM302.417 84.151H300.542V85.1915H305.997V82.8087C305.997 81.4735 305.222 80.7277 304.196 80.7277C303.149 80.7277 302.417 81.4735 302.417 82.8087V84.151ZM305.997 79.9536V78.8918H300.542V79.9536H305.997ZM303.333 84.151V82.8087C303.333 82.1979 303.703 81.7611 304.228 81.7611C304.725 81.7611 305.08 82.1979 305.08 82.8087V84.151H303.333ZM306.107 75.1693C306.107 73.8802 305.333 73.0457 304.271 72.9285V73.9619C304.86 74.0969 305.208 74.555 305.208 75.1622C305.208 76.0606 304.459 76.6395 303.269 76.6395C302.101 76.6395 301.366 76.05 301.366 75.1622C301.366 74.4875 301.792 74.0756 302.303 73.9619V72.9285C301.203 73.0422 300.471 73.9406 300.471 75.18C300.471 76.7176 301.629 77.7119 303.294 77.7119C304.938 77.7119 306.107 76.7531 306.107 75.1693ZM306.107 69.4955C306.107 67.9578 304.981 66.9529 303.294 66.9529C301.597 66.9529 300.471 67.9578 300.471 69.4955C300.471 71.0331 301.597 72.0381 303.294 72.0381C304.981 72.0381 306.107 71.0331 306.107 69.4955ZM305.215 69.4919C305.215 70.4969 304.338 70.9656 303.291 70.9656C302.247 70.9656 301.359 70.4969 301.359 69.4919C301.359 68.4941 302.247 68.0253 303.291 68.0253C304.338 68.0253 305.215 68.4941 305.215 69.4919ZM301.458 66.4246V64.6384H305.997V63.6015H301.458V61.8224H300.542V66.4246H301.458ZM306.117 59.3659C306.117 58.4639 305.659 57.9561 305.251 57.7536V57.711H305.997V56.6741H302.374C300.787 56.6741 300.471 57.9241 300.471 58.7906C300.471 59.7778 300.869 60.6869 301.863 61.042L302.09 60.0441C301.703 59.8879 301.33 59.4901 301.33 58.7764C301.33 58.091 301.689 57.7394 302.307 57.7394H302.332C302.719 57.7394 302.712 58.1372 302.825 59.1173C302.946 60.1507 303.216 61.2089 304.455 61.2089C305.528 61.2089 306.117 60.4028 306.117 59.3659ZM305.265 59.135C305.265 59.7352 304.995 60.1684 304.47 60.1684C303.901 60.1684 303.699 59.6642 303.617 59.0498C303.571 58.7053 303.479 57.8886 303.326 57.7359H304.029C304.676 57.7359 305.265 58.2508 305.265 59.135Z" fill="white"/>
<rect x="291.997" y="101.448" width="55" height="20" rx="10" transform="rotate(-90 291.997 101.448)" stroke="#DF661C" stroke-width="2"/>
<path d="M205 186.905C205 186.353 204.552 185.905 204 185.905C203.448 185.905 203 186.353 203 186.905H205ZM203 212.923C203 213.475 203.448 213.923 204 213.923C204.552 213.923 205 213.475 205 212.923H203ZM22 212.923C22 213.475 22.4477 213.923 23 213.923C23.5522 213.923 24 213.475 24 212.923H22ZM24 186.905C24 186.353 23.5522 185.905 23 185.905C22.4477 185.905 22 186.353 22 186.905H24ZM203.59 208.045L193.59 202.271V213.818L203.59 208.045ZM23.4095 208.045L33.4095 213.818V202.271L23.4095 208.045ZM203 186.905V208.045H205V186.905H203ZM203 208.045V212.923H205V208.045H203ZM24 212.923V208.045H22V212.923H24ZM24 208.045V186.905H22V208.045H24ZM194.59 207.045H32.4095V209.045H194.59V207.045Z" fill="#DF661C"/>
<rect x="81.0084" y="198.372" width="58" height="20" rx="10" fill="#313131"/>
<path d="M91.1035 205.099V212.372H99.1539V205.099H98.0708V211.42H95.6774V205.099H94.5907V211.42H92.1902V205.099H91.1035ZM101.807 210.884V206.918H100.766V212.372H101.92L104.314 208.402V212.372H105.354V206.918H104.211L101.807 210.884ZM106.782 214.418H107.844V211.523H107.907C108.099 211.871 108.49 212.479 109.484 212.479C110.805 212.479 111.764 211.42 111.764 209.655C111.764 207.887 110.791 206.847 109.474 206.847C108.461 206.847 108.096 207.464 107.907 207.802H107.819V206.918H106.782V214.418ZM107.822 209.645C107.822 208.505 108.319 207.748 109.246 207.748C110.209 207.748 110.692 208.562 110.692 209.645C110.692 210.739 110.194 211.573 109.246 211.573C108.334 211.573 107.822 210.792 107.822 209.645ZM113.994 210.884V206.918H112.954V212.372H114.108L116.501 208.402V212.372H117.542V206.918H116.398L113.994 210.884ZM120.01 206.918H118.969V212.372H120.01V210.106H122.371V212.372H123.408V206.918H122.371V209.187H120.01V206.918ZM126.416 212.493C127.318 212.493 127.826 212.035 128.028 211.626H128.071V212.372H129.108V208.75C129.108 207.163 127.858 206.847 126.991 206.847C126.004 206.847 125.095 207.244 124.74 208.239L125.738 208.466C125.894 208.079 126.292 207.706 127.005 207.706C127.691 207.706 128.042 208.065 128.042 208.682V208.707C128.042 209.094 127.645 209.087 126.665 209.201C125.631 209.322 124.573 209.592 124.573 210.831C124.573 211.903 125.379 212.493 126.416 212.493ZM126.647 211.641C126.047 211.641 125.613 211.371 125.613 210.845C125.613 210.277 126.118 210.074 126.732 209.993C127.077 209.947 127.893 209.854 128.046 209.702V210.405C128.046 211.051 127.531 211.641 126.647 211.641Z" fill="white"/>
<rect x="81.0084" y="198.372" width="58" height="20" rx="10" stroke="#DF661C" stroke-width="2"/>
<path d="M306.909 165.652C307.228 166.102 307.852 166.209 308.303 165.89C308.754 165.571 308.861 164.947 308.542 164.496L306.909 165.652ZM228.04 221.455C228.359 221.906 228.983 222.013 229.434 221.694C229.885 221.375 229.992 220.751 229.673 220.3L228.04 221.455ZM303.176 159.401L291.678 160.464L298.347 169.89L303.176 159.401ZM224.664 214.952L236.162 213.889L229.492 204.463L224.664 214.952ZM283.685 129.366C283.366 128.915 282.742 128.808 282.291 129.127C281.84 129.446 281.733 130.07 282.052 130.521L283.685 129.366ZM204.897 185.284C204.578 184.833 203.954 184.726 203.503 185.045C203.053 185.364 202.946 185.988 203.265 186.439L204.897 185.284ZM298.523 153.8L306.909 165.652L308.542 164.496L300.156 152.645L298.523 153.8ZM229.673 220.3L221.287 208.448L219.655 209.604L228.04 221.455L229.673 220.3ZM295.251 163.783L231.433 208.937L232.588 210.57L296.406 165.415L295.251 163.783ZM282.052 130.521L298.523 153.8L300.156 152.645L283.685 129.366L282.052 130.521ZM221.287 208.448L204.897 185.284L203.265 186.439L219.655 209.604L221.287 208.448Z" fill="#DF661C"/>
<rect x="234.974" y="195.243" width="59" height="20" rx="10" transform="rotate(-35.2814 234.974 195.243)" fill="#313131"/>
<path d="M250.561 192.455L246.859 195.075L251.06 201.012L251.956 200.378L248.301 195.212L251.107 193.226L250.561 192.455ZM255.351 197.975L255.629 197.779C256.6 197.091 256.448 196.12 255.476 194.598L254.475 193.036L255.93 192.006L258.551 195.711L259.401 195.11L256.25 190.657L253.143 192.856L254.459 194.883C255.376 196.296 255.472 196.763 254.976 197.114L254.817 197.227L255.351 197.975ZM262.126 195.687C262.842 195.18 263.03 194.486 262.792 193.602L261.068 187.262L260.125 187.916L261.442 192.169L261.396 192.202L257.824 189.544L256.896 190.2L261.717 193.558L261.819 193.93C262.017 194.677 261.741 194.946 261.174 195.152L261.467 196.01C261.605 195.982 261.866 195.872 262.126 195.687ZM264.14 182.586C264.046 182.914 263.715 183.148 263.252 183.471C263.116 183.568 262.968 183.672 262.808 183.79C261.385 184.84 261.381 186.383 262.82 188.419L263.132 188.859C264.289 190.494 265.71 190.781 266.953 189.901C268.197 189.021 268.392 187.587 267.411 186.201C266.443 184.833 265.116 184.636 264.044 185.395C263.397 185.853 263.053 186.509 263.153 187.265L263.098 187.304C262.399 186.107 262.426 185.248 263.368 184.538C264.205 183.907 264.749 183.526 264.887 182.88L264.14 182.586ZM266.442 189.171C265.705 189.692 264.84 189.422 264.189 188.503C263.563 187.593 263.641 186.763 264.363 186.252C265.097 185.733 265.908 185.934 266.546 186.835C267.198 187.757 267.166 188.658 266.442 189.171ZM269.898 185.86L267.607 182.622L266.757 183.223L269.908 187.676L270.85 187.009L270.51 182.386L272.804 185.627L273.653 185.026L270.502 180.573L269.569 181.234L269.898 185.86ZM272.517 179.148L271.668 179.749L274.818 184.201L275.668 183.6L274.359 181.751L276.287 180.387L277.595 182.236L278.442 181.637L275.291 177.185L274.445 177.784L275.756 179.636L273.828 181L272.517 179.148ZM280.967 179.999C281.703 179.478 281.853 178.81 281.783 178.36L281.817 178.335L282.248 178.944L283.095 178.345L281.003 175.388C280.086 174.093 278.883 174.557 278.175 175.057C277.37 175.627 276.857 176.477 277.142 177.494L278.087 177.103C277.991 176.697 278.101 176.163 278.683 175.75C279.243 175.355 279.737 175.444 280.094 175.949L280.108 175.969C280.332 176.285 280.003 176.509 279.269 177.168C278.495 177.863 277.787 178.695 278.503 179.706C279.122 180.582 280.121 180.598 280.967 179.999ZM280.663 179.17C280.173 179.516 279.664 179.546 279.36 179.117C279.032 178.653 279.327 178.197 279.781 177.775C280.036 177.539 280.649 176.991 280.685 176.779L281.092 177.353C281.465 177.88 281.385 178.659 280.663 179.17Z" fill="white"/>
<rect x="234.974" y="195.243" width="59" height="20" rx="10" transform="rotate(-35.2814 234.974 195.243)" stroke="#DF661C" stroke-width="2"/>
<defs>
<linearGradient id="paint0_linear" x1="71.6561" y1="28.8661" x2="448.43" y2="-355.535" gradientUnits="userSpaceOnUse">
<stop stop-color="white"/>
<stop offset="1" stop-color="white" stop-opacity="0"/>
</linearGradient>
<linearGradient id="paint1_linear" x1="33.4263" y1="176.592" x2="116.063" y2="94.2046" gradientUnits="userSpaceOnUse">
<stop stop-color="white"/>
<stop offset="1" stop-color="white" stop-opacity="0"/>
</linearGradient>
<linearGradient id="paint2_linear" x1="78.4998" y1="108.509" x2="78.5006" y2="108.509" gradientUnits="userSpaceOnUse">
<stop stop-color="white"/>
<stop offset="1" stop-color="white" stop-opacity="0"/>
</linearGradient>
<linearGradient id="paint3_linear" x1="30.2819" y1="111.406" x2="144.499" y2="101.464" gradientUnits="userSpaceOnUse">
<stop stop-color="white"/>
<stop offset="1" stop-color="white" stop-opacity="0"/>
</linearGradient>
<linearGradient id="paint4_linear" x1="175.26" y1="176.592" x2="257.896" y2="94.2046" gradientUnits="userSpaceOnUse">
<stop stop-color="white"/>
<stop offset="1" stop-color="white" stop-opacity="0"/>
</linearGradient>
<linearGradient id="paint5_linear" x1="220.333" y1="99.0724" x2="220.334" y2="99.0724" gradientUnits="userSpaceOnUse">
<stop stop-color="white"/>
<stop offset="1" stop-color="white" stop-opacity="0"/>
</linearGradient>
<linearGradient id="paint6_linear" x1="172.115" y1="111.406" x2="286.332" y2="101.464" gradientUnits="userSpaceOnUse">
<stop stop-color="white"/>
<stop offset="1" stop-color="white" stop-opacity="0"/>
</linearGradient>
<linearGradient id="paint7_linear" x1="236.926" y1="131.664" x2="319.563" y2="49.2762" gradientUnits="userSpaceOnUse">
<stop stop-color="white"/>
<stop offset="1" stop-color="white" stop-opacity="0"/>
</linearGradient>
<linearGradient id="paint8_linear" x1="282" y1="54.1439" x2="282.001" y2="54.1439" gradientUnits="userSpaceOnUse">
<stop stop-color="white"/>
<stop offset="1" stop-color="white" stop-opacity="0"/>
</linearGradient>
<linearGradient id="paint9_linear" x1="233.782" y1="66.4772" x2="347.999" y2="56.5358" gradientUnits="userSpaceOnUse">
<stop stop-color="white"/>
<stop offset="1" stop-color="white" stop-opacity="0"/>
</linearGradient>
<linearGradient id="paint10_linear" x1="95.9739" y1="130.999" x2="184.284" y2="48.8236" gradientUnits="userSpaceOnUse">
<stop stop-color="white"/>
<stop offset="1" stop-color="white" stop-opacity="0"/>
</linearGradient>
<linearGradient id="paint11_linear" x1="141.235" y1="96.4276" x2="144.204" y2="96.4118" gradientUnits="userSpaceOnUse">
<stop stop-color="white"/>
<stop offset="1" stop-color="white" stop-opacity="0"/>
</linearGradient>
<linearGradient id="paint12_linear" x1="92.7982" y1="100.401" x2="205.323" y2="82.2694" gradientUnits="userSpaceOnUse">
<stop stop-color="white"/>
<stop offset="1" stop-color="white" stop-opacity="0"/>
</linearGradient>
<linearGradient id="paint13_linear" x1="71.6561" y1="44.0022" x2="455.326" y2="-340.475" gradientUnits="userSpaceOnUse">
<stop stop-color="white"/>
<stop offset="1" stop-color="white" stop-opacity="0"/>
</linearGradient>
<linearGradient id="paint14_linear" x1="56.7853" y1="75.2456" x2="130.692" y2="-109.145" gradientUnits="userSpaceOnUse">
<stop stop-color="white"/>
<stop offset="1" stop-color="white" stop-opacity="0"/>
</linearGradient>
<linearGradient id="paint15_linear" x1="136.047" y1="18.6683" x2="202.177" y2="-157.147" gradientUnits="userSpaceOnUse">
<stop stop-color="white"/>
<stop offset="1" stop-color="white" stop-opacity="0"/>
</linearGradient>
</defs>
</svg>
