# 3ds Max Wavefront OBJ Exporter v0.99 - (c)2007 guruware
# File Created: 28.05.2021 11:51:46

mtllib A.mtl

#
# object Rectangle002
#

v  0.0260 0.0291 -0.0157
v  0.0201 0.0291 -0.0157
v  0.0201 0.0291 -0.0150
v  0.0252 0.0291 -0.0150
v  0.0260 0.0291 -0.0098
v  0.0252 0.0291 -0.0098
v  0.0260 0.0000 -0.0157
v  0.0201 0.0000 -0.0157
v  0.0201 0.0000 -0.0150
v  0.0252 0.0000 -0.0150
v  0.0260 0.0000 -0.0098
v  0.0252 0.0000 -0.0098
v  0.0260 0.0291 0.0157
v  0.0260 0.0291 0.0098
v  0.0252 0.0291 0.0098
v  0.0252 0.0291 0.0150
v  0.0201 0.0291 0.0157
v  0.0201 0.0291 0.0150
v  0.0260 0.0000 0.0157
v  0.0260 0.0000 0.0098
v  0.0252 0.0000 0.0098
v  0.0252 0.0000 0.0150
v  0.0201 0.0000 0.0157
v  0.0201 0.0000 0.0150
v  -0.0201 0.0291 -0.0157
v  -0.0260 0.0291 -0.0157
v  -0.0252 0.0291 -0.0150
v  -0.0201 0.0291 -0.0150
v  -0.0201 0.0000 -0.0150
v  -0.0201 0.0000 -0.0157
v  -0.0260 0.0000 -0.0157
v  -0.0260 0.0291 -0.0098
v  -0.0252 0.0291 -0.0098
v  -0.0252 0.0000 -0.0150
v  -0.0260 0.0000 -0.0098
v  -0.0252 0.0000 -0.0098
v  -0.0260 0.0291 0.0098
v  -0.0260 0.0291 0.0157
v  -0.0252 0.0291 0.0150
v  -0.0252 0.0291 0.0098
v  -0.0260 0.0000 0.0098
v  -0.0260 0.0000 0.0157
v  -0.0201 0.0291 0.0157
v  -0.0201 0.0291 0.0150
v  -0.0252 0.0000 0.0150
v  -0.0252 0.0000 0.0098
v  -0.0201 0.0000 0.0157
v  -0.0201 0.0000 0.0150
# 48 vertices

vn 0.5773 0.5774 -0.5774
vn -0.5773 0.5773 -0.5774
vn -0.5774 0.5774 0.5773
vn -0.3015 0.9045 0.3016
vn 0.5774 0.5773 0.5773
vn -0.5773 0.5774 0.5774
vn 0.5774 -0.5773 -0.5773
vn -0.5774 -0.5774 -0.5773
vn -0.5773 -0.5773 0.5774
vn -0.3015 -0.9046 0.3015
vn 0.5773 -0.5774 0.5774
vn -0.5774 -0.5773 0.5773
vn 0.5775 0.5772 0.5774
vn 0.5775 0.5772 -0.5774
vn -0.5772 0.5775 -0.5773
vn -0.3013 0.9047 -0.3013
vn -0.5774 0.5773 -0.5773
vn 0.5772 -0.5775 0.5773
vn 0.5772 -0.5775 -0.5773
vn -0.5775 -0.5772 -0.5774
vn -0.3017 -0.9044 -0.3018
vn -0.5773 -0.5774 -0.5774
vn 0.5774 0.5773 -0.5774
vn -0.5774 0.5772 -0.5774
vn 0.3014 0.9046 0.3015
vn 0.5773 0.5774 0.5773
vn 0.5774 -0.5773 0.5774
vn 0.5773 -0.5774 -0.5773
vn -0.5773 -0.5775 -0.5773
vn -0.5774 0.5773 0.5773
vn 0.5773 0.5774 0.5774
vn 0.3016 -0.9045 0.3016
vn -0.5773 -0.5774 0.5774
vn 0.5774 -0.5773 0.5773
vn -0.5774 0.5773 -0.5774
vn -0.5774 0.5773 0.5774
vn 0.3014 0.9046 -0.3014
vn 0.5773 0.5774 -0.5773
vn -0.5773 -0.5774 -0.5773
vn -0.5773 -0.5774 0.5773
vn 0.5773 0.5772 0.5775
vn 0.5774 0.5775 -0.5772
vn 0.3016 -0.9044 -0.3017
vn 0.5774 -0.5773 -0.5774
vn 0.5774 -0.5775 0.5772
vn 0.5773 -0.5773 -0.5775
# 46 vertex normals

vt 1.1922 0.9196 0.8881
vt 1.0349 0.9196 0.8881
vt 1.0349 0.8986 0.8881
vt 1.1712 0.8986 0.8881
vt 1.1922 0.7622 0.8881
vt 1.1713 0.7622 0.8881
vt -0.1922 0.1119 0.9196
vt -0.0349 0.1119 0.9196
vt -0.0349 0.8881 0.9196
vt -0.1922 0.8881 0.9196
vt 0.1014 0.1119 1.0349
vt 0.1014 0.8881 1.0349
vt 0.0804 0.8881 1.0349
vt 0.0804 0.1119 1.0349
vt 1.1712 0.8881 0.8986
vt 1.0349 0.8881 0.8986
vt 1.0349 0.1119 0.8986
vt 1.1712 0.1119 0.8986
vt 0.7622 0.1119 1.1922
vt 0.9196 0.1119 1.1922
vt 0.9196 0.8881 1.1922
vt 0.7622 0.8881 1.1922
vt 0.2378 0.8881 1.1713
vt 0.1014 0.8881 1.1712
vt 0.1014 0.1119 1.1712
vt 0.2378 0.1119 1.1712
vt -0.1712 0.8986 0.1119
vt -0.0349 0.8986 0.1119
vt -0.0349 0.9196 0.1119
vt -0.1922 0.9196 0.1119
vt -0.1712 0.7622 0.1119
vt -0.1922 0.7622 0.1119
vt 1.1922 0.1119 0.7622
vt 1.1922 0.8881 0.7622
vt 1.1713 0.8881 0.7622
vt 1.1712 0.1119 0.7622
vt 1.1923 0.0804 0.8881
vt 1.1923 0.2378 0.8881
vt 1.1713 0.2378 0.8881
vt 1.1713 0.1014 0.8881
vt 1.0349 0.0804 0.8881
vt 1.0349 0.1014 0.8881
vt 0.0806 0.1119 1.1921
vt 0.2378 0.1119 1.1921
vt 0.2378 0.8881 1.1923
vt 0.0804 0.8881 1.1923
vt 0.8986 0.8881 1.1713
vt 0.7622 0.8881 1.1713
vt 0.7622 0.1119 1.1711
vt 0.8984 0.1119 1.1711
vt 0.9194 0.1119 1.0349
vt 0.9196 0.8881 1.0349
vt 0.8986 0.8881 1.0349
vt 0.8984 0.1119 1.0349
vt 1.0349 0.1119 0.0806
vt 1.1921 0.1119 0.0806
vt 1.1923 0.8881 0.0804
vt 1.0349 0.8881 0.0804
vt -0.0349 0.8881 0.1014
vt -0.1713 0.8881 0.1014
vt -0.1711 0.1119 0.1016
vt -0.0349 0.1119 0.1016
vt -0.1711 0.1016 0.1119
vt -0.1711 0.2378 0.1119
vt -0.1921 0.2378 0.1119
vt -0.1921 0.0806 0.1119
vt -0.0349 0.1016 0.1119
vt -0.0349 0.0806 0.1119
vt -0.1921 0.1119 0.2378
vt -0.1711 0.1119 0.2378
vt -0.1713 0.8881 0.2378
vt -0.1923 0.8881 0.2378
vt -0.0349 0.9196 0.8881
vt -0.1923 0.9196 0.8881
vt -0.1713 0.8986 0.8881
vt -0.0349 0.8986 0.8881
vt 0.8986 0.8881 -0.0349
vt 0.8986 0.1119 -0.0349
vt 0.9195 0.1119 -0.0349
vt 0.9196 0.8881 -0.0349
vt 1.0349 0.1119 0.9195
vt 1.1922 0.1119 0.9195
vt 1.1923 0.8881 0.9196
vt 1.0349 0.8881 0.9196
vt -0.1923 0.7622 0.8881
vt -0.1713 0.7622 0.8881
vt -0.0349 0.8881 0.8986
vt -0.1713 0.8881 0.8986
vt -0.1712 0.1119 0.8985
vt -0.0349 0.1119 0.8986
vt 1.0349 0.8986 0.1119
vt 1.1712 0.8985 0.1119
vt 1.1922 0.9195 0.1119
vt 1.0349 0.9195 0.1119
vt 0.0805 0.1119 -0.1922
vt 0.2378 0.1119 -0.1922
vt 0.2378 0.8881 -0.1923
vt 0.0804 0.8881 -0.1923
vt 0.8986 0.8881 -0.1713
vt 0.7622 0.8881 -0.1713
vt 0.7622 0.1119 -0.1712
vt 0.8985 0.1119 -0.1712
vt 1.1712 0.7622 0.1119
vt 1.1922 0.7622 0.1119
vt -0.1923 0.8881 0.7622
vt -0.1922 0.1119 0.7622
vt -0.1712 0.1119 0.7622
vt -0.1713 0.8881 0.7622
vt -0.1923 0.2378 0.8881
vt -0.1923 0.0804 0.8881
vt -0.1713 0.1014 0.8881
vt -0.1713 0.2378 0.8881
vt 0.7622 0.1119 -0.1922
vt 0.9194 0.1119 -0.1922
vt 0.9196 0.8881 -0.1923
vt 0.7622 0.8881 -0.1923
vt -0.0349 0.0804 0.8881
vt -0.0349 0.1014 0.8881
vt 0.2378 0.8881 -0.1713
vt 0.1014 0.8881 -0.1713
vt 0.1015 0.1119 -0.1712
vt 0.2378 0.1119 -0.1712
vt 1.1712 0.2378 0.1119
vt 1.1712 0.1015 0.1119
vt 1.1922 0.0806 0.1119
vt 1.1922 0.2378 0.1119
vt -0.1922 0.1119 0.0806
vt -0.0349 0.1119 0.0806
vt -0.0349 0.8881 0.0804
vt -0.1923 0.8881 0.0804
vt 0.0806 0.1119 -0.0349
vt 0.1015 0.1119 -0.0349
vt 0.1014 0.8881 -0.0349
vt 0.0804 0.8881 -0.0349
vt 1.1713 0.8881 0.1014
vt 1.0349 0.8881 0.1014
vt 1.0349 0.1119 0.1015
vt 1.1712 0.1119 0.1015
vt 1.0349 0.1015 0.1119
vt 1.0349 0.0806 0.1119
vt 1.1713 0.8881 0.2378
vt 1.1712 0.1119 0.2378
vt 1.1922 0.1119 0.2378
vt 1.1923 0.8881 0.2378
# 144 texture coords

o Rectangle002
g Rectangle002
usemtl Material__17
s 1
f 1/1/1 2/2/2 3/3/3 4/4/4 
f 5/5/5 1/1/1 4/4/4 6/6/6 
s 2
f 7/7/7 8/8/8 2/9/2 1/10/1 
s 16
f 9/11/9 3/12/3 2/13/2 8/14/8 
s 2
f 4/15/4 3/16/3 9/17/9 10/18/10 
s 4
f 11/19/11 7/20/7 1/21/1 5/22/5 
f 6/23/6 4/24/4 10/25/10 12/26/12 
s 1
f 10/27/10 9/28/9 8/29/8 7/30/7 
f 12/31/12 10/27/10 7/30/7 11/32/11 
s 8192
f 11/33/11 5/34/5 6/35/6 12/36/12 
s 1
f 13/37/13 14/38/14 15/39/15 16/40/16 
f 17/41/6 13/37/13 16/40/16 18/42/17 
s 4
f 19/43/18 20/44/19 14/45/14 13/46/13 
f 16/47/16 15/48/15 21/49/20 22/50/21 
s 16
f 23/51/12 17/52/6 18/53/17 24/54/22 
s 2
f 23/55/12 19/56/18 13/57/13 17/58/6 
f 18/59/17 16/60/16 22/61/21 24/62/22 
s 1
f 22/63/21 21/64/20 20/65/19 19/66/18 
f 24/67/22 22/63/21 19/66/18 23/68/12 
s 2048
f 20/69/19 21/70/20 15/71/15 14/72/14 
s 1
f 25/73/23 26/74/24 27/75/25 28/76/26 
s 64
f 28/77/26 29/78/27 30/79/28 25/80/23 
s 2
f 30/81/28 31/82/29 26/83/24 25/84/23 
s 1
f 26/74/24 32/85/30 33/86/31 27/75/25 
s 2
f 28/87/26 27/88/25 34/89/32 29/90/27 
s 1
f 29/91/27 34/92/32 31/93/29 30/94/28 
s 4
f 31/95/29 35/96/33 32/97/30 26/98/24 
f 27/99/25 33/100/31 36/101/34 34/102/32 
s 1
f 34/92/32 36/103/34 35/104/33 31/93/29 
s 8192
f 32/105/30 35/106/33 36/107/34 33/108/31 
s 1
f 37/109/35 38/110/36 39/111/37 40/112/38 
s 4
f 41/113/39 42/114/40 38/115/36 37/116/35 
s 1
f 38/110/36 43/117/41 44/118/42 39/111/37 
s 4
f 40/119/38 39/120/37 45/121/43 46/122/44 
s 1
f 46/123/44 45/124/43 42/125/40 41/126/39 
s 2
f 42/127/40 47/128/45 43/129/41 38/130/36 
s 64
f 47/131/45 48/132/46 44/133/42 43/134/41 
s 2
f 39/135/37 44/136/42 48/137/46 45/138/43 
s 1
f 45/124/43 48/139/46 47/140/45 42/125/40 
s 2048
f 40/141/38 46/142/44 41/143/39 37/144/35 
# 40 polygons

#
# object Rectangle001
#

v  0.0252 0.0299 -0.0150
v  -0.0252 0.0299 -0.0150
v  -0.0244 0.0299 -0.0142
v  0.0244 0.0299 -0.0142
v  -0.0244 0.0260 -0.0142
v  0.0244 0.0260 -0.0142
v  -0.0252 0.0260 -0.0150
v  0.0252 0.0260 -0.0150
v  -0.0252 0.0299 0.0150
v  -0.0244 0.0299 0.0142
v  -0.0244 0.0260 0.0142
v  -0.0252 0.0260 0.0150
v  0.0252 0.0299 0.0150
v  0.0244 0.0299 0.0142
v  0.0244 0.0260 0.0142
v  0.0252 0.0260 0.0150
# 16 vertices

vn 0.5773 0.5774 -0.5774
vn -0.5774 0.5772 -0.5774
vn 0.3015 0.9046 0.3015
vn -0.3015 0.9045 0.3015
vn 0.3016 -0.9045 0.3016
vn -0.3015 -0.9045 0.3015
vn -0.5773 -0.5775 -0.5773
vn 0.5774 -0.5773 -0.5773
vn -0.5774 0.5773 0.5774
vn 0.3014 0.9046 -0.3014
vn 0.3017 -0.9044 -0.3017
vn -0.5773 -0.5774 0.5773
vn 0.5774 0.5772 0.5774
vn -0.3013 0.9047 -0.3013
vn -0.3017 -0.9044 -0.3017
vn 0.5773 -0.5775 0.5773
# 16 vertex normals

vt 1.0000 1.0000 1.0000
vt 0.0000 1.0000 1.0000
vt 0.0156 0.9737 1.0000
vt 0.9844 0.9737 1.0000
vt 0.9844 1.0000 0.9737
vt 0.0156 1.0000 0.9737
vt 0.0156 0.0000 0.9737
vt 0.9844 0.0000 0.9737
vt 0.0156 0.9737 0.0000
vt 0.9844 0.9737 0.0000
vt 1.0000 1.0000 0.0000
vt 0.0000 1.0000 0.0000
vt 0.0000 0.0000 1.0000
vt 1.0000 0.0000 1.0000
vt 0.0156 0.0263 1.0000
vt 0.9737 1.0000 0.0156
vt 0.0263 1.0000 0.0156
vt 0.0263 0.0000 0.0156
vt 0.9737 0.0000 0.0156
vt 0.9844 0.0263 0.0000
vt 1.0000 0.0000 0.0000
vt 0.0000 0.0000 0.0000
vt 1.0000 0.0000 0.9999
vt 0.9844 0.0263 1.0000
vt 0.9844 1.0000 0.0263
vt 0.0156 1.0000 0.0263
vt 0.0156 0.0001 0.0264
vt 0.9844 0.0000 0.0263
vt 0.0156 0.0264 0.0001
vt 1.0000 0.9999 0.0000
vt 0.9737 1.0000 0.9844
vt 0.0263 1.0000 0.9844
vt 0.0263 0.0000 0.9844
vt 0.9736 0.0001 0.9844
vt 0.0000 0.9999 1.0000
# 35 texture coords

o Rectangle001
g Rectangle001
usemtl 07___Default
s 1
f 49/145/47 50/146/48 51/147/49 52/148/50 
s 2
f 52/149/50 51/150/49 53/151/51 54/152/52 
s 1
f 54/153/52 53/154/51 55/155/53 56/156/54 
s 2
f 56/157/54 55/158/53 50/145/48 49/146/47 
s 1
f 50/146/48 57/157/55 58/159/56 51/147/49 
s 4
f 51/160/49 58/161/56 59/162/57 53/163/51 
s 1
f 53/154/51 59/164/57 60/165/58 55/155/53 
s 4
f 55/166/53 60/165/58 57/155/55 50/156/48 
s 1
f 57/157/55 61/167/59 62/168/60 58/159/56 
s 2
f 58/169/56 62/170/60 63/171/61 59/172/57 
s 1
f 59/164/57 63/173/61 64/166/62 60/165/58 
s 2
f 60/166/58 64/165/62 61/174/59 57/156/55 
s 1
f 61/167/59 49/145/47 52/148/50 62/168/60 
s 4
f 62/175/60 52/176/50 54/177/52 63/178/61 
s 1
f 63/173/61 54/153/52 56/156/54 64/166/62 
s 4
f 64/157/62 56/158/54 49/145/47 61/179/59 
# 16 polygons

#
# object Box001
#

v  -0.0260 0.0295 0.0157
v  -0.0260 0.0295 -0.0157
v  0.0260 0.0295 -0.0157
v  0.0260 0.0295 0.0157
v  -0.0260 0.0303 0.0157
v  0.0260 0.0303 0.0157
v  0.0260 0.0303 -0.0157
v  -0.0260 0.0303 -0.0157
# 8 vertices

vn -0.5774 -0.5774 0.5774
vn -0.5774 -0.5774 -0.5774
vn 0.5774 -0.5774 -0.5774
vn 0.5774 -0.5774 0.5774
vn -0.5774 0.5774 0.5774
vn 0.5774 0.5774 0.5774
vn 0.5774 0.5774 -0.5774
vn -0.5774 0.5774 -0.5774
# 8 vertex normals

vt 0.0000 0.0000 0.0000
vt 0.0000 1.0000 0.0000
vt 2.0000 1.0000 0.0000
vt 2.0000 0.0000 0.0000
vt 2.0000 0.0000 1.0000
vt 0.0000 0.0000 1.0000
vt 0.0000 1.0000 1.0000
vt 2.0000 1.0000 1.0000
# 8 texture coords

o Box001
g Box001
usemtl Material__17
s 2
f 65/180/63 66/181/64 67/182/65 68/183/66 
s 4
f 69/184/67 70/185/68 71/186/69 72/187/70 
s 8
f 65/183/63 68/180/66 70/181/68 69/182/67 
s 16
f 68/184/66 67/185/65 71/186/69 70/187/68 
s 32
f 67/184/65 66/185/64 72/186/70 71/187/69 
s 64
f 66/183/64 65/180/63 69/181/67 72/182/70 
# 6 polygons

