<svg width="335" height="235" viewBox="0 0 335 235" fill="none" xmlns="http://www.w3.org/2000/svg">
<path d="M13 111.233H205.97V175.195H13V111.233Z" stroke="url(#paint0_linear)" stroke-linejoin="round"/>
<path d="M210.848 141.045V173.026" stroke="white" stroke-opacity="0.5" stroke-linejoin="round"/>
<path d="M13 175.194H205.97L210.848 173.026" stroke="white" stroke-linejoin="round"/>
<rect x="13" y="142.671" width="192.97" height="32.523" stroke="white" stroke-linejoin="round"/>
<path d="M13 142.672V111.414L91.5 77" stroke="url(#paint1_linear)" stroke-linejoin="round"/>
<path d="M92 77H284.5" stroke="white" stroke-opacity="0.3" stroke-linejoin="round"/>
<path d="M97.5598 18H290.529V137.793" stroke="white" stroke-linejoin="round"/>
<path d="M91.5972 77.0002V21.2522H284.567V140.503H211" stroke="white" stroke-linejoin="round"/>
<path d="M289.987 137.793L284.567 140.503H211" stroke="white" stroke-linejoin="round"/>
<path d="M97.0177 18.542H289.987L284.567 21.2522H91.5972L97.0177 18.542Z" stroke="white" stroke-linejoin="round"/>
<path d="M205.97 142.672V111.414L284.5 77.0144V108.272L205.97 142.672Z" stroke="url(#paint2_linear)" stroke-linejoin="round"/>
<path d="M290.529 17C289.977 17 289.529 17.4477 289.529 18C289.529 18.5523 289.977 19 290.529 19V17ZM316.548 19C317.1 19 317.548 18.5523 317.548 18C317.548 17.4477 317.1 17 316.548 17V19ZM316.548 138.793C317.1 138.793 317.548 138.345 317.548 137.793C317.548 137.241 317.1 136.793 316.548 136.793V138.793ZM290.529 136.793C289.977 136.793 289.529 137.241 289.529 137.793C289.529 138.345 289.977 138.793 290.529 138.793V136.793ZM311.669 18.271L305.896 28.271H317.443L311.669 18.271ZM311.669 137.522L317.443 127.522H305.896L311.669 137.522ZM290.529 19H311.669V17H290.529V19ZM311.669 19H316.548V17H311.669V19ZM316.548 136.793H311.669V138.793H316.548V136.793ZM311.669 136.793H290.529V138.793H311.669V136.793ZM310.669 27.271V128.522H312.669V27.271H310.669Z" fill="#DF661C"/>
<rect x="300.997" y="105.448" width="55" height="20" rx="10" transform="rotate(-90 300.997 105.448)" fill="#313131"/>
<path d="M314.997 95.6492V92.8616C314.997 91.1713 314.155 90.4078 313.04 90.4078C311.914 90.4078 311.279 91.1961 311.239 91.917H311.168C310.998 91.2494 310.543 90.6918 309.634 90.6918C308.558 90.6918 307.724 91.4376 307.724 92.9859V95.6492H314.997ZM314.056 94.5519H311.726V92.9291C311.726 92.0484 312.294 91.498 312.987 91.498C313.597 91.498 314.056 91.9134 314.056 92.9681V94.5519ZM310.87 94.5519H308.658V93.0534C308.658 92.1833 309.116 91.7678 309.72 91.7678C310.423 91.7678 310.87 92.3431 310.87 93.0818V94.5519ZM311.417 88.151H309.542V89.1915H314.997V86.8087C314.997 85.4735 314.222 84.7277 313.196 84.7277C312.149 84.7277 311.417 85.4735 311.417 86.8087V88.151ZM314.997 83.9536V82.8918H309.542V83.9536H314.997ZM312.333 88.151V86.8087C312.333 86.1979 312.703 85.7611 313.228 85.7611C313.725 85.7611 314.08 86.1979 314.08 86.8087V88.151H312.333ZM315.107 79.1693C315.107 77.8802 314.333 77.0457 313.271 76.9285V77.9619C313.86 78.0969 314.208 78.555 314.208 79.1622C314.208 80.0606 313.459 80.6395 312.269 80.6395C311.101 80.6395 310.366 80.05 310.366 79.1622C310.366 78.4875 310.792 78.0756 311.303 77.9619V76.9285C310.203 77.0422 309.471 77.9406 309.471 79.18C309.471 80.7176 310.629 81.7119 312.294 81.7119C313.938 81.7119 315.107 80.7531 315.107 79.1693ZM315.107 73.4955C315.107 71.9578 313.981 70.9529 312.294 70.9529C310.597 70.9529 309.471 71.9578 309.471 73.4955C309.471 75.0331 310.597 76.0381 312.294 76.0381C313.981 76.0381 315.107 75.0331 315.107 73.4955ZM314.215 73.4919C314.215 74.4969 313.338 74.9656 312.291 74.9656C311.247 74.9656 310.359 74.4969 310.359 73.4919C310.359 72.4941 311.247 72.0253 312.291 72.0253C313.338 72.0253 314.215 72.4941 314.215 73.4919ZM310.458 70.4246V68.6384H314.997V67.6015H310.458V65.8224H309.542V70.4246H310.458ZM315.117 63.3659C315.117 62.4639 314.659 61.9561 314.251 61.7536V61.711H314.997V60.6741H311.374C309.787 60.6741 309.471 61.9241 309.471 62.7906C309.471 63.7778 309.869 64.6869 310.863 65.042L311.09 64.0441C310.703 63.8879 310.33 63.4901 310.33 62.7764C310.33 62.091 310.689 61.7394 311.307 61.7394H311.332C311.719 61.7394 311.712 62.1372 311.825 63.1173C311.946 64.1507 312.216 65.2089 313.455 65.2089C314.528 65.2089 315.117 64.4028 315.117 63.3659ZM314.265 63.135C314.265 63.7352 313.995 64.1684 313.47 64.1684C312.901 64.1684 312.699 63.6642 312.617 63.0498C312.571 62.7053 312.479 61.8886 312.326 61.7359H313.029C313.676 61.7359 314.265 62.2508 314.265 63.135Z" fill="white"/>
<rect x="300.997" y="105.448" width="55" height="20" rx="10" transform="rotate(-90 300.997 105.448)" stroke="#DF661C" stroke-width="2"/>
<path d="M307.401 177.314C307.622 177.819 308.212 178.05 308.718 177.828C309.224 177.606 309.454 177.016 309.232 176.51L307.401 177.314ZM222.181 214.685C222.403 215.191 222.993 215.421 223.499 215.199C224.005 214.977 224.235 214.388 224.013 213.882L222.181 214.685ZM305.016 170.433L293.539 169.162L298.176 179.737L305.016 170.433ZM220.182 207.635L231.659 208.907L227.021 198.332L220.182 207.635ZM291.949 137.098C291.727 136.593 291.137 136.362 290.631 136.584C290.126 136.806 289.895 137.396 290.117 137.902L291.949 137.098ZM206.786 174.598C206.564 174.093 205.974 173.862 205.469 174.084C204.963 174.306 204.733 174.896 204.954 175.402L206.786 174.598ZM301.57 164.018L307.401 177.314L309.232 176.51L303.402 163.214L301.57 164.018ZM224.013 213.882L218.182 200.586L216.351 201.389L222.181 214.685L224.013 213.882ZM296.372 173.132L228.022 203.105L228.826 204.937L297.175 174.963L296.372 173.132ZM290.117 137.902L301.57 164.018L303.402 163.214L291.949 137.098L290.117 137.902ZM218.182 200.586L206.786 174.598L204.954 175.402L216.351 201.389L218.182 200.586Z" fill="#DF661C"/>
<rect x="231.552" y="191.584" width="59" height="20" rx="10" transform="rotate(-23.679 231.552 191.584)" fill="#313131"/>
<path d="M247.381 191.988L243.228 193.81L246.148 200.47L247.153 200.029L244.612 194.234L247.76 192.853L247.381 191.988ZM250.963 198.359L251.275 198.222C252.364 197.744 252.411 196.762 251.764 195.076L251.098 193.344L252.73 192.628L254.553 196.784L255.506 196.367L253.315 191.371L249.829 192.9L250.711 195.15C251.325 196.719 251.325 197.196 250.769 197.44L250.59 197.518L250.963 198.359ZM258.06 197.48C258.863 197.128 259.187 196.486 259.131 195.572L258.717 189.014L257.663 189.465L258.097 193.896L258.045 193.919L255.08 190.597L254.04 191.054L258.086 195.312L258.112 195.697C258.155 196.469 257.832 196.677 257.234 196.764L257.349 197.664C257.489 197.664 257.767 197.608 258.06 197.48ZM262.667 185.052C262.509 185.354 262.138 185.517 261.62 185.74C261.467 185.807 261.301 185.88 261.12 185.963C259.515 186.706 259.2 188.217 260.201 190.5L260.418 190.994C261.223 192.828 262.557 193.395 263.952 192.783C265.347 192.171 265.826 190.805 265.145 189.251C264.471 187.716 263.211 187.256 262.008 187.784C261.283 188.102 260.813 188.676 260.759 189.437L260.697 189.464C260.253 188.15 260.453 187.314 261.518 186.808C262.465 186.358 263.074 186.095 263.34 185.49L262.667 185.052ZM263.597 191.965C262.771 192.327 261.978 191.888 261.526 190.857C261.095 189.84 261.339 189.043 262.148 188.688C262.971 188.327 263.726 188.686 264.17 189.698C264.623 190.732 264.41 191.609 263.597 191.965ZM267.649 189.417L266.056 185.784L265.103 186.202L267.293 191.197L268.35 190.734L268.948 186.137L270.542 189.773L271.495 189.355L269.304 184.359L268.257 184.819L267.649 189.417ZM271.565 183.368L270.612 183.786L272.802 188.781L273.755 188.364L272.845 186.289L275.008 185.34L275.918 187.415L276.868 186.999L274.677 182.003L273.727 182.42L274.639 184.498L272.476 185.446L271.565 183.368ZM279.671 185.901C280.497 185.539 280.778 184.916 280.799 184.46L280.838 184.443L281.138 185.126L282.087 184.71L280.633 181.392C279.995 179.939 278.723 180.151 277.93 180.499C277.026 180.896 276.353 181.625 276.427 182.678L277.432 182.486C277.42 182.069 277.634 181.567 278.288 181.281C278.916 181.005 279.382 181.193 279.63 181.759L279.64 181.781C279.795 182.136 279.428 182.289 278.576 182.787C277.678 183.312 276.818 183.984 277.315 185.119C277.746 186.102 278.721 186.318 279.671 185.901ZM279.54 185.028C278.99 185.269 278.485 185.196 278.274 184.715C278.046 184.194 278.426 183.806 278.956 183.485C279.253 183.304 279.964 182.892 280.042 182.69L280.325 183.334C280.584 183.926 280.35 184.673 279.54 185.028Z" fill="white"/>
<rect x="231.552" y="191.584" width="59" height="20" rx="10" transform="rotate(-23.679 231.552 191.584)" stroke="#DF661C" stroke-width="2"/>
<path d="M206.97 175.736C206.97 175.184 206.522 174.736 205.97 174.736C205.417 174.736 204.97 175.184 204.97 175.736H206.97ZM204.97 201.755C204.97 202.307 205.417 202.755 205.97 202.755C206.522 202.755 206.97 202.307 206.97 201.755H204.97ZM12 201.755C12 202.307 12.4477 202.755 13 202.755C13.5523 202.755 14 202.307 14 201.755H12ZM14 175.736C14 175.184 13.5523 174.736 13 174.736C12.4477 174.736 12 175.184 12 175.736H14ZM205.533 196.876L195.533 191.103V202.65L205.533 196.876ZM13.4366 196.876L23.4366 202.65V191.103L13.4366 196.876ZM204.97 175.736V196.876H206.97V175.736H204.97ZM204.97 196.876V201.755H206.97V196.876H204.97ZM14 201.755V196.876H12V201.755H14ZM14 196.876V175.736H12V196.876H14ZM196.533 195.876H22.4366V197.876H196.533V195.876Z" fill="#DF661C"/>
<rect x="78.7463" y="187.204" width="58" height="20" rx="10" fill="#313131"/>
<path d="M88.8414 193.931V201.204H96.8918V193.931H95.8087V200.252H93.4152V193.931H92.3286V200.252H89.928V193.931H88.8414ZM99.5445 199.716V195.749H98.504V201.204H99.6581L102.052 197.233V201.204H103.092V195.749H101.949L99.5445 199.716ZM104.52 203.249H105.581V200.355H105.645C105.837 200.703 106.228 201.31 107.222 201.31C108.543 201.31 109.502 200.252 109.502 198.487C109.502 196.719 108.529 195.678 107.211 195.678C106.199 195.678 105.834 196.296 105.645 196.633H105.557V195.749H104.52V203.249ZM105.56 198.476C105.56 197.336 106.057 196.58 106.984 196.58C107.946 196.58 108.429 197.393 108.429 198.476C108.429 199.57 107.932 200.405 106.984 200.405C106.071 200.405 105.56 199.623 105.56 198.476ZM111.732 199.716V195.749H110.692V201.204H111.846L114.239 197.233V201.204H115.28V195.749H114.136L111.732 199.716ZM117.748 195.749H116.707V201.204H117.748V198.938H120.109V201.204H121.146V195.749H120.109V198.018H117.748V195.749ZM124.154 201.324C125.056 201.324 125.564 200.866 125.766 200.458H125.809V201.204H126.846V197.581C126.846 195.994 125.596 195.678 124.729 195.678C123.742 195.678 122.833 196.076 122.478 197.07L123.476 197.297C123.632 196.91 124.03 196.537 124.743 196.537C125.429 196.537 125.78 196.896 125.78 197.514V197.539C125.78 197.926 125.383 197.919 124.402 198.032C123.369 198.153 122.311 198.423 122.311 199.662C122.311 200.735 123.117 201.324 124.154 201.324ZM124.385 200.472C123.785 200.472 123.351 200.202 123.351 199.677C123.351 199.108 123.856 198.906 124.47 198.824C124.814 198.778 125.631 198.686 125.784 198.533V199.236C125.784 199.883 125.269 200.472 124.385 200.472Z" fill="white"/>
<rect x="78.7463" y="187.204" width="58" height="20" rx="10" stroke="#DF661C" stroke-width="2"/>
<defs>
<linearGradient id="paint0_linear" x1="205.97" y1="111.233" x2="13" y2="175.195" gradientUnits="userSpaceOnUse">
<stop stop-color="white"/>
<stop offset="1" stop-color="white" stop-opacity="0.29"/>
</linearGradient>
<linearGradient id="paint1_linear" x1="13" y1="118.551" x2="125.475" y2="93.6163" gradientUnits="userSpaceOnUse">
<stop stop-color="white"/>
<stop offset="1" stop-color="white" stop-opacity="0"/>
</linearGradient>
<linearGradient id="paint2_linear" x1="205.97" y1="113.672" x2="299.473" y2="98.4945" gradientUnits="userSpaceOnUse">
<stop stop-color="white"/>
<stop offset="1" stop-color="white" stop-opacity="0"/>
</linearGradient>
</defs>
</svg>
