<svg width="275" height="254" viewBox="0 0 275 254" fill="none" xmlns="http://www.w3.org/2000/svg">
<rect x="11.0888" y="36.9625" width="204.771" height="204.771" stroke="white" stroke-width="1.47849"/>
<rect x="69.4892" y="0.739247" width="204.771" height="204.771" stroke="white" stroke-width="1.47849"/>
<path d="M215.86 241.162V36.6399L274.261 1.31119V205.833L215.86 241.162Z" stroke="white" stroke-width="1.47849"/>
<path d="M11.0888 241.162V36.6399L69.4893 1.31119V205.833L11.0888 241.162Z" stroke="white" stroke-width="1.47849"/>
<rect x="93.8844" y="232.123" width="54.7043" height="21.2306" rx="10.6153" fill="white"/>
<path d="M103.758 238.801V245.006H105.822V238.801H107.359V245.006H109.402V238.801H110.935V246.237H102.221V238.801H103.758ZM115.496 240.711H116.972V246.237H115.496V242.825L113.647 246.237H112.165V240.711H113.647V244.118L115.496 240.711ZM123.075 243.525C123.075 244.376 122.881 245.059 122.493 245.573C122.108 246.084 121.587 246.339 120.93 246.339C120.372 246.339 119.92 246.145 119.577 245.757V248.362H118.1V240.711H119.469L119.52 241.252C119.878 240.823 120.344 240.609 120.92 240.609C121.601 240.609 122.13 240.861 122.508 241.365C122.886 241.869 123.075 242.563 123.075 243.448V243.525ZM121.599 243.418C121.599 242.904 121.507 242.507 121.323 242.228C121.143 241.949 120.879 241.809 120.532 241.809C120.069 241.809 119.75 241.986 119.577 242.34V244.603C119.757 244.967 120.079 245.149 120.542 245.149C121.247 245.149 121.599 244.572 121.599 243.418ZM127.325 240.711H128.801V246.237H127.325V242.825L125.476 246.237H123.995V240.711H125.476V244.118L127.325 240.711ZM134.721 246.237H133.239V244.112H131.406V246.237H129.93V240.711H131.406V242.928H133.239V240.711H134.721V246.237ZM139.067 246.237C138.999 246.104 138.95 245.939 138.919 245.742C138.561 246.14 138.097 246.339 137.525 246.339C136.983 246.339 136.534 246.183 136.176 245.869C135.822 245.556 135.645 245.161 135.645 244.685C135.645 244.099 135.861 243.649 136.294 243.336C136.73 243.023 137.358 242.865 138.178 242.861H138.858V242.544C138.858 242.289 138.791 242.085 138.659 241.932C138.529 241.778 138.323 241.702 138.041 241.702C137.792 241.702 137.596 241.761 137.453 241.88C137.314 242 137.244 242.163 137.244 242.371H135.768C135.768 242.051 135.866 241.754 136.064 241.482C136.261 241.21 136.541 240.997 136.902 240.844C137.262 240.687 137.668 240.609 138.117 240.609C138.798 240.609 139.338 240.781 139.736 241.125C140.138 241.465 140.339 241.945 140.339 242.565V244.96C140.342 245.485 140.416 245.881 140.559 246.15V246.237H139.067ZM137.846 245.211C138.064 245.211 138.265 245.163 138.449 245.068C138.633 244.969 138.769 244.838 138.858 244.674V243.724H138.306C137.567 243.724 137.174 243.98 137.126 244.49L137.121 244.577C137.121 244.761 137.186 244.913 137.315 245.032C137.445 245.151 137.622 245.211 137.846 245.211Z" fill="black"/>
<rect y="165.591" width="52.4866" height="21.2306" rx="10.6153" transform="rotate(-90 0 165.591)" fill="white"/>
<path d="M14.114 157.393H6.6773V154.788C6.6773 153.886 6.85096 153.201 7.19827 152.735C7.54218 152.268 8.04784 152.035 8.71523 152.035C9.07957 152.035 9.40135 152.129 9.68056 152.316C9.95637 152.503 10.159 152.764 10.2884 153.097C10.3837 152.716 10.5761 152.416 10.8655 152.199C11.155 151.977 11.5091 151.867 11.9279 151.867C12.643 151.867 13.1844 152.095 13.5521 152.551C13.9199 153.007 14.1071 153.658 14.114 154.502V157.393ZM10.8757 155.861H12.883V154.548C12.883 154.187 12.7979 153.906 12.6276 153.705C12.454 153.501 12.2156 153.399 11.9126 153.399C11.2316 153.399 10.886 153.751 10.8757 154.456V155.861ZM9.79293 155.861V154.727C9.77931 153.954 9.47115 153.567 8.86846 153.567C8.53135 153.567 8.28959 153.666 8.14318 153.864C7.99335 154.058 7.91844 154.366 7.91844 154.788V155.861H9.79293ZM10.2066 149.231V148.174C10.2066 147.697 10.2867 147.278 10.4467 146.917C10.6067 146.556 10.8366 146.281 11.1362 146.09C11.4325 145.896 11.7781 145.799 12.1731 145.799C12.7553 145.799 13.2252 146.015 13.5828 146.447C13.9369 146.876 14.114 147.462 14.114 148.204V150.712H8.58754V149.231H10.2066ZM14.114 143.449L14.114 144.925H8.58754V143.449H14.114ZM11.3916 149.231H12.9341V148.184C12.9341 147.891 12.866 147.666 12.7298 147.51C12.5936 147.353 12.408 147.275 12.1731 147.275C11.9347 147.275 11.7457 147.351 11.6061 147.505C11.4631 147.658 11.3916 147.884 11.3916 148.184V149.231ZM13.026 139.848C13.026 139.576 12.9511 139.355 12.8013 139.184C12.6515 139.014 12.4523 138.926 12.2037 138.919V137.535C12.5783 137.538 12.9222 137.64 13.2354 137.841C13.5453 138.042 13.7871 138.318 13.9607 138.669C14.131 139.016 14.2161 139.401 14.2161 139.823C14.2161 140.613 13.9658 141.236 13.4653 141.692C12.9613 142.148 12.2667 142.377 11.3814 142.377H11.2843C10.4331 142.377 9.75377 142.15 9.24642 141.697C8.73906 141.244 8.48539 140.623 8.48539 139.833C8.48539 139.142 8.68288 138.589 9.07787 138.173C9.46945 137.754 9.99213 137.541 10.6459 137.535V138.919C10.3599 138.926 10.1283 139.014 9.95126 139.184C9.7708 139.355 9.68056 139.579 9.68056 139.859C9.68056 140.203 9.80655 140.463 10.0585 140.64C10.3071 140.814 10.7123 140.901 11.2741 140.901H11.4274C11.996 140.901 12.4046 140.814 12.6532 140.64C12.9018 140.466 13.026 140.203 13.026 139.848ZM11.2997 136.922C10.7515 136.922 10.2628 136.816 9.83379 136.605C9.40475 136.394 9.07276 136.091 8.83781 135.696C8.60286 135.298 8.48539 134.836 8.48539 134.312C8.48539 133.566 8.71353 132.958 9.1698 132.488C9.62608 132.015 10.2458 131.751 11.029 131.697L11.4069 131.686C12.2548 131.686 12.9358 131.923 13.45 132.396C13.9607 132.87 14.2161 133.505 14.2161 134.302C14.2161 135.098 13.9607 135.735 13.45 136.212C12.9392 136.685 12.2446 136.922 11.3661 136.922H11.2997ZM11.4069 135.446C11.9313 135.446 12.3331 135.347 12.6123 135.149C12.8881 134.952 13.026 134.669 13.026 134.302C13.026 133.944 12.8898 133.665 12.6174 133.464C12.3416 133.263 11.9024 133.163 11.2997 133.163C10.7855 133.163 10.3871 133.263 10.1045 133.464C9.82187 133.665 9.68056 133.947 9.68056 134.312C9.68056 134.673 9.82187 134.952 10.1045 135.149C10.3837 135.347 10.8179 135.446 11.4069 135.446ZM9.7725 126.344V128.116H14.114V129.597H9.7725V131.339H8.58754V126.344H9.7725ZM14.114 122.477C13.9812 122.546 13.816 122.595 13.6185 122.626C14.0169 122.983 14.2161 123.448 14.2161 124.02C14.2161 124.561 14.0595 125.011 13.7462 125.368C13.4329 125.722 13.038 125.9 12.5612 125.9C11.9756 125.9 11.5261 125.683 11.2128 125.251C10.8996 124.815 10.7412 124.187 10.7378 123.366V122.687H10.4212C10.1658 122.687 9.96148 122.753 9.80825 122.886C9.65502 123.015 9.57841 123.221 9.57841 123.504C9.57841 123.753 9.638 123.948 9.75718 124.091C9.87635 124.231 10.0398 124.301 10.2475 124.301V125.777C9.92743 125.777 9.63119 125.678 9.35878 125.481C9.08638 125.283 8.87356 125.004 8.72034 124.643C8.5637 124.282 8.48539 123.877 8.48539 123.427C8.48539 122.746 8.65734 122.207 9.00125 121.808C9.34176 121.407 9.82187 121.206 10.4416 121.206H12.8371C13.3614 121.202 13.7581 121.129 14.0271 120.986H14.114V122.477ZM13.0873 123.698C13.0873 123.48 13.0397 123.279 12.9443 123.095C12.8456 122.912 12.7145 122.775 12.551 122.687H11.601V123.238C11.601 123.977 11.8564 124.371 12.3672 124.418L12.454 124.423C12.6379 124.423 12.7894 124.359 12.9086 124.229C13.0277 124.1 13.0873 123.923 13.0873 123.698Z" fill="black"/>
<rect x="17.1356" y="225.605" width="53.9651" height="21.2306" rx="10.6153" transform="rotate(-30.7018 17.1356 225.605)" fill="white"/>
<path d="M32.3195 225.798L29.4517 227.501L32.6149 232.828L31.2974 233.61L27.5005 227.216L31.6858 224.731L32.3195 225.798ZM36.4687 224.112L39.2903 228.864L38.0211 229.618L35.8097 225.894L34.6898 226.559L35.4818 228.072C35.8962 228.884 36.0806 229.544 36.0351 230.054C35.9895 230.565 35.7147 230.975 35.2104 231.287L34.78 231.542L34.154 230.518L34.3043 230.411C34.5223 230.258 34.6092 230.024 34.5651 229.71C34.5209 229.395 34.3321 228.927 33.9986 228.306L32.8895 226.238L36.4687 224.112ZM40.9773 225.433L40.1006 221.956L41.462 221.147L42.8114 227.771L42.8546 228.084C42.9392 228.873 42.655 229.462 42.0021 229.85C41.8177 229.959 41.6138 230.043 41.3905 230.1L40.8194 229.138L41.0152 229.028C41.2553 228.885 41.4121 228.743 41.4858 228.6C41.5624 228.455 41.5839 228.278 41.5504 228.068L41.4676 227.589L36.9737 223.812L38.3396 223.001L40.9773 225.433ZM44.4775 219.713C45.0865 219.351 45.6925 219.265 46.2954 219.453C46.8984 219.642 47.4059 220.083 47.8179 220.777L47.8544 220.838C48.2612 221.523 48.3852 222.192 48.2263 222.845C48.0674 223.498 47.6468 224.027 46.9647 224.432C46.2796 224.839 45.6014 224.94 44.9302 224.737C44.2602 224.529 43.6974 224.041 43.2419 223.274L43.1167 223.063C42.488 221.991 42.1717 221.049 42.1679 220.235C42.1652 219.417 42.4741 218.717 43.0946 218.134C43.4207 217.83 43.6144 217.606 43.6758 217.463C43.7354 217.316 43.7227 217.171 43.6375 217.028L44.6651 216.418C44.9381 216.877 45.0188 217.297 44.9073 217.676C44.7987 218.053 44.4656 218.492 43.9079 218.994C43.5784 219.293 43.3705 219.616 43.2842 219.964C43.1979 220.312 43.2349 220.708 43.3953 221.152C43.5663 220.519 43.9271 220.04 44.4775 219.713ZM44.8462 220.884C44.5446 221.063 44.3674 221.305 44.3147 221.61C44.2648 221.912 44.3746 222.291 44.6441 222.745C44.884 223.149 45.1509 223.408 45.4447 223.523C45.7367 223.634 46.0408 223.596 46.3571 223.408C46.6645 223.226 46.8399 222.981 46.8834 222.674C46.9268 222.367 46.83 222.011 46.593 221.605L46.5305 221.5C46.2992 221.11 46.0373 220.866 45.7446 220.766C45.4531 220.662 45.1536 220.702 44.8462 220.884ZM49.8677 216.156L51.1369 215.402L53.9586 220.154L52.6894 220.908L50.9474 217.974L51.0996 221.852L49.826 222.608L47.0044 217.856L48.278 217.1L50.0173 220.029L49.8677 216.156ZM59.0485 217.132L57.7749 217.888L56.6901 216.061L55.1135 216.997L56.1983 218.824L54.9291 219.578L52.1075 214.826L53.3767 214.072L54.5085 215.978L56.0851 215.042L54.9533 213.136L56.2269 212.38L59.0485 217.132ZM62.7859 214.912C62.6595 214.833 62.5327 214.716 62.4056 214.562C62.3015 215.087 62.0036 215.496 61.5117 215.788C61.0462 216.064 60.5798 216.159 60.1124 216.072C59.648 215.984 59.2941 215.734 59.0507 215.325C58.7516 214.821 58.7081 214.324 58.92 213.834C59.1348 213.342 59.5941 212.885 60.298 212.463L60.8821 212.116L60.7204 211.844C60.59 211.625 60.4286 211.483 60.2362 211.419C60.0467 211.353 59.8304 211.392 59.5874 211.537C59.3737 211.664 59.2358 211.815 59.1737 211.99C59.1145 212.164 59.1379 212.34 59.2439 212.519L57.9747 213.273C57.8113 212.997 57.745 212.692 57.7757 212.357C57.8064 212.022 57.9379 211.697 58.17 211.38C58.4003 211.062 58.7088 210.787 59.0952 210.558C59.6808 210.21 60.2326 210.082 60.7508 210.175C61.2701 210.262 61.688 210.573 62.0044 211.105L63.2275 213.165C63.4981 213.614 63.7636 213.918 64.0239 214.076L64.0682 214.151L62.7859 214.912ZM61.2121 214.653C61.3995 214.542 61.5479 214.398 61.6573 214.222C61.765 214.043 61.8152 213.861 61.8078 213.675L61.3228 212.859L60.8485 213.14C60.2131 213.518 60.0054 213.938 60.2252 214.401L60.2651 214.479C60.359 214.637 60.492 214.734 60.6641 214.77C60.8362 214.807 61.0189 214.768 61.2121 214.653Z" fill="black"/>
</svg>
