{
    "asset" : {
        "generator" : "Khronos glTF Blender I/O v1.5.17",
        "version" : "2.0"
    },
    "scene" : 0,
    "scenes" : [
        {
            "name" : "Scene",
            "nodes" : [
                9
            ]
        }
    ],
    "nodes" : [
        {
            "mesh" : 0,
            "name" : "Box001",
            "translation" : [
                0,
                3,
                -1.4999990463256836
            ]
        },
        {
            "mesh" : 1,
            "name" : "Box002",
            "translation" : [
                0,
                3,
                23.5
            ]
        },
        {
            "mesh" : 2,
            "name" : "Box003",
            "rotation" : [
                0,
                1,
                0,
                7.549790126404332e-08
            ],
            "scale" : [
                -1,
                -1,
                -1
            ],
            "translation" : [
                0,
                43.5,
                23.5
            ]
        },
        {
            "children" : [
                0,
                1,
                2
            ],
            "name" : "Group001",
            "translation" : [
                0,
                0.30000001192092896,
                0
            ]
        },
        {
            "mesh" : 3,
            "name" : "Cylinder001",
            "translation" : [
                -14,
                0,
                -18.57169532775879
            ]
        },
        {
            "mesh" : 4,
            "name" : "Cylinder002",
            "translation" : [
                -14,
                0,
                18.57169532775879
            ]
        },
        {
            "mesh" : 5,
            "name" : "Cylinder003",
            "translation" : [
                14,
                0,
                -18.57169532775879
            ]
        },
        {
            "mesh" : 6,
            "name" : "Cylinder004",
            "translation" : [
                14,
                0,
                18.57169532775879
            ]
        },
        {
            "children" : [
                4,
                5,
                6,
                7
            ],
            "name" : "Group002",
            "translation" : [
                0,
                0,
                -0.42830562591552734
            ]
        },
        {
            "children" : [
                3,
                8
            ],
            "name" : "Group003",
            "scale" : [
                0.009999999776482582,
                0.009999999776482582,
                0.009999999776482582
            ]
        }
    ],
    "materials" : [
        {
            "doubleSided" : true,
            "name" : "Plastic",
            "pbrMetallicRoughness" : {
                "roughnessFactor" : 0.858578622341156
            }
        },
        {
            "doubleSided" : true,
            "name" : "wood",
            "normalTexture" : {
                "index" : 0,
                "scale" : 0.30000001192092896
            },
            "pbrMetallicRoughness" : {
                "baseColorTexture" : {
                    "index" : 1
                },
                "roughnessFactor" : 0.858578622341156
            }
        }
    ],
    "meshes" : [
        {
            "name" : "\u041c\u0435\u0448.006",
            "primitives" : [
                {
                    "attributes" : {
                        "POSITION" : 0,
                        "NORMAL" : 1,
                        "TEXCOORD_0" : 2
                    },
                    "indices" : 3,
                    "material" : 0
                }
            ]
        },
        {
            "name" : "\u041c\u0435\u0448.007",
            "primitives" : [
                {
                    "attributes" : {
                        "POSITION" : 4,
                        "NORMAL" : 5,
                        "TEXCOORD_0" : 6
                    },
                    "indices" : 7,
                    "material" : 0
                },
                {
                    "attributes" : {
                        "POSITION" : 8,
                        "NORMAL" : 9,
                        "TEXCOORD_0" : 10
                    },
                    "indices" : 11,
                    "material" : 1
                }
            ]
        },
        {
            "name" : "\u041c\u0435\u0448.008",
            "primitives" : [
                {
                    "attributes" : {
                        "POSITION" : 12,
                        "NORMAL" : 13,
                        "TEXCOORD_0" : 14
                    },
                    "indices" : 7,
                    "material" : 0
                },
                {
                    "attributes" : {
                        "POSITION" : 15,
                        "NORMAL" : 16,
                        "TEXCOORD_0" : 17
                    },
                    "indices" : 18,
                    "material" : 1
                }
            ]
        },
        {
            "name" : "\u041c\u0435\u0448.005",
            "primitives" : [
                {
                    "attributes" : {
                        "POSITION" : 19,
                        "NORMAL" : 20,
                        "TEXCOORD_0" : 21
                    },
                    "indices" : 22,
                    "material" : 1
                }
            ]
        },
        {
            "name" : "\u041c\u0435\u0448.004",
            "primitives" : [
                {
                    "attributes" : {
                        "POSITION" : 23,
                        "NORMAL" : 24,
                        "TEXCOORD_0" : 25
                    },
                    "indices" : 22,
                    "material" : 1
                }
            ]
        },
        {
            "name" : "\u041c\u0435\u0448.003",
            "primitives" : [
                {
                    "attributes" : {
                        "POSITION" : 26,
                        "NORMAL" : 27,
                        "TEXCOORD_0" : 28
                    },
                    "indices" : 22,
                    "material" : 1
                }
            ]
        },
        {
            "name" : "\u041c\u0435\u0448.002",
            "primitives" : [
                {
                    "attributes" : {
                        "POSITION" : 29,
                        "NORMAL" : 30,
                        "TEXCOORD_0" : 31
                    },
                    "indices" : 22,
                    "material" : 1
                }
            ]
        }
    ],
    "textures" : [
        {
            "sampler" : 0,
            "source" : 0
        },
        {
            "sampler" : 0,
            "source" : 1
        }
    ],
    "images" : [
        {
            "bufferView" : 12,
            "mimeType" : "image/png",
            "name" : "NormalMap_ad7e5c0bf4ed9cd89ad79fa955961fae"
        },
        {
            "bufferView" : 13,
            "mimeType" : "image/jpeg",
            "name" : "ad7e5c0bf4ed9cd89ad79fa955961fae"
        }
    ],
    "accessors" : [
        {
            "bufferView" : 0,
            "componentType" : 5126,
            "count" : 24,
            "max" : [
                21,
                40.5,
                23.5
            ],
            "min" : [
                -21,
                0,
                -23.5
            ],
            "type" : "VEC3"
        },
        {
            "bufferView" : 1,
            "componentType" : 5126,
            "count" : 24,
            "type" : "VEC3"
        },
        {
            "bufferView" : 2,
            "componentType" : 5126,
            "count" : 24,
            "type" : "VEC2"
        },
        {
            "bufferView" : 3,
            "componentType" : 5123,
            "count" : 36,
            "type" : "SCALAR"
        },
        {
            "bufferView" : 4,
            "componentType" : 5126,
            "count" : 36,
            "max" : [
                21,
                20,
                1.5
            ],
            "min" : [
                -21,
                0,
                -1.5
            ],
            "type" : "VEC3"
        },
        {
            "bufferView" : 5,
            "componentType" : 5126,
            "count" : 36,
            "type" : "VEC3"
        },
        {
            "bufferView" : 6,
            "componentType" : 5126,
            "count" : 36,
            "type" : "VEC2"
        },
        {
            "bufferView" : 7,
            "componentType" : 5123,
            "count" : 72,
            "type" : "SCALAR"
        },
        {
            "bufferView" : 8,
            "componentType" : 5126,
            "count" : 32,
            "max" : [
                8.701215744018555,
                20,
                1.5
            ],
            "min" : [
                -21,
                17,
                -0.4563717842102051
            ],
            "type" : "VEC3"
        },
        {
            "bufferView" : 9,
            "componentType" : 5126,
            "count" : 32,
            "type" : "VEC3"
        },
        {
            "bufferView" : 10,
            "componentType" : 5126,
            "count" : 32,
            "type" : "VEC2"
        },
        {
            "bufferView" : 11,
            "componentType" : 5123,
            "count" : 72,
            "type" : "SCALAR"
        },
        {
            "bufferView" : 14,
            "componentType" : 5126,
            "count" : 36,
            "max" : [
                21,
                20,
                1.5
            ],
            "min" : [
                -21,
                0,
                -1.5
            ],
            "type" : "VEC3"
        },
        {
            "bufferView" : 15,
            "componentType" : 5126,
            "count" : 36,
            "type" : "VEC3"
        },
        {
            "bufferView" : 16,
            "componentType" : 5126,
            "count" : 36,
            "type" : "VEC2"
        },
        {
            "bufferView" : 17,
            "componentType" : 5126,
            "count" : 41,
            "max" : [
                8.701215744018555,
                20,
                1.5
            ],
            "min" : [
                -21,
                17,
                -0.4563717842102051
            ],
            "type" : "VEC3"
        },
        {
            "bufferView" : 18,
            "componentType" : 5126,
            "count" : 41,
            "type" : "VEC3"
        },
        {
            "bufferView" : 19,
            "componentType" : 5126,
            "count" : 41,
            "type" : "VEC2"
        },
        {
            "bufferView" : 20,
            "componentType" : 5123,
            "count" : 72,
            "type" : "SCALAR"
        },
        {
            "bufferView" : 21,
            "componentType" : 5126,
            "count" : 218,
            "max" : [
                3.12638521194458,
                3,
                3.103590726852417
            ],
            "min" : [
                -3.12638521194458,
                0,
                -3.103590250015259
            ],
            "type" : "VEC3"
        },
        {
            "bufferView" : 22,
            "componentType" : 5126,
            "count" : 218,
            "type" : "VEC3"
        },
        {
            "bufferView" : 23,
            "componentType" : 5126,
            "count" : 218,
            "type" : "VEC2"
        },
        {
            "bufferView" : 24,
            "componentType" : 5123,
            "count" : 936,
            "type" : "SCALAR"
        },
        {
            "bufferView" : 25,
            "componentType" : 5126,
            "count" : 218,
            "max" : [
                3.12638521194458,
                3,
                3.103590726852417
            ],
            "min" : [
                -3.12638521194458,
                0,
                -3.103590250015259
            ],
            "type" : "VEC3"
        },
        {
            "bufferView" : 26,
            "componentType" : 5126,
            "count" : 218,
            "type" : "VEC3"
        },
        {
            "bufferView" : 27,
            "componentType" : 5126,
            "count" : 218,
            "type" : "VEC2"
        },
        {
            "bufferView" : 28,
            "componentType" : 5126,
            "count" : 218,
            "max" : [
                3.12638521194458,
                3,
                3.103590726852417
            ],
            "min" : [
                -3.12638521194458,
                0,
                -3.103590250015259
            ],
            "type" : "VEC3"
        },
        {
            "bufferView" : 29,
            "componentType" : 5126,
            "count" : 218,
            "type" : "VEC3"
        },
        {
            "bufferView" : 30,
            "componentType" : 5126,
            "count" : 218,
            "type" : "VEC2"
        },
        {
            "bufferView" : 31,
            "componentType" : 5126,
            "count" : 218,
            "max" : [
                3.12638521194458,
                3,
                3.103590726852417
            ],
            "min" : [
                -3.12638521194458,
                0,
                -3.103590250015259
            ],
            "type" : "VEC3"
        },
        {
            "bufferView" : 32,
            "componentType" : 5126,
            "count" : 218,
            "type" : "VEC3"
        },
        {
            "bufferView" : 33,
            "componentType" : 5126,
            "count" : 218,
            "type" : "VEC2"
        }
    ],
    "bufferViews" : [
        {
            "buffer" : 0,
            "byteLength" : 288,
            "byteOffset" : 0
        },
        {
            "buffer" : 0,
            "byteLength" : 288,
            "byteOffset" : 288
        },
        {
            "buffer" : 0,
            "byteLength" : 192,
            "byteOffset" : 576
        },
        {
            "buffer" : 0,
            "byteLength" : 72,
            "byteOffset" : 768
        },
        {
            "buffer" : 0,
            "byteLength" : 432,
            "byteOffset" : 840
        },
        {
            "buffer" : 0,
            "byteLength" : 432,
            "byteOffset" : 1272
        },
        {
            "buffer" : 0,
            "byteLength" : 288,
            "byteOffset" : 1704
        },
        {
            "buffer" : 0,
            "byteLength" : 144,
            "byteOffset" : 1992
        },
        {
            "buffer" : 0,
            "byteLength" : 384,
            "byteOffset" : 2136
        },
        {
            "buffer" : 0,
            "byteLength" : 384,
            "byteOffset" : 2520
        },
        {
            "buffer" : 0,
            "byteLength" : 256,
            "byteOffset" : 2904
        },
        {
            "buffer" : 0,
            "byteLength" : 144,
            "byteOffset" : 3160
        },
        {
            "buffer" : 0,
            "byteLength" : 1292607,
            "byteOffset" : 3304
        },
        {
            "buffer" : 0,
            "byteLength" : 92126,
            "byteOffset" : 1295912
        },
        {
            "buffer" : 0,
            "byteLength" : 432,
            "byteOffset" : 1388040
        },
        {
            "buffer" : 0,
            "byteLength" : 432,
            "byteOffset" : 1388472
        },
        {
            "buffer" : 0,
            "byteLength" : 288,
            "byteOffset" : 1388904
        },
        {
            "buffer" : 0,
            "byteLength" : 492,
            "byteOffset" : 1389192
        },
        {
            "buffer" : 0,
            "byteLength" : 492,
            "byteOffset" : 1389684
        },
        {
            "buffer" : 0,
            "byteLength" : 328,
            "byteOffset" : 1390176
        },
        {
            "buffer" : 0,
            "byteLength" : 144,
            "byteOffset" : 1390504
        },
        {
            "buffer" : 0,
            "byteLength" : 2616,
            "byteOffset" : 1390648
        },
        {
            "buffer" : 0,
            "byteLength" : 2616,
            "byteOffset" : 1393264
        },
        {
            "buffer" : 0,
            "byteLength" : 1744,
            "byteOffset" : 1395880
        },
        {
            "buffer" : 0,
            "byteLength" : 1872,
            "byteOffset" : 1397624
        },
        {
            "buffer" : 0,
            "byteLength" : 2616,
            "byteOffset" : 1399496
        },
        {
            "buffer" : 0,
            "byteLength" : 2616,
            "byteOffset" : 1402112
        },
        {
            "buffer" : 0,
            "byteLength" : 1744,
            "byteOffset" : 1404728
        },
        {
            "buffer" : 0,
            "byteLength" : 2616,
            "byteOffset" : 1406472
        },
        {
            "buffer" : 0,
            "byteLength" : 2616,
            "byteOffset" : 1409088
        },
        {
            "buffer" : 0,
            "byteLength" : 1744,
            "byteOffset" : 1411704
        },
        {
            "buffer" : 0,
            "byteLength" : 2616,
            "byteOffset" : 1413448
        },
        {
            "buffer" : 0,
            "byteLength" : 2616,
            "byteOffset" : 1416064
        },
        {
            "buffer" : 0,
            "byteLength" : 1744,
            "byteOffset" : 1418680
        }
    ],
    "samplers" : [
        {
            "magFilter" : 9729,
            "minFilter" : 9987
        }
    ],
    "buffers" : [
        {
            "byteLength" : 1420424,
            "uri" : "data:application/octet-stream;base64,"
        }
    ]
}
