{
    "asset" : {
        "generator" : "Khronos glTF Blender I/O v1.5.17",
        "version" : "2.0"
    },
    "scene" : 0,
    "scenes" : [
        {
            "name" : "Scene",
            "nodes" : [
                9
            ]
        }
    ],
    "nodes" : [
        {
            "mesh" : 0,
            "name" : "Box002",
            "rotation" : [
                0,
                0.7071068286895752,
                0,
                0.7071067094802856
            ],
            "translation" : [
                -0.550000011920929,
                0.7399998903274536,
                -0.3400000333786011
            ]
        },
        {
            "mesh" : 1,
            "name" : "Box004",
            "rotation" : [
                0.7071067094802856,
                0,
                0.7071068286895752,
                2.219724422047875e-07
            ],
            "scale" : [
                -1,
                -1,
                -1
            ],
            "translation" : [
                0.5500003695487976,
                0.7399993538856506,
                -0.3399999737739563
            ]
        },
        {
            "mesh" : 2,
            "name" : "Box005",
            "rotation" : [
                0.7071067094802856,
                0,
                -0.7071068286895752,
                2.2197245641564223e-07
            ],
            "scale" : [
                -1,
                -1,
                -1
            ],
            "translation" : [
                -0.5500004291534424,
                0.7399998307228088,
                0.3399999439716339
            ]
        },
        {
            "mesh" : 3,
            "name" : "Box006",
            "rotation" : [
                0,
                -0.7071065902709961,
                0,
                0.7071069478988647
            ],
            "translation" : [
                0.5499997735023499,
                0.7399998903274536,
                0.3399997353553772
            ]
        },
        {
            "mesh" : 4,
            "name" : "Box007",
            "translation" : [
                0,
                0.619999885559082,
                -0.3399999737739563
            ]
        },
        {
            "mesh" : 5,
            "name" : "Box008",
            "translation" : [
                0,
                0.619999885559082,
                0.3400000035762787
            ]
        },
        {
            "mesh" : 6,
            "name" : "Box009",
            "translation" : [
                0.5999999642372131,
                0.619999885559082,
                0
            ]
        },
        {
            "mesh" : 7,
            "name" : "Box010",
            "translation" : [
                -0.5973037481307983,
                0.619999885559082,
                0
            ]
        },
        {
            "mesh" : 8,
            "name" : "z",
            "translation" : [
                0,
                0.7399999499320984,
                0
            ]
        },
        {
            "children" : [
                0,
                1,
                2,
                3,
                4,
                5,
                6,
                7,
                8
            ],
            "name" : "Group001"
        }
    ],
    "materials" : [
        {
            "doubleSided" : true,
            "name" : "07 - Default.001",
            "normalTexture" : {
                "index" : 0,
                "scale" : 0.30000001192092896
            },
            "pbrMetallicRoughness" : {
                "baseColorTexture" : {
                    "index" : 1
                },
                "roughnessFactor" : 0.858578622341156
            }
        },
        {
            "doubleSided" : true,
            "name" : "05 - Default",
            "normalTexture" : {
                "index" : 2,
                "scale" : 0.30000001192092896
            },
            "pbrMetallicRoughness" : {
                "baseColorTexture" : {
                    "index" : 3
                },
                "roughnessFactor" : 0.858578622341156
            }
        }
    ],
    "meshes" : [
        {
            "name" : "\u041c\u0435\u0448.020",
            "primitives" : [
                {
                    "attributes" : {
                        "POSITION" : 0,
                        "NORMAL" : 1,
                        "TEXCOORD_0" : 2
                    },
                    "indices" : 3,
                    "material" : 0
                }
            ]
        },
        {
            "name" : "\u041c\u0435\u0448.019",
            "primitives" : [
                {
                    "attributes" : {
                        "POSITION" : 4,
                        "NORMAL" : 5,
                        "TEXCOORD_0" : 6
                    },
                    "indices" : 3,
                    "material" : 0
                }
            ]
        },
        {
            "name" : "\u041c\u0435\u0448.018",
            "primitives" : [
                {
                    "attributes" : {
                        "POSITION" : 7,
                        "NORMAL" : 8,
                        "TEXCOORD_0" : 9
                    },
                    "indices" : 3,
                    "material" : 0
                }
            ]
        },
        {
            "name" : "\u041c\u0435\u0448.017",
            "primitives" : [
                {
                    "attributes" : {
                        "POSITION" : 10,
                        "NORMAL" : 11,
                        "TEXCOORD_0" : 12
                    },
                    "indices" : 3,
                    "material" : 0
                }
            ]
        },
        {
            "name" : "\u041c\u0435\u0448.016",
            "primitives" : [
                {
                    "attributes" : {
                        "POSITION" : 13,
                        "NORMAL" : 14,
                        "TEXCOORD_0" : 15
                    },
                    "indices" : 16,
                    "material" : 0
                }
            ]
        },
        {
            "name" : "\u041c\u0435\u0448.015",
            "primitives" : [
                {
                    "attributes" : {
                        "POSITION" : 17,
                        "NORMAL" : 18,
                        "TEXCOORD_0" : 19
                    },
                    "indices" : 16,
                    "material" : 0
                }
            ]
        },
        {
            "name" : "\u041c\u0435\u0448.014",
            "primitives" : [
                {
                    "attributes" : {
                        "POSITION" : 20,
                        "NORMAL" : 21,
                        "TEXCOORD_0" : 22
                    },
                    "indices" : 16,
                    "material" : 0
                }
            ]
        },
        {
            "name" : "\u041c\u0435\u0448.013",
            "primitives" : [
                {
                    "attributes" : {
                        "POSITION" : 23,
                        "NORMAL" : 24,
                        "TEXCOORD_0" : 25
                    },
                    "indices" : 16,
                    "material" : 0
                }
            ]
        },
        {
            "name" : "\u041c\u0435\u0448.012",
            "primitives" : [
                {
                    "attributes" : {
                        "POSITION" : 26,
                        "NORMAL" : 27,
                        "TEXCOORD_0" : 28
                    },
                    "indices" : 29,
                    "material" : 1
                }
            ]
        }
    ],
    "textures" : [
        {
            "sampler" : 0,
            "source" : 0
        },
        {
            "sampler" : 0,
            "source" : 1
        },
        {
            "sampler" : 0,
            "source" : 2
        },
        {
            "sampler" : 0,
            "source" : 3
        }
    ],
    "images" : [
        {
            "bufferView" : 4,
            "mimeType" : "image/png",
            "name" : "6939fd0306eada11ec485951adb0035c_NormalMap"
        },
        {
            "bufferView" : 5,
            "mimeType" : "image/jpeg",
            "name" : "6939fd0306eada11ec485951adb0035c"
        },
        {
            "bufferView" : 32,
            "mimeType" : "image/png",
            "name" : "NormalMap_gray-wood-texture_1259-191"
        },
        {
            "bufferView" : 33,
            "mimeType" : "image/jpeg",
            "name" : "gray-wood-texture_1259-191"
        }
    ],
    "accessors" : [
        {
            "bufferView" : 0,
            "componentType" : 5126,
            "count" : 48,
            "max" : [
                0.009999999776482582,
                0,
                0.05999999865889549
            ],
            "min" : [
                -0.11000001430511475,
                -0.7400000095367432,
                -0.060000013560056686
            ],
            "type" : "VEC3"
        },
        {
            "bufferView" : 1,
            "componentType" : 5126,
            "count" : 48,
            "type" : "VEC3"
        },
        {
            "bufferView" : 2,
            "componentType" : 5126,
            "count" : 48,
            "type" : "VEC2"
        },
        {
            "bufferView" : 3,
            "componentType" : 5123,
            "count" : 72,
            "type" : "SCALAR"
        },
        {
            "bufferView" : 6,
            "componentType" : 5126,
            "count" : 48,
            "max" : [
                0.009999999776482582,
                0,
                0.05999999865889549
            ],
            "min" : [
                -0.11000001430511475,
                -0.7400000095367432,
                -0.060000013560056686
            ],
            "type" : "VEC3"
        },
        {
            "bufferView" : 7,
            "componentType" : 5126,
            "count" : 48,
            "type" : "VEC3"
        },
        {
            "bufferView" : 8,
            "componentType" : 5126,
            "count" : 48,
            "type" : "VEC2"
        },
        {
            "bufferView" : 9,
            "componentType" : 5126,
            "count" : 48,
            "max" : [
                0.009999999776482582,
                0,
                0.05999999865889549
            ],
            "min" : [
                -0.11000001430511475,
                -0.7400000095367432,
                -0.060000013560056686
            ],
            "type" : "VEC3"
        },
        {
            "bufferView" : 10,
            "componentType" : 5126,
            "count" : 48,
            "type" : "VEC3"
        },
        {
            "bufferView" : 11,
            "componentType" : 5126,
            "count" : 48,
            "type" : "VEC2"
        },
        {
            "bufferView" : 12,
            "componentType" : 5126,
            "count" : 48,
            "max" : [
                0.009999999776482582,
                0,
                0.05999999865889549
            ],
            "min" : [
                -0.11000001430511475,
                -0.7400000095367432,
                -0.060000013560056686
            ],
            "type" : "VEC3"
        },
        {
            "bufferView" : 13,
            "componentType" : 5126,
            "count" : 48,
            "type" : "VEC3"
        },
        {
            "bufferView" : 14,
            "componentType" : 5126,
            "count" : 48,
            "type" : "VEC2"
        },
        {
            "bufferView" : 15,
            "componentType" : 5126,
            "count" : 24,
            "max" : [
                0.49000000953674316,
                0.11999999731779099,
                0.01000000536441803
            ],
            "min" : [
                -0.49000000953674316,
                0,
                -0.01000000536441803
            ],
            "type" : "VEC3"
        },
        {
            "bufferView" : 16,
            "componentType" : 5126,
            "count" : 24,
            "type" : "VEC3"
        },
        {
            "bufferView" : 17,
            "componentType" : 5126,
            "count" : 24,
            "type" : "VEC2"
        },
        {
            "bufferView" : 18,
            "componentType" : 5123,
            "count" : 36,
            "type" : "SCALAR"
        },
        {
            "bufferView" : 19,
            "componentType" : 5126,
            "count" : 24,
            "max" : [
                0.49000000953674316,
                0.11999999731779099,
                0.01000000536441803
            ],
            "min" : [
                -0.49000000953674316,
                0,
                -0.01000000536441803
            ],
            "type" : "VEC3"
        },
        {
            "bufferView" : 20,
            "componentType" : 5126,
            "count" : 24,
            "type" : "VEC3"
        },
        {
            "bufferView" : 21,
            "componentType" : 5126,
            "count" : 24,
            "type" : "VEC2"
        },
        {
            "bufferView" : 22,
            "componentType" : 5126,
            "count" : 24,
            "max" : [
                0.009999990463256836,
                0.11999999731779099,
                0.22999997437000275
            ],
            "min" : [
                -0.009999990463256836,
                0,
                -0.22999997437000275
            ],
            "type" : "VEC3"
        },
        {
            "bufferView" : 23,
            "componentType" : 5126,
            "count" : 24,
            "type" : "VEC3"
        },
        {
            "bufferView" : 24,
            "componentType" : 5126,
            "count" : 24,
            "type" : "VEC2"
        },
        {
            "bufferView" : 25,
            "componentType" : 5126,
            "count" : 24,
            "max" : [
                0.009999990463256836,
                0.11999999731779099,
                0.22999997437000275
            ],
            "min" : [
                -0.009999990463256836,
                0,
                -0.22999997437000275
            ],
            "type" : "VEC3"
        },
        {
            "bufferView" : 26,
            "componentType" : 5126,
            "count" : 24,
            "type" : "VEC3"
        },
        {
            "bufferView" : 27,
            "componentType" : 5126,
            "count" : 24,
            "type" : "VEC2"
        },
        {
            "bufferView" : 28,
            "componentType" : 5126,
            "count" : 48,
            "max" : [
                0.6600000262260437,
                0.029999999329447746,
                0.4000000059604645
            ],
            "min" : [
                -0.6600000262260437,
                0,
                -0.4000000059604645
            ],
            "type" : "VEC3"
        },
        {
            "bufferView" : 29,
            "componentType" : 5126,
            "count" : 48,
            "type" : "VEC3"
        },
        {
            "bufferView" : 30,
            "componentType" : 5126,
            "count" : 48,
            "type" : "VEC2"
        },
        {
            "bufferView" : 31,
            "componentType" : 5123,
            "count" : 84,
            "type" : "SCALAR"
        }
    ],
    "bufferViews" : [
        {
            "buffer" : 0,
            "byteLength" : 576,
            "byteOffset" : 0
        },
        {
            "buffer" : 0,
            "byteLength" : 576,
            "byteOffset" : 576
        },
        {
            "buffer" : 0,
            "byteLength" : 384,
            "byteOffset" : 1152
        },
        {
            "buffer" : 0,
            "byteLength" : 144,
            "byteOffset" : 1536
        },
        {
            "buffer" : 0,
            "byteLength" : 1330615,
            "byteOffset" : 1680
        },
        {
            "buffer" : 0,
            "byteLength" : 89526,
            "byteOffset" : 1332296
        },
        {
            "buffer" : 0,
            "byteLength" : 576,
            "byteOffset" : 1421824
        },
        {
            "buffer" : 0,
            "byteLength" : 576,
            "byteOffset" : 1422400
        },
        {
            "buffer" : 0,
            "byteLength" : 384,
            "byteOffset" : 1422976
        },
        {
            "buffer" : 0,
            "byteLength" : 576,
            "byteOffset" : 1423360
        },
        {
            "buffer" : 0,
            "byteLength" : 576,
            "byteOffset" : 1423936
        },
        {
            "buffer" : 0,
            "byteLength" : 384,
            "byteOffset" : 1424512
        },
        {
            "buffer" : 0,
            "byteLength" : 576,
            "byteOffset" : 1424896
        },
        {
            "buffer" : 0,
            "byteLength" : 576,
            "byteOffset" : 1425472
        },
        {
            "buffer" : 0,
            "byteLength" : 384,
            "byteOffset" : 1426048
        },
        {
            "buffer" : 0,
            "byteLength" : 288,
            "byteOffset" : 1426432
        },
        {
            "buffer" : 0,
            "byteLength" : 288,
            "byteOffset" : 1426720
        },
        {
            "buffer" : 0,
            "byteLength" : 192,
            "byteOffset" : 1427008
        },
        {
            "buffer" : 0,
            "byteLength" : 72,
            "byteOffset" : 1427200
        },
        {
            "buffer" : 0,
            "byteLength" : 288,
            "byteOffset" : 1427272
        },
        {
            "buffer" : 0,
            "byteLength" : 288,
            "byteOffset" : 1427560
        },
        {
            "buffer" : 0,
            "byteLength" : 192,
            "byteOffset" : 1427848
        },
        {
            "buffer" : 0,
            "byteLength" : 288,
            "byteOffset" : 1428040
        },
        {
            "buffer" : 0,
            "byteLength" : 288,
            "byteOffset" : 1428328
        },
        {
            "buffer" : 0,
            "byteLength" : 192,
            "byteOffset" : 1428616
        },
        {
            "buffer" : 0,
            "byteLength" : 288,
            "byteOffset" : 1428808
        },
        {
            "buffer" : 0,
            "byteLength" : 288,
            "byteOffset" : 1429096
        },
        {
            "buffer" : 0,
            "byteLength" : 192,
            "byteOffset" : 1429384
        },
        {
            "buffer" : 0,
            "byteLength" : 576,
            "byteOffset" : 1429576
        },
        {
            "buffer" : 0,
            "byteLength" : 576,
            "byteOffset" : 1430152
        },
        {
            "buffer" : 0,
            "byteLength" : 384,
            "byteOffset" : 1430728
        },
        {
            "buffer" : 0,
            "byteLength" : 168,
            "byteOffset" : 1431112
        },
        {
            "buffer" : 0,
            "byteLength" : 767370,
            "byteOffset" : 1431280
        },
        {
            "buffer" : 0,
            "byteLength" : 127485,
            "byteOffset" : 2198652
        }
    ],
    "samplers" : [
        {
            "magFilter" : 9729,
            "minFilter" : 9987
        }
    ],
    "buffers" : [
        {
            "byteLength" : 2326140,
            "uri" : "data:application/octet-stream;base64,"
        }
    ]
}
